<svg xmlns="http://www.w3.org/2000/svg" xmlns:xlink="http://www.w3.org/1999/xlink" contentStyleType="text/css" height="582px" preserveAspectRatio="none" style="width:2271px;height:582px;background:#FFFFFF;" version="1.1" viewBox="0 0 2271 582" width="2271px" zoomAndPan="magnify"><defs/><g><rect fill="#C8C8FA" height="563.2363" style="stroke:#181818;stroke-width:0.5;" width="1585.3403" x="468.9814" y="6"/><text fill="#FFFFFF" font-family="sans-serif" font-size="13" font-weight="bold" lengthAdjust="spacing" textLength="35.585" x="1241.7168" y="18.5684">Logic</text><rect fill="#F97181" height="563.2363" style="stroke:#181818;stroke-width:0.5;" width="208.7666" x="2056.3218" y="6"/><text fill="#FFFFFF" font-family="sans-serif" font-size="13" font-weight="bold" lengthAdjust="spacing" textLength="40.5615" x="2138.282" y="18.5684">Model</text><rect fill="#FFFFFF" height="469.127" style="stroke:#181818;stroke-width:1.0;" width="10" x="534.436" y="88.1094"/><rect fill="#FFFFFF" height="268.3965" style="stroke:#181818;stroke-width:1.0;" width="10" x="1128.8154" y="117.4199"/><rect fill="#FFFFFF" height="31.4883" style="stroke:#181818;stroke-width:1.0;" width="10" x="1630.8555" y="141.4199"/><rect fill="#FFFFFF" height="140.2871" style="stroke:#181818;stroke-width:1.0;" width="10" x="1630.8555" y="202.2188"/><rect fill="#FFFFFF" height="16.1777" style="stroke:#181818;stroke-width:1.0;" width="10" x="1804.6084" y="297.0176"/><rect fill="#FFFFFF" height="128.1094" style="stroke:#181818;stroke-width:1.0;" width="10" x="1804.6084" y="415.127"/><rect fill="#FFFFFF" height="31.4883" style="stroke:#181818;stroke-width:1.0;" width="10" x="1967.5332" y="482.4375"/><rect fill="#FFFFFF" height="31.4883" style="stroke:#181818;stroke-width:1.0;" width="10" x="2104.2969" y="226.2188"/><rect fill="#FFFFFF" height="14" style="stroke:#181818;stroke-width:1.0;" width="10" x="2209.6802" y="444.4375"/><line style="stroke:#181818;stroke-width:0.5;stroke-dasharray:5.0,5.0;" x1="538.9814" x2="538.9814" y1="56.7988" y2="575.2363"/><line style="stroke:#181818;stroke-width:0.5;stroke-dasharray:5.0,5.0;" x1="1133.4097" x2="1133.4097" y1="56.7988" y2="575.2363"/><line style="stroke:#181818;stroke-width:0.5;stroke-dasharray:5.0,5.0;" x1="1635.2388" x2="1635.2388" y1="156.1641" y2="575.2363"/><line style="stroke:#181818;stroke-width:0.5;stroke-dasharray:5.0,5.0;" x1="1809.4722" x2="1809.4722" y1="296.4512" y2="575.2363"/><line style="stroke:#181818;stroke-width:0.5;stroke-dasharray:5.0,5.0;" x1="1971.7446" x2="1971.7446" y1="497.1816" y2="575.2363"/><line style="stroke:#181818;stroke-width:0.5;stroke-dasharray:5.0,5.0;" x1="2108.3218" x2="2108.3218" y1="240.9629" y2="575.2363"/><line style="stroke:#181818;stroke-width:0.5;stroke-dasharray:5.0,5.0;" x1="2214.272" x2="2214.272" y1="56.7988" y2="575.2363"/><rect fill="#3333C4" height="30.4883" rx="2.5" ry="2.5" style="stroke:#181818;stroke-width:0.5;" width="112.9092" x="482.9814" y="25.3105"/><text fill="#FFFFFF" font-family="sans-serif" font-size="14" lengthAdjust="spacing" textLength="98.9092" x="489.9814" y="45.8457">:LogicManager</text><rect fill="#3333C4" height="30.4883" rx="2.5" ry="2.5" style="stroke:#181818;stroke-width:0.5;" width="148.8115" x="1059.4097" y="25.3105"/><text fill="#FFFFFF" font-family="sans-serif" font-size="14" lengthAdjust="spacing" textLength="134.8115" x="1066.4097" y="45.8457">:AddressBookParser</text><rect fill="#9D0012" height="30.4883" rx="2.5" ry="2.5" style="stroke:#181818;stroke-width:0.5;" width="72.8164" x="2178.272" y="25.3105"/><text fill="#FFFFFF" font-family="sans-serif" font-size="14" lengthAdjust="spacing" textLength="58.8164" x="2185.272" y="45.8457">m:Model</text><rect fill="#FFFFFF" height="469.127" style="stroke:#181818;stroke-width:1.0;" width="10" x="534.436" y="88.1094"/><rect fill="#FFFFFF" height="268.3965" style="stroke:#181818;stroke-width:1.0;" width="10" x="1128.8154" y="117.4199"/><rect fill="#FFFFFF" height="31.4883" style="stroke:#181818;stroke-width:1.0;" width="10" x="1630.8555" y="141.4199"/><rect fill="#FFFFFF" height="140.2871" style="stroke:#181818;stroke-width:1.0;" width="10" x="1630.8555" y="202.2188"/><rect fill="#FFFFFF" height="16.1777" style="stroke:#181818;stroke-width:1.0;" width="10" x="1804.6084" y="297.0176"/><rect fill="#FFFFFF" height="128.1094" style="stroke:#181818;stroke-width:1.0;" width="10" x="1804.6084" y="415.127"/><rect fill="#FFFFFF" height="31.4883" style="stroke:#181818;stroke-width:1.0;" width="10" x="1967.5332" y="482.4375"/><rect fill="#FFFFFF" height="31.4883" style="stroke:#181818;stroke-width:1.0;" width="10" x="2104.2969" y="226.2188"/><rect fill="#FFFFFF" height="14" style="stroke:#181818;stroke-width:1.0;" width="10" x="2209.6802" y="444.4375"/><polygon fill="#181818" points="522.436,84.1094,532.436,88.1094,522.436,92.1094,526.436,88.1094" style="stroke:#181818;stroke-width:1.0;"/><line style="stroke:#181818;stroke-width:1.0;" x1="0" x2="528.436" y1="88.1094" y2="88.1094"/><text fill="#000000" font-family="sans-serif" font-size="13" lengthAdjust="spacing" textLength="515.436" x="9.5" y="83.3672">execute("add n/John Doe th/johnny123 e/johnd@example.com ss/PhD r/Admin")</text><polygon fill="#181818" points="1116.8154,113.4199,1126.8154,117.4199,1116.8154,121.4199,1120.8154,117.4199" style="stroke:#181818;stroke-width:1.0;"/><line style="stroke:#181818;stroke-width:1.0;" x1="544.436" x2="1122.8154" y1="117.4199" y2="117.4199"/><text fill="#000000" font-family="sans-serif" font-size="13" lengthAdjust="spacing" textLength="565.3794" x="553.936" y="112.6777">parseCommand("add n/John Doe th/johnny123 e/johnd@example.com ss/PhD r/Admin")</text><polygon fill="#181818" points="1545.2388,127.4199,1555.2388,131.4199,1545.2388,135.4199,1549.2388,131.4199" style="stroke:#181818;stroke-width:1.0;"/><line style="stroke:#181818;stroke-width:1.0;" x1="1138.8154" x2="1551.2388" y1="131.4199" y2="131.4199"/><rect fill="#3333C4" height="30.4883" rx="2.5" ry="2.5" style="stroke:#181818;stroke-width:0.5;" width="157.2334" x="1557.2388" y="125.4199"/><text fill="#FFFFFF" font-family="sans-serif" font-size="14" lengthAdjust="spacing" textLength="143.2334" x="1564.2388" y="145.9551">:AddCommandParser</text><polygon fill="#181818" points="1149.8154,168.9082,1139.8154,172.9082,1149.8154,176.9082,1145.8154,172.9082" style="stroke:#181818;stroke-width:1.0;"/><line style="stroke:#181818;stroke-width:1.0;stroke-dasharray:2.0,2.0;" x1="1143.8154" x2="1634.8555" y1="172.9082" y2="172.9082"/><polygon fill="#181818" points="1618.8555,198.2188,1628.8555,202.2188,1618.8555,206.2188,1622.8555,202.2188" style="stroke:#181818;stroke-width:1.0;"/><line style="stroke:#181818;stroke-width:1.0;" x1="1138.8154" x2="1624.8555" y1="202.2188" y2="202.2188"/><text fill="#000000" font-family="sans-serif" font-size="13" lengthAdjust="spacing" textLength="473.04" x="1148.3154" y="197.4766">parse("n/John Doe th/johnny123 e/johnd@example.com ss/PhD r/Admin")</text><polygon fill="#181818" points="2058.3218,212.2188,2068.3218,216.2188,2058.3218,220.2188,2062.3218,216.2188" style="stroke:#181818;stroke-width:1.0;"/><line style="stroke:#181818;stroke-width:1.0;" x1="1640.8555" x2="2064.3218" y1="216.2188" y2="216.2188"/><rect fill="#9D0012" height="30.4883" rx="2.5" ry="2.5" style="stroke:#181818;stroke-width:0.5;" width="77.9502" x="2070.3218" y="210.2188"/><text fill="#FFFFFF" font-family="sans-serif" font-size="14" lengthAdjust="spacing" textLength="63.9502" x="2077.3218" y="230.7539">c:Contact</text><polygon fill="#181818" points="1651.8555,253.707,1641.8555,257.707,1651.8555,261.707,1647.8555,257.707" style="stroke:#181818;stroke-width:1.0;"/><line style="stroke:#181818;stroke-width:1.0;stroke-dasharray:2.0,2.0;" x1="1645.8555" x2="2108.2969" y1="257.707" y2="257.707"/><polygon fill="#181818" points="1732.4722,283.0176,1742.4722,287.0176,1732.4722,291.0176,1736.4722,287.0176" style="stroke:#181818;stroke-width:1.0;"/><line style="stroke:#181818;stroke-width:1.0;" x1="1640.8555" x2="1738.4722" y1="287.0176" y2="287.0176"/><text fill="#000000" font-family="sans-serif" font-size="13" lengthAdjust="spacing" textLength="6.6587" x="1689.3345" y="282.2754">c</text><rect fill="#3333C4" height="30.4883" rx="2.5" ry="2.5" style="stroke:#181818;stroke-width:0.5;" width="130.2725" x="1744.4722" y="265.707"/><text fill="#FFFFFF" font-family="sans-serif" font-size="14" lengthAdjust="spacing" textLength="116.2725" x="1751.4722" y="286.2422">ac:AddCommand</text><polygon fill="#181818" points="1651.8555,309.1953,1641.8555,313.1953,1651.8555,317.1953,1647.8555,313.1953" style="stroke:#181818;stroke-width:1.0;"/><line style="stroke:#181818;stroke-width:1.0;stroke-dasharray:2.0,2.0;" x1="1645.8555" x2="1808.6084" y1="313.1953" y2="313.1953"/><polygon fill="#181818" points="1149.8154,338.5059,1139.8154,342.5059,1149.8154,346.5059,1145.8154,342.5059" style="stroke:#181818;stroke-width:1.0;"/><line style="stroke:#181818;stroke-width:1.0;stroke-dasharray:2.0,2.0;" x1="1143.8154" x2="1634.8555" y1="342.5059" y2="342.5059"/><text fill="#000000" font-family="sans-serif" font-size="13" lengthAdjust="spacing" textLength="13.8379" x="1380.4165" y="337.7637">ac</text><line style="stroke:#A80036;stroke-width:2.0;" x1="1626.8555" x2="1644.8555" y1="347.5059" y2="365.5059"/><line style="stroke:#A80036;stroke-width:2.0;" x1="1626.8555" x2="1644.8555" y1="365.5059" y2="347.5059"/><polygon fill="#181818" points="555.436,381.8164,545.436,385.8164,555.436,389.8164,551.436,385.8164" style="stroke:#181818;stroke-width:1.0;"/><line style="stroke:#181818;stroke-width:1.0;stroke-dasharray:2.0,2.0;" x1="549.436" x2="1132.8154" y1="385.8164" y2="385.8164"/><text fill="#000000" font-family="sans-serif" font-size="13" lengthAdjust="spacing" textLength="13.8379" x="832.2068" y="381.0742">ac</text><polygon fill="#181818" points="1792.6084,411.127,1802.6084,415.127,1792.6084,419.127,1796.6084,415.127" style="stroke:#181818;stroke-width:1.0;"/><line style="stroke:#181818;stroke-width:1.0;" x1="544.436" x2="1798.6084" y1="415.127" y2="415.127"/><text fill="#000000" font-family="sans-serif" font-size="13" lengthAdjust="spacing" textLength="69.8813" x="1139.5815" y="410.3848">execute(m)</text><polygon fill="#181818" points="2197.6802,440.4375,2207.6802,444.4375,2197.6802,448.4375,2201.6802,444.4375" style="stroke:#181818;stroke-width:1.0;"/><line style="stroke:#181818;stroke-width:1.0;" x1="1814.6084" x2="2203.6802" y1="444.4375" y2="444.4375"/><text fill="#000000" font-family="sans-serif" font-size="13" lengthAdjust="spacing" textLength="87.2676" x="1968.5105" y="439.6953">addContact(c)</text><polygon fill="#181818" points="1825.6084,454.4375,1815.6084,458.4375,1825.6084,462.4375,1821.6084,458.4375" style="stroke:#181818;stroke-width:1.0;"/><line style="stroke:#181818;stroke-width:1.0;stroke-dasharray:2.0,2.0;" x1="1819.6084" x2="2213.6802" y1="458.4375" y2="458.4375"/><polygon fill="#181818" points="1892.7446,468.4375,1902.7446,472.4375,1892.7446,476.4375,1896.7446,472.4375" style="stroke:#181818;stroke-width:1.0;"/><line style="stroke:#181818;stroke-width:1.0;" x1="1814.6084" x2="1898.7446" y1="472.4375" y2="472.4375"/><rect fill="#3333C4" height="30.4883" rx="2.5" ry="2.5" style="stroke:#181818;stroke-width:0.5;" width="135.5771" x="1904.7446" y="466.4375"/><text fill="#FFFFFF" font-family="sans-serif" font-size="14" lengthAdjust="spacing" textLength="121.5771" x="1911.7446" y="486.9727">r:CommandResult</text><polygon fill="#181818" points="1825.6084,509.9258,1815.6084,513.9258,1825.6084,517.9258,1821.6084,513.9258" style="stroke:#181818;stroke-width:1.0;"/><line style="stroke:#181818;stroke-width:1.0;stroke-dasharray:2.0,2.0;" x1="1819.6084" x2="1971.5332" y1="513.9258" y2="513.9258"/><polygon fill="#181818" points="555.436,539.2363,545.436,543.2363,555.436,547.2363,551.436,543.2363" style="stroke:#181818;stroke-width:1.0;"/><line style="stroke:#181818;stroke-width:1.0;stroke-dasharray:2.0,2.0;" x1="549.436" x2="1808.6084" y1="543.2363" y2="543.2363"/><text fill="#000000" font-family="sans-serif" font-size="13" lengthAdjust="spacing" textLength="5.3193" x="1174.3625" y="538.4941">r</text><polygon fill="#181818" points="11,553.2363,1,557.2363,11,561.2363,7,557.2363" style="stroke:#181818;stroke-width:1.0;"/><line style="stroke:#181818;stroke-width:1.0;stroke-dasharray:2.0,2.0;" x1="5" x2="538.436" y1="557.2363" y2="557.2363"/><!--SRC=[hLHDRzim3BthLt2-B3suGRURCGJBadqYGOfsjs0e58bhjDYI8IbRykydAtOg-IFjeJU2v7kF8Yc-4PBbUuvWx377wt9VvCJiX2offWLCjLR_lYXfxwieb3aLaf2DEi12FGe6YzNNxxE7sMgnkdluUKCSo0ecIYej99bFML997r4dG0s4ZX3QmaqvrsZC9wLsjrIR6jpnNcQOgQAWaiS4aNCOJrd0qC8EetHMfzoXsUVMuo9F14L7vVfuQkPISSnXkPf_NWmqapboQIbhQBqT8kBq8lEKFhb3_gIzJYVnK3B00xAznL52EGSv_g6s4kOAmMx7VvmjZpVltWDwct_40orAjpLC5M3C-7Ox1psUyaB8v8gu0iLVQZ5I82JIS_hTkMPGLaRTkzUifAD52DDOHwBb8DsoJhN6MI5p726TTKlx7aiuNkPuleYcNwFarPhKAgFkKRrrFI-Rd6DdbiP1cbrD-_eNlFuCw4oaLp3uaHcmlkh34VIgGzRV_PVEpWbJTd60Rxy9pb42hSueM0MbCi8A9Try43WQgzKH2gftZcs3UPNa0jN_LB-zMNDNa0tLrpsLhRTUuzV0TfqaNhHQtMFGULxxz_HyvgUfDAUak7f-F9FwJ3dDokjNOSG2e0yJSigAfndMMAUTDpOuloszE1QiOUWcyG4Vrct1MflNQgiUshlrXpIDhcMG5_h_0m00]--></g></svg>
