<svg xmlns="http://www.w3.org/2000/svg" xmlns:xlink="http://www.w3.org/1999/xlink" contentStyleType="text/css" height="355px" preserveAspectRatio="none" style="width:547px;height:355px;background:#FFFFFF;" version="1.1" viewBox="0 0 547 355" width="547px" zoomAndPan="magnify"><defs/><g><rect fill="#1D8900" height="217.4063" style="stroke:#181818;stroke-width:1.0;" width="10" x="97.2705" y="113.4502"/><rect fill="#3333C4" height="173.0547" style="stroke:#181818;stroke-width:1.0;" width="10" x="235.9517" y="143.8018"/><rect fill="#9D0012" height="14" style="stroke:#181818;stroke-width:1.0;" width="10" x="357.4497" y="174.1533"/><rect fill="#A38300" height="84.3516" style="stroke:#181818;stroke-width:1.0;" width="10" x="454.2705" y="218.5049"/><rect fill="#FFE374" height="25" style="stroke:#181818;stroke-width:1.0;" width="10" x="459.2705" y="256.8564"/><line style="stroke:#181818;stroke-width:0.5;stroke-dasharray:5.0,5.0;" x1="22" x2="22" y1="81.0986" y2="348.8564"/><line style="stroke:#181818;stroke-width:0.5;stroke-dasharray:5.0,5.0;" x1="102.2705" x2="102.2705" y1="81.0986" y2="348.8564"/><line style="stroke:#181818;stroke-width:0.5;stroke-dasharray:5.0,5.0;" x1="240.9517" x2="240.9517" y1="81.0986" y2="348.8564"/><line style="stroke:#181818;stroke-width:0.5;stroke-dasharray:5.0,5.0;" x1="362.4497" x2="362.4497" y1="81.0986" y2="348.8564"/><line style="stroke:#181818;stroke-width:0.5;stroke-dasharray:5.0,5.0;" x1="458.8086" x2="458.8086" y1="81.0986" y2="348.8564"/><text fill="#000000" font-family="Arial" font-size="14" lengthAdjust="spacing" textLength="29.5586" x="5" y="78.1318">User</text><ellipse cx="22.7793" cy="13.5" fill="#000000" rx="8" ry="8" style="stroke:#000000;stroke-width:0.5;"/><path d="M22.7793,21.5 L22.7793,48.5 M9.7793,29.5 L35.7793,29.5 M22.7793,48.5 L9.7793,63.5 M22.7793,48.5 L35.7793,63.5 " fill="none" style="stroke:#000000;stroke-width:0.5;"/><rect fill="#1D8900" height="31.6094" rx="2.5" ry="2.5" style="stroke:#181818;stroke-width:0.5;" width="64" x="70.2705" y="48.4893"/><text fill="#FFFFFF" font-family="sans-serif" font-size="14" lengthAdjust="spacing" textLength="17.8896" x="93.3257" y="70.0225">:UI</text><rect fill="#3333C4" height="31.6094" rx="2.5" ry="2.5" style="stroke:#181818;stroke-width:0.5;" width="64" x="208.9517" y="48.4893"/><text fill="#FFFFFF" font-family="sans-serif" font-size="14" lengthAdjust="spacing" textLength="37.3584" x="222.2725" y="70.0225">:Logic</text><rect fill="#9D0012" height="31.6094" rx="2.5" ry="2.5" style="stroke:#181818;stroke-width:0.5;" width="64" x="330.4497" y="48.4893"/><text fill="#FFFFFF" font-family="sans-serif" font-size="14" lengthAdjust="spacing" textLength="42.0205" x="341.4395" y="70.0225">:Model</text><rect fill="#A38300" height="31.6094" rx="2.5" ry="2.5" style="stroke:#181818;stroke-width:0.5;" width="66.9238" x="425.8086" y="48.4893"/><text fill="#FFFFFF" font-family="sans-serif" font-size="14" lengthAdjust="spacing" textLength="52.9238" x="432.8086" y="70.0225">:Storage</text><rect fill="#1D8900" height="217.4063" style="stroke:#181818;stroke-width:1.0;" width="10" x="97.2705" y="113.4502"/><rect fill="#3333C4" height="173.0547" style="stroke:#181818;stroke-width:1.0;" width="10" x="235.9517" y="143.8018"/><rect fill="#9D0012" height="14" style="stroke:#181818;stroke-width:1.0;" width="10" x="357.4497" y="174.1533"/><rect fill="#A38300" height="84.3516" style="stroke:#181818;stroke-width:1.0;" width="10" x="454.2705" y="218.5049"/><rect fill="#FFE374" height="25" style="stroke:#181818;stroke-width:1.0;" width="10" x="459.2705" y="256.8564"/><polygon fill="#000000" points="85.2705,109.4502,95.2705,113.4502,85.2705,117.4502,89.2705,113.4502" style="stroke:#000000;stroke-width:1.0;"/><line style="stroke:#000000;stroke-width:1.0;" x1="22.7793" x2="91.2705" y1="113.4502" y2="113.4502"/><text fill="#000000" font-family="sans-serif" font-size="13" lengthAdjust="spacing" textLength="55.4912" x="32.2793" y="108.5938">"delete 1"</text><polygon fill="#1D8900" points="223.9517,139.8018,233.9517,143.8018,223.9517,147.8018,227.9517,143.8018" style="stroke:#1D8900;stroke-width:1.0;"/><line style="stroke:#1D8900;stroke-width:1.0;" x1="107.2705" x2="229.9517" y1="143.8018" y2="143.8018"/><text fill="#000000" font-family="sans-serif" font-size="13" lengthAdjust="spacing" textLength="109.6812" x="116.7705" y="138.9453">execute("delete 1")</text><polygon fill="#3333C4" points="345.4497,170.1533,355.4497,174.1533,345.4497,178.1533,349.4497,174.1533" style="stroke:#3333C4;stroke-width:1.0;"/><line style="stroke:#3333C4;stroke-width:1.0;" x1="245.9517" x2="351.4497" y1="174.1533" y2="174.1533"/><text fill="#000000" font-family="sans-serif" font-size="13" lengthAdjust="spacing" textLength="92.498" x="255.4517" y="169.2969">deletePerson(p)</text><polygon fill="#9D0012" points="256.9517,184.1533,246.9517,188.1533,256.9517,192.1533,252.9517,188.1533" style="stroke:#9D0012;stroke-width:1.0;"/><line style="stroke:#9D0012;stroke-width:1.0;stroke-dasharray:2.0,2.0;" x1="250.9517" x2="361.4497" y1="188.1533" y2="188.1533"/><polygon fill="#3333C4" points="442.2705,214.5049,452.2705,218.5049,442.2705,222.5049,446.2705,218.5049" style="stroke:#3333C4;stroke-width:1.0;"/><line style="stroke:#3333C4;stroke-width:1.0;" x1="245.9517" x2="448.2705" y1="218.5049" y2="218.5049"/><text fill="#000000" font-family="sans-serif" font-size="13" lengthAdjust="spacing" textLength="189.3188" x="255.4517" y="213.6484">saveAddressBook(addressBook)</text><line style="stroke:#A38300;stroke-width:1.0;" x1="464.2705" x2="511.2705" y1="243.8564" y2="243.8564"/><line style="stroke:#A38300;stroke-width:1.0;" x1="511.2705" x2="511.2705" y1="243.8564" y2="256.8564"/><line style="stroke:#A38300;stroke-width:1.0;" x1="470.2705" x2="511.2705" y1="256.8564" y2="256.8564"/><polygon fill="#A38300" points="480.2705,252.8564,470.2705,256.8564,480.2705,260.8564,476.2705,256.8564" style="stroke:#A38300;stroke-width:1.0;"/><text fill="#000000" font-family="sans-serif" font-size="13" lengthAdjust="spacing" textLength="64.3145" x="476.2705" y="239">Save to file</text><line style="stroke:#A38300;stroke-width:1.0;stroke-dasharray:2.0,2.0;" x1="469.2705" x2="511.2705" y1="280.8564" y2="280.8564"/><line style="stroke:#A38300;stroke-width:1.0;stroke-dasharray:2.0,2.0;" x1="511.2705" x2="511.2705" y1="280.8564" y2="293.8564"/><line style="stroke:#A38300;stroke-width:1.0;stroke-dasharray:2.0,2.0;" x1="464.2705" x2="511.2705" y1="293.8564" y2="293.8564"/><polygon fill="#A38300" points="474.2705,289.8564,464.2705,293.8564,474.2705,297.8564,470.2705,293.8564" style="stroke:#A38300;stroke-width:1.0;"/><polygon fill="#A38300" points="256.9517,298.8564,246.9517,302.8564,256.9517,306.8564,252.9517,302.8564" style="stroke:#A38300;stroke-width:1.0;"/><line style="stroke:#A38300;stroke-width:1.0;stroke-dasharray:2.0,2.0;" x1="250.9517" x2="458.2705" y1="302.8564" y2="302.8564"/><polygon fill="#3333C4" points="118.2705,312.8564,108.2705,316.8564,118.2705,320.8564,114.2705,316.8564" style="stroke:#3333C4;stroke-width:1.0;"/><line style="stroke:#3333C4;stroke-width:1.0;stroke-dasharray:2.0,2.0;" x1="112.2705" x2="239.9517" y1="316.8564" y2="316.8564"/><polygon fill="#1D8900" points="33.7793,326.8564,23.7793,330.8564,33.7793,334.8564,29.7793,330.8564" style="stroke:#1D8900;stroke-width:1.0;"/><line style="stroke:#1D8900;stroke-width:1.0;stroke-dasharray:2.0,2.0;" x1="27.7793" x2="101.2705" y1="330.8564" y2="330.8564"/><!--SRC=[XLB1Re904BtlLqmvsGDDl79eGgqr91YCo8aOiu6fsRYoP7UnxTztOLMMYlR4yFQzDsycyyIgWZSbWj8_75_gviY9Eh2gff8U8PHIV7s8IgVjAzISiegGiD12GgPG0bNGjDyidQztioHErcH5fMO5gscbmGkooEj83B9eb12BFIiw3cyhY9D5D1jbBaM9l6CUsmgMoViy7cMc9X_TOyTLjePqawp3nVpC9rrgF-zpRr_Ra05unXermjGZjD3iH4tjfYVcn-YYgyh63W2_iMWqJdg3vzxXTZPY8JztGEDcHml0cgnGAb5DQiVfTdPY8JztmAr_3aPA74hlDRxiAG15JnYMfKIbteGuJ6XVEpdkxFK2-_dWOT0WDGr02_Xa7Fynt6sclULTJtV82_H8ThEPg-Yycx_BQPZBjd9p2FxW4DgJScaD-mK0]--></g></svg>
