<svg xmlns="http://www.w3.org/2000/svg" xmlns:xlink="http://www.w3.org/1999/xlink" contentStyleType="text/css" height="355px" preserveAspectRatio="none" style="width:549px;height:355px;background:#FFFFFF;" version="1.1" viewBox="0 0 549 355" width="549px" zoomAndPan="magnify"><defs/><g><rect fill="#1D8900" height="217.4063" style="stroke:#181818;stroke-width:1.0;" width="10" x="97.2705" y="113.4502"/><rect fill="#3333C4" height="173.0547" style="stroke:#181818;stroke-width:1.0;" width="10" x="235.9517" y="143.8018"/><rect fill="#9D0012" height="14" style="stroke:#181818;stroke-width:1.0;" width="10" x="360.3315" y="174.1533"/><rect fill="#A38300" height="84.3516" style="stroke:#181818;stroke-width:1.0;" width="10" x="455.7935" y="218.5049"/><rect fill="#FFE374" height="25" style="stroke:#181818;stroke-width:1.0;" width="10" x="460.7935" y="256.8564"/><line style="stroke:#181818;stroke-width:0.5;stroke-dasharray:5.0,5.0;" x1="22" x2="22" y1="81.0986" y2="348.8564"/><line style="stroke:#181818;stroke-width:0.5;stroke-dasharray:5.0,5.0;" x1="102.2705" x2="102.2705" y1="81.0986" y2="348.8564"/><line style="stroke:#181818;stroke-width:0.5;stroke-dasharray:5.0,5.0;" x1="240.9517" x2="240.9517" y1="81.0986" y2="348.8564"/><line style="stroke:#181818;stroke-width:0.5;stroke-dasharray:5.0,5.0;" x1="365.3315" x2="365.3315" y1="81.0986" y2="348.8564"/><line style="stroke:#181818;stroke-width:0.5;stroke-dasharray:5.0,5.0;" x1="460.3315" x2="460.3315" y1="81.0986" y2="348.8564"/><text fill="#000000" font-family="Arial" font-size="14" lengthAdjust="spacing" textLength="29.5586" x="5" y="78.1318">User</text><ellipse cx="22.7793" cy="13.5" fill="#000000" rx="8" ry="8" style="stroke:#000000;stroke-width:0.5;"/><path d="M22.7793,21.5 L22.7793,48.5 M9.7793,29.5 L35.7793,29.5 M22.7793,48.5 L9.7793,63.5 M22.7793,48.5 L35.7793,63.5 " fill="none" style="stroke:#000000;stroke-width:0.5;"/><rect fill="#1D8900" height="31.6094" rx="2.5" ry="2.5" style="stroke:#181818;stroke-width:0.5;" width="64" x="70.2705" y="48.4893"/><text fill="#FFFFFF" font-family="sans-serif" font-size="14" lengthAdjust="spacing" textLength="17.8896" x="93.3257" y="70.0225">:UI</text><rect fill="#3333C4" height="31.6094" rx="2.5" ry="2.5" style="stroke:#181818;stroke-width:0.5;" width="64" x="208.9517" y="48.4893"/><text fill="#FFFFFF" font-family="sans-serif" font-size="14" lengthAdjust="spacing" textLength="37.3584" x="222.2725" y="70.0225">:Logic</text><rect fill="#9D0012" height="31.6094" rx="2.5" ry="2.5" style="stroke:#181818;stroke-width:0.5;" width="64" x="333.3315" y="48.4893"/><text fill="#FFFFFF" font-family="sans-serif" font-size="14" lengthAdjust="spacing" textLength="42.0205" x="344.3213" y="70.0225">:Model</text><rect fill="#A38300" height="31.6094" rx="2.5" ry="2.5" style="stroke:#181818;stroke-width:0.5;" width="66.9238" x="427.3315" y="48.4893"/><text fill="#FFFFFF" font-family="sans-serif" font-size="14" lengthAdjust="spacing" textLength="52.9238" x="434.3315" y="70.0225">:Storage</text><rect fill="#1D8900" height="217.4063" style="stroke:#181818;stroke-width:1.0;" width="10" x="97.2705" y="113.4502"/><rect fill="#3333C4" height="173.0547" style="stroke:#181818;stroke-width:1.0;" width="10" x="235.9517" y="143.8018"/><rect fill="#9D0012" height="14" style="stroke:#181818;stroke-width:1.0;" width="10" x="360.3315" y="174.1533"/><rect fill="#A38300" height="84.3516" style="stroke:#181818;stroke-width:1.0;" width="10" x="455.7935" y="218.5049"/><rect fill="#FFE374" height="25" style="stroke:#181818;stroke-width:1.0;" width="10" x="460.7935" y="256.8564"/><polygon fill="#000000" points="85.2705,109.4502,95.2705,113.4502,85.2705,117.4502,89.2705,113.4502" style="stroke:#000000;stroke-width:1.0;"/><line style="stroke:#000000;stroke-width:1.0;" x1="22.7793" x2="91.2705" y1="113.4502" y2="113.4502"/><text fill="#000000" font-family="sans-serif" font-size="13" lengthAdjust="spacing" textLength="55.4912" x="32.2793" y="108.5938">"delete 1"</text><polygon fill="#1D8900" points="223.9517,139.8018,233.9517,143.8018,223.9517,147.8018,227.9517,143.8018" style="stroke:#1D8900;stroke-width:1.0;"/><line style="stroke:#1D8900;stroke-width:1.0;" x1="107.2705" x2="229.9517" y1="143.8018" y2="143.8018"/><text fill="#000000" font-family="sans-serif" font-size="13" lengthAdjust="spacing" textLength="109.6812" x="116.7705" y="138.9453">execute("delete 1")</text><polygon fill="#3333C4" points="348.3315,170.1533,358.3315,174.1533,348.3315,178.1533,352.3315,174.1533" style="stroke:#3333C4;stroke-width:1.0;"/><line style="stroke:#3333C4;stroke-width:1.0;" x1="245.9517" x2="354.3315" y1="174.1533" y2="174.1533"/><text fill="#000000" font-family="sans-serif" font-size="13" lengthAdjust="spacing" textLength="95.3799" x="255.4517" y="169.2969">deleteContact(c)</text><polygon fill="#9D0012" points="256.9517,184.1533,246.9517,188.1533,256.9517,192.1533,252.9517,188.1533" style="stroke:#9D0012;stroke-width:1.0;"/><line style="stroke:#9D0012;stroke-width:1.0;stroke-dasharray:2.0,2.0;" x1="250.9517" x2="364.3315" y1="188.1533" y2="188.1533"/><polygon fill="#3333C4" points="443.7935,214.5049,453.7935,218.5049,443.7935,222.5049,447.7935,218.5049" style="stroke:#3333C4;stroke-width:1.0;"/><line style="stroke:#3333C4;stroke-width:1.0;" x1="245.9517" x2="449.7935" y1="218.5049" y2="218.5049"/><text fill="#000000" font-family="sans-serif" font-size="13" lengthAdjust="spacing" textLength="189.3188" x="256.2131" y="213.6484">saveAddressBook(addressBook)</text><line style="stroke:#A38300;stroke-width:1.0;" x1="465.7935" x2="512.7935" y1="243.8564" y2="243.8564"/><line style="stroke:#A38300;stroke-width:1.0;" x1="512.7935" x2="512.7935" y1="243.8564" y2="256.8564"/><line style="stroke:#A38300;stroke-width:1.0;" x1="471.7935" x2="512.7935" y1="256.8564" y2="256.8564"/><polygon fill="#A38300" points="481.7935,252.8564,471.7935,256.8564,481.7935,260.8564,477.7935,256.8564" style="stroke:#A38300;stroke-width:1.0;"/><text fill="#000000" font-family="sans-serif" font-size="13" lengthAdjust="spacing" textLength="64.3145" x="477.7935" y="239">Save to file</text><line style="stroke:#A38300;stroke-width:1.0;stroke-dasharray:2.0,2.0;" x1="470.7935" x2="512.7935" y1="280.8564" y2="280.8564"/><line style="stroke:#A38300;stroke-width:1.0;stroke-dasharray:2.0,2.0;" x1="512.7935" x2="512.7935" y1="280.8564" y2="293.8564"/><line style="stroke:#A38300;stroke-width:1.0;stroke-dasharray:2.0,2.0;" x1="465.7935" x2="512.7935" y1="293.8564" y2="293.8564"/><polygon fill="#A38300" points="475.7935,289.8564,465.7935,293.8564,475.7935,297.8564,471.7935,293.8564" style="stroke:#A38300;stroke-width:1.0;"/><polygon fill="#A38300" points="256.9517,298.8564,246.9517,302.8564,256.9517,306.8564,252.9517,302.8564" style="stroke:#A38300;stroke-width:1.0;"/><line style="stroke:#A38300;stroke-width:1.0;stroke-dasharray:2.0,2.0;" x1="250.9517" x2="459.7935" y1="302.8564" y2="302.8564"/><polygon fill="#3333C4" points="118.2705,312.8564,108.2705,316.8564,118.2705,320.8564,114.2705,316.8564" style="stroke:#3333C4;stroke-width:1.0;"/><line style="stroke:#3333C4;stroke-width:1.0;stroke-dasharray:2.0,2.0;" x1="112.2705" x2="239.9517" y1="316.8564" y2="316.8564"/><polygon fill="#1D8900" points="33.7793,326.8564,23.7793,330.8564,33.7793,334.8564,29.7793,330.8564" style="stroke:#1D8900;stroke-width:1.0;"/><line style="stroke:#1D8900;stroke-width:1.0;stroke-dasharray:2.0,2.0;" x1="27.7793" x2="101.2705" y1="330.8564" y2="330.8564"/><!--SRC=[XL91ReCm4Bpx5LjEwO5AkNAeHDCqGYAY2k64eiWosyYAWv5jqlRtDJW9fadQ4yjuTdPsj0-yPgAj4BJv5lZKj0T1z9xN3LNq0B5IylDDrYRlNg4HbDU4nCn81OL61LH3stsBVBxQph8qMv5tgWndlA6rWI0gag0dSIYIcuHKxZZhEQAh8CqMoUmcSoah53tpq5Mmp5xdwKrcRltH7VPSxMh8rzagNinFVDAx3il1z-QvCnb1OANH84m3GfdXHsfhtpsnFxOlkNGvsn7W5xBMu6GGU1mKhdSZ3WfB3xHgRhK8dCZCHcyr9ioJkbwUE2WiFN0JdfoH2iUjzoQVWuf0qoF6LQLGwnSfznCwr9wFEy6UuR0SFOm6v7O060aVNE0_WjlrT92yg-alUOR-QhjAvj9qokPtE2ttsQxTNa8ukeJkfdnQoty0]--></g></svg>
