<svg xmlns="http://www.w3.org/2000/svg" xmlns:xlink="http://www.w3.org/1999/xlink" contentStyleType="text/css" height="219px" preserveAspectRatio="none" style="width:630px;height:219px;background:#FFFFFF;" version="1.1" viewBox="0 0 630 219" width="630px" zoomAndPan="magnify"><defs/><g><!--class AddressBook--><g id="elem_AddressBook"><rect fill="#9D0012" height="27.2485" id="AddressBook" rx="2.5" ry="2.5" style="stroke:#FFFFFF;stroke-width:1.0;" width="95.2163" x="19.5" y="12.092"/><text fill="#FFFFFF" font-family="Arial" font-size="15" lengthAdjust="spacing" textLength="89.2163" x="22.5" y="31.1618">AddressBook</text></g><!--class UniqueContactList--><g id="elem_UniqueContactList"><rect fill="#9D0012" height="27.2485" id="UniqueContactList" rx="2.5" ry="2.5" style="stroke:#FFFFFF;stroke-width:1.0;" width="128.5708" x="131.5" y="99.092"/><text fill="#FFFFFF" font-family="Arial" font-size="15" lengthAdjust="spacing" textLength="122.5708" x="134.5" y="118.1618">UniqueContactList</text></g><!--class UniqueTagList--><g id="elem_UniqueTagList"><rect fill="#9D0012" height="27.2485" id="UniqueTagList" rx="2.5" ry="2.5" style="stroke:#FFFFFF;stroke-width:1.0;" width="102.7236" x="149.5" y="12.092"/><text fill="#FFFFFF" font-family="Arial" font-size="15" lengthAdjust="spacing" textLength="96.7236" x="152.5" y="31.1618">UniqueTagList</text></g><!--class Tag--><g id="elem_Tag"><rect fill="#9D0012" height="27.2485" id="Tag" rx="2.5" ry="2.5" style="stroke:#FFFFFF;stroke-width:1.0;" width="50" x="296" y="12.092"/><text fill="#FFFFFF" font-family="Arial" font-size="15" lengthAdjust="spacing" textLength="25.8472" x="308.0764" y="31.1618">Tag</text></g><!--class Contact--><g id="elem_Contact"><rect fill="#9D0012" height="27.2485" id="Contact" rx="2.5" ry="2.5" style="stroke:#FFFFFF;stroke-width:1.0;" width="57.6943" x="296" y="99.092"/><text fill="#FFFFFF" font-family="Arial" font-size="15" lengthAdjust="spacing" textLength="51.6943" x="299" y="118.1618">Contact</text></g><!--class Name--><g id="elem_Name"><rect fill="#9D0012" height="27.2485" id="Name" rx="2.5" ry="2.5" style="stroke:#FFFFFF;stroke-width:1.0;" width="50" x="7" y="186.092"/><text fill="#FFFFFF" font-family="Arial" font-size="15" lengthAdjust="spacing" textLength="40.0122" x="11.9939" y="205.1618">Name</text></g><!--class TelegramHandle--><g id="elem_TelegramHandle"><rect fill="#9D0012" height="27.2485" id="TelegramHandle" rx="2.5" ry="2.5" style="stroke:#FFFFFF;stroke-width:1.0;" width="116.8887" x="92.5" y="186.092"/><text fill="#FFFFFF" font-family="Arial" font-size="15" lengthAdjust="spacing" textLength="110.8887" x="95.5" y="205.1618">TelegramHandle</text></g><!--class Email--><g id="elem_Email"><rect fill="#9D0012" height="27.2485" id="Email" rx="2.5" ry="2.5" style="stroke:#FFFFFF;stroke-width:1.0;" width="50" x="245" y="186.092"/><text fill="#FFFFFF" font-family="Arial" font-size="15" lengthAdjust="spacing" textLength="37.5073" x="251.2463" y="205.1618">Email</text></g><!--class StudentStatus--><g id="elem_StudentStatus"><rect fill="#9D0012" height="27.2485" id="StudentStatus" rx="2.5" ry="2.5" style="stroke:#FFFFFF;stroke-width:1.0;" width="100.2334" x="330" y="186.092"/><text fill="#FFFFFF" font-family="Arial" font-size="15" lengthAdjust="spacing" textLength="94.2334" x="333" y="205.1618">StudentStatus</text></g><!--class Roles--><g id="elem_Roles"><rect fill="#9D0012" height="27.2485" id="Roles" rx="2.5" ry="2.5" style="stroke:#FFFFFF;stroke-width:1.0;" width="50" x="465" y="186.092"/><text fill="#FFFFFF" font-family="Arial" font-size="15" lengthAdjust="spacing" textLength="38.3496" x="470.8252" y="205.1618">Roles</text></g><!--class Nickname--><g id="elem_Nickname"><rect fill="#9D0012" height="27.2485" id="Nickname" rx="2.5" ry="2.5" style="stroke:#FFFFFF;stroke-width:1.0;" width="72.687" x="550.5" y="186.092"/><text fill="#FFFFFF" font-family="Arial" font-size="15" lengthAdjust="spacing" textLength="66.687" x="553.5" y="205.1618">Nickname</text></g><!--link AddressBook to UniqueContactList--><g id="link_AddressBook_UniqueContactList"><path codeLine="6" d="M96.0505,45.7342 C120.4405,61.8042 147.4501,79.6003 171.8801,95.7003 " fill="none" id="AddressBook-UniqueContactList" style="stroke:#9D0012;stroke-width:1.1;"/><polygon fill="#9D0012" points="86.03,39.132,88.8395,45.7733,96.0505,45.7342,93.241,39.0929,86.03,39.132" style="stroke:#9D0012;stroke-width:1.1;"/><polygon fill="#9D0012" points="176.89,99.002,171.5763,90.7095,172.7151,96.2506,167.174,97.3894,176.89,99.002" style="stroke:#9D0012;stroke-width:1.1;"/><text fill="#000000" font-family="sans-serif" font-size="13" font-weight="bold" lengthAdjust="spacing" textLength="7.23" x="161.3956" y="88.2855">1</text></g><!--link AddressBook to UniqueTagList--><g id="link_AddressBook_UniqueTagList"><path codeLine="7" d="M126.63,25.592 C138.22,25.592 131.8,25.592 143.38,25.592 " fill="none" id="AddressBook-UniqueTagList" style="stroke:#9D0012;stroke-width:1.1;"/><polygon fill="#9D0012" points="114.63,25.592,120.63,29.592,126.63,25.592,120.63,21.592,114.63,25.592" style="stroke:#9D0012;stroke-width:1.1;"/><polygon fill="#9D0012" points="149.38,25.592,140.38,21.592,144.38,25.592,140.38,29.592,149.38,25.592" style="stroke:#9D0012;stroke-width:1.1;"/><text fill="#000000" font-family="sans-serif" font-size="13" font-weight="bold" lengthAdjust="spacing" textLength="7.23" x="134.3214" y="21.9196">1</text></g><!--link UniqueTagList to UniqueContactList--><!--link UniqueTagList to UniqueContactList--><!--link UniqueTagList to Tag--><g id="link_UniqueTagList_Tag"><path codeLine="11" d="M252.56,25.592 C267,25.592 275.43,25.592 289.87,25.592 " fill="none" id="UniqueTagList-to-Tag" style="stroke:#9D0012;stroke-width:1.1;"/><polygon fill="#9D0012" points="295.87,25.592,286.87,21.592,290.87,25.592,286.87,29.592,295.87,25.592" style="stroke:#9D0012;stroke-width:1.1;"/><text fill="#000000" font-family="sans-serif" font-size="13" font-weight="bold" lengthAdjust="spacing" textLength="5.0591" x="283.1074" y="20.8516">*</text></g><!--link UniqueContactList to Contact--><g id="link_UniqueContactList_Contact"><path codeLine="12" d="M260.75,112.592 C272.46,112.592 278.18,112.592 289.89,112.592 " fill="none" id="UniqueContactList-to-Contact" style="stroke:#9D0012;stroke-width:1.1;"/><polygon fill="#9D0012" points="295.89,112.592,286.89,108.592,290.89,112.592,286.89,116.592,295.89,112.592" style="stroke:#9D0012;stroke-width:1.1;"/></g><!--reverse link Tag to Contact--><g id="link_Tag_Contact"><path codeLine="14" d="M321.8734,45.1253 C322.6334,61.1953 323.65,82.902 324.41,99.002 " fill="none" id="Tag-backto-Contact" style="stroke:#9D0012;stroke-width:1.1;"/><polygon fill="#9D0012" points="321.59,39.132,318.0196,48.3109,321.8262,44.1264,326.0107,47.9329,321.59,39.132" style="stroke:#9D0012;stroke-width:1.1;"/><text fill="#000000" font-family="sans-serif" font-size="13" font-weight="bold" lengthAdjust="spacing" textLength="5.0591" x="315.8731" y="60.8588">*</text></g><!--link Contact to Name--><g id="link_Contact_Name"><path codeLine="16" d="M284.2237,125.4103 C237.5437,138.9303 154.85,162.902 75,186.092 C69.18,187.782 68.6702,187.9227 62.7702,189.6427 " fill="none" id="Contact-Name" style="stroke:#9D0012;stroke-width:1.1;"/><polygon fill="#9D0012" points="295.75,122.072,288.8741,119.899,284.2237,125.4103,291.0996,127.5832,295.75,122.072" style="stroke:#9D0012;stroke-width:1.1;"/><polygon fill="#9D0012" points="57.01,191.322,66.7698,192.6432,61.8102,189.9226,64.5308,184.9629,57.01,191.322" style="stroke:#9D0012;stroke-width:1.1;"/></g><!--link Contact to TelegramHandle--><g id="link_Contact_TelegramHandle"><path codeLine="17" d="M288.5475,131.3987 C255.6475,147.4687 215.1209,167.2679 182.1709,183.3679 " fill="none" id="Contact-TelegramHandle" style="stroke:#9D0012;stroke-width:1.1;"/><polygon fill="#9D0012" points="299.33,126.132,292.1832,125.1711,288.5475,131.3987,295.6943,132.3595,299.33,126.132" style="stroke:#9D0012;stroke-width:1.1;"/><polygon fill="#9D0012" points="176.78,186.002,186.6224,185.6447,181.2724,183.8069,183.1103,178.4569,176.78,186.002" style="stroke:#9D0012;stroke-width:1.1;"/></g><!--link Contact to Email--><g id="link_Contact_Email"><path codeLine="18" d="M310.3646,136.2092 C299.9746,152.2792 291.8178,164.8634 281.4078,180.9634 " fill="none" id="Contact-Email" style="stroke:#9D0012;stroke-width:1.1;"/><polygon fill="#9D0012" points="316.88,126.132,310.2632,128.9988,310.3646,136.2092,316.9814,133.3423,316.88,126.132" style="stroke:#9D0012;stroke-width:1.1;"/><polygon fill="#9D0012" points="278.15,186.002,286.3957,180.6161,280.8649,181.8032,279.6777,176.2723,278.15,186.002" style="stroke:#9D0012;stroke-width:1.1;"/></g><!--link Contact to StudentStatus--><g id="link_Contact_StudentStatus"><path codeLine="19" d="M339.6354,136.2092 C350.0254,152.2792 358.1822,164.8634 368.5922,180.9634 " fill="none" id="Contact-StudentStatus" style="stroke:#9D0012;stroke-width:1.1;"/><polygon fill="#9D0012" points="333.12,126.132,333.0186,133.3423,339.6354,136.2092,339.7368,128.9988,333.12,126.132" style="stroke:#9D0012;stroke-width:1.1;"/><polygon fill="#9D0012" points="371.85,186.002,370.3223,176.2723,369.1351,181.8032,363.6043,180.6161,371.85,186.002" style="stroke:#9D0012;stroke-width:1.1;"/></g><!--link Contact to Roles--><g id="link_Contact_Roles"><path codeLine="20" d="M360.0174,131.6281 C391.2074,147.6981 428.9766,167.1533 460.2166,183.2533 " fill="none" id="Contact-Roles" style="stroke:#9D0012;stroke-width:1.1;"/><polygon fill="#9D0012" points="349.35,126.132,352.8516,132.4358,360.0174,131.6281,356.5157,125.3242,349.35,126.132" style="stroke:#9D0012;stroke-width:1.1;"/><polygon fill="#9D0012" points="465.55,186.002,459.3824,178.3234,461.1055,183.7114,455.7175,185.4346,465.55,186.002" style="stroke:#9D0012;stroke-width:1.1;"/></g><!--link Contact to Nickname--><g id="link_Contact_Nickname"><path codeLine="21" d="M365.4543,126.7152 C413.4143,142.2752 491.9828,167.7706 544.5728,184.8306 " fill="none" id="Contact-Nickname" style="stroke:#9D0012;stroke-width:1.1;"/><polygon fill="#9D0012" points="354.04,123.012,358.5127,128.6683,365.4543,126.7152,360.9816,121.0588,354.04,123.012" style="stroke:#9D0012;stroke-width:1.1;"/><polygon fill="#9D0012" points="550.28,186.682,542.9534,180.1,545.524,185.1391,540.4849,187.7097,550.28,186.682" style="stroke:#9D0012;stroke-width:1.1;"/></g><!--SRC=[bP5DQiCm44RtEiNKIuC2la0XSGDTk34axggKC4Z25fP7Zdu8lNsL4fBOAOJifFUzcH6Q5qt2HAd0Xn-Z5cCS3FEzfX4T3e3EsMFJQT6JyXwAHJ4FIskiWu_wRLtjoxggjpU2CEZz2aNVEXj9tgjiAQLBZLVMzf1pfziky5V8YWm-IH-YAYq55A7IFZnq6sp_lCaD-5UdfLJqBUsH-3zjdzJd_kKTUGO9ihkAgtA6Z9qFmEDuKtd1EKzqWuEQaaOPrQPlVKUIPfQj1zHcYdOXRPN2Bc28VXfjhL4pj3cj-3Jo5m00]--></g></svg>
