<svg xmlns="http://www.w3.org/2000/svg" xmlns:xlink="http://www.w3.org/1999/xlink" contentStyleType="text/css" height="219px" preserveAspectRatio="none" style="width:630px;height:219px;background:#FFFFFF;" version="1.1" viewBox="0 0 630 219" width="630px" zoomAndPan="magnify"><defs/><g><!--class AddressBook--><g id="elem_AddressBook"><rect fill="#9D0012" height="27.2485" id="AddressBook" rx="2.5" ry="2.5" style="stroke:#FFFFFF;stroke-width:1.0;" width="95.2163" x="22.5" y="12.092"/><text fill="#FFFFFF" font-family="Arial" font-size="15" lengthAdjust="spacing" textLength="89.2163" x="25.5" y="31.1618">AddressBook</text></g><!--class UniquePersonList--><g id="elem_UniquePersonList"><rect fill="#9D0012" height="27.2485" id="UniquePersonList" rx="2.5" ry="2.5" style="stroke:#FFFFFF;stroke-width:1.0;" width="124.4033" x="139" y="99.092"/><text fill="#FFFFFF" font-family="Arial" font-size="15" lengthAdjust="spacing" textLength="118.4033" x="142" y="118.1618">UniquePersonList</text></g><!--class UniqueTagList--><g id="elem_UniqueTagList"><rect fill="#9D0012" height="27.2485" id="UniqueTagList" rx="2.5" ry="2.5" style="stroke:#FFFFFF;stroke-width:1.0;" width="102.7236" x="152.5" y="12.092"/><text fill="#FFFFFF" font-family="Arial" font-size="15" lengthAdjust="spacing" textLength="96.7236" x="155.5" y="31.1618">UniqueTagList</text></g><!--class Tag--><g id="elem_Tag"><rect fill="#9D0012" height="27.2485" id="Tag" rx="2.5" ry="2.5" style="stroke:#FFFFFF;stroke-width:1.0;" width="50" x="297" y="12.092"/><text fill="#FFFFFF" font-family="Arial" font-size="15" lengthAdjust="spacing" textLength="25.8472" x="309.0764" y="31.1618">Tag</text></g><!--class Person--><g id="elem_Person"><rect fill="#9D0012" height="27.2485" id="Person" rx="2.5" ry="2.5" style="stroke:#FFFFFF;stroke-width:1.0;" width="53.5269" x="298" y="99.092"/><text fill="#FFFFFF" font-family="Arial" font-size="15" lengthAdjust="spacing" textLength="47.5269" x="301" y="118.1618">Person</text></g><!--class Name--><g id="elem_Name"><rect fill="#9D0012" height="27.2485" id="Name" rx="2.5" ry="2.5" style="stroke:#FFFFFF;stroke-width:1.0;" width="50" x="7" y="186.092"/><text fill="#FFFFFF" font-family="Arial" font-size="15" lengthAdjust="spacing" textLength="40.0122" x="11.9939" y="205.1618">Name</text></g><!--class TelegramHandle--><g id="elem_TelegramHandle"><rect fill="#9D0012" height="27.2485" id="TelegramHandle" rx="2.5" ry="2.5" style="stroke:#FFFFFF;stroke-width:1.0;" width="116.8887" x="92.5" y="186.092"/><text fill="#FFFFFF" font-family="Arial" font-size="15" lengthAdjust="spacing" textLength="110.8887" x="95.5" y="205.1618">TelegramHandle</text></g><!--class Email--><g id="elem_Email"><rect fill="#9D0012" height="27.2485" id="Email" rx="2.5" ry="2.5" style="stroke:#FFFFFF;stroke-width:1.0;" width="50" x="245" y="186.092"/><text fill="#FFFFFF" font-family="Arial" font-size="15" lengthAdjust="spacing" textLength="37.5073" x="251.2463" y="205.1618">Email</text></g><!--class StudentStatus--><g id="elem_StudentStatus"><rect fill="#9D0012" height="27.2485" id="StudentStatus" rx="2.5" ry="2.5" style="stroke:#FFFFFF;stroke-width:1.0;" width="100.2334" x="330" y="186.092"/><text fill="#FFFFFF" font-family="Arial" font-size="15" lengthAdjust="spacing" textLength="94.2334" x="333" y="205.1618">StudentStatus</text></g><!--class Roles--><g id="elem_Roles"><rect fill="#9D0012" height="27.2485" id="Roles" rx="2.5" ry="2.5" style="stroke:#FFFFFF;stroke-width:1.0;" width="50" x="465" y="186.092"/><text fill="#FFFFFF" font-family="Arial" font-size="15" lengthAdjust="spacing" textLength="38.3496" x="470.8252" y="205.1618">Roles</text></g><!--class Nickname--><g id="elem_Nickname"><rect fill="#9D0012" height="27.2485" id="Nickname" rx="2.5" ry="2.5" style="stroke:#FFFFFF;stroke-width:1.0;" width="72.687" x="550.5" y="186.092"/><text fill="#FFFFFF" font-family="Arial" font-size="15" lengthAdjust="spacing" textLength="66.687" x="553.5" y="205.1618">Nickname</text></g><!--link AddressBook to UniquePersonList--><g id="link_AddressBook_UniquePersonList"><path codeLine="6" d="M99.397,45.6631 C124.167,61.7331 151.7575,79.6349 176.5575,95.7349 " fill="none" id="AddressBook-UniquePersonList" style="stroke:#9D0012;stroke-width:1.1;"/><polygon fill="#9D0012" points="89.33,39.132,92.1864,45.7532,99.397,45.6631,96.5405,39.0419,89.33,39.132" style="stroke:#9D0012;stroke-width:1.1;"/><polygon fill="#9D0012" points="181.59,99.002,176.2193,90.7463,177.3962,96.2794,171.8632,97.4564,181.59,99.002" style="stroke:#9D0012;stroke-width:1.1;"/><text fill="#000000" font-family="sans-serif" font-size="13" font-weight="bold" lengthAdjust="spacing" textLength="7.23" x="165.8225" y="88.2855">1</text></g><!--link AddressBook to UniqueTagList--><g id="link_AddressBook_UniqueTagList"><path codeLine="7" d="M129.63,25.592 C141.22,25.592 134.8,25.592 146.38,25.592 " fill="none" id="AddressBook-UniqueTagList" style="stroke:#9D0012;stroke-width:1.1;"/><polygon fill="#9D0012" points="117.63,25.592,123.63,29.592,129.63,25.592,123.63,21.592,117.63,25.592" style="stroke:#9D0012;stroke-width:1.1;"/><polygon fill="#9D0012" points="152.38,25.592,143.38,21.592,147.38,25.592,143.38,29.592,152.38,25.592" style="stroke:#9D0012;stroke-width:1.1;"/><text fill="#000000" font-family="sans-serif" font-size="13" font-weight="bold" lengthAdjust="spacing" textLength="7.23" x="137.3214" y="21.9196">1</text></g><!--link UniqueTagList to UniquePersonList--><!--link UniqueTagList to UniquePersonList--><!--link UniqueTagList to Tag--><g id="link_UniqueTagList_Tag"><path codeLine="11" d="M255.62,25.592 C269.37,25.592 277.11,25.592 290.85,25.592 " fill="none" id="UniqueTagList-to-Tag" style="stroke:#9D0012;stroke-width:1.1;"/><polygon fill="#9D0012" points="296.85,25.592,287.85,21.592,291.85,25.592,287.85,29.592,296.85,25.592" style="stroke:#9D0012;stroke-width:1.1;"/><text fill="#000000" font-family="sans-serif" font-size="13" font-weight="bold" lengthAdjust="spacing" textLength="5.0591" x="284.0817" y="20.8516">*</text></g><!--link UniquePersonList to Person--><g id="link_UniquePersonList_Person"><path codeLine="12" d="M263.48,112.592 C274.86,112.592 280.23,112.592 291.61,112.592 " fill="none" id="UniquePersonList-to-Person" style="stroke:#9D0012;stroke-width:1.1;"/><polygon fill="#9D0012" points="297.61,112.592,288.61,108.592,292.61,112.592,288.61,116.592,297.61,112.592" style="stroke:#9D0012;stroke-width:1.1;"/></g><!--reverse link Tag to Person--><g id="link_Tag_Person"><path codeLine="14" d="M322.6527,45.1282 C323.2227,61.1982 323.99,82.902 324.56,99.002 " fill="none" id="Tag-backto-Person" style="stroke:#9D0012;stroke-width:1.1;"/><polygon fill="#9D0012" points="322.44,39.132,318.7615,48.2681,322.6172,44.1288,326.7565,47.9845,322.44,39.132" style="stroke:#9D0012;stroke-width:1.1;"/><text fill="#000000" font-family="sans-serif" font-size="13" font-weight="bold" lengthAdjust="spacing" textLength="5.0591" x="316.6659" y="60.8588">*</text></g><!--link Person to Name--><g id="link_Person_Name"><path codeLine="16" d="M286.4637,124.7604 C240.6137,138.0404 156.16,162.532 75,186.092 C69.18,187.782 68.6702,187.9227 62.7702,189.6427 " fill="none" id="Person-Name" style="stroke:#9D0012;stroke-width:1.1;"/><polygon fill="#9D0012" points="297.99,121.422,291.114,119.2491,286.4637,124.7604,293.3397,126.9333,297.99,121.422" style="stroke:#9D0012;stroke-width:1.1;"/><polygon fill="#9D0012" points="57.01,191.322,66.7698,192.6432,61.8102,189.9226,64.5308,184.9629,57.01,191.322" style="stroke:#9D0012;stroke-width:1.1;"/></g><!--link Person to TelegramHandle--><g id="link_Person_TelegramHandle"><path codeLine="17" d="M288.5475,131.3987 C255.6475,147.4687 215.1209,167.2679 182.1709,183.3679 " fill="none" id="Person-TelegramHandle" style="stroke:#9D0012;stroke-width:1.1;"/><polygon fill="#9D0012" points="299.33,126.132,292.1832,125.1711,288.5475,131.3987,295.6943,132.3595,299.33,126.132" style="stroke:#9D0012;stroke-width:1.1;"/><polygon fill="#9D0012" points="176.78,186.002,186.6224,185.6447,181.2724,183.8069,183.1103,178.4569,176.78,186.002" style="stroke:#9D0012;stroke-width:1.1;"/></g><!--link Person to Email--><g id="link_Person_Email"><path codeLine="18" d="M310.3646,136.2092 C299.9746,152.2792 291.8178,164.8634 281.4078,180.9634 " fill="none" id="Person-Email" style="stroke:#9D0012;stroke-width:1.1;"/><polygon fill="#9D0012" points="316.88,126.132,310.2632,128.9988,310.3646,136.2092,316.9814,133.3423,316.88,126.132" style="stroke:#9D0012;stroke-width:1.1;"/><polygon fill="#9D0012" points="278.15,186.002,286.3957,180.6161,280.8649,181.8032,279.6777,176.2723,278.15,186.002" style="stroke:#9D0012;stroke-width:1.1;"/></g><!--link Person to StudentStatus--><g id="link_Person_StudentStatus"><path codeLine="19" d="M339.6354,136.2092 C350.0254,152.2792 358.1822,164.8634 368.5922,180.9634 " fill="none" id="Person-StudentStatus" style="stroke:#9D0012;stroke-width:1.1;"/><polygon fill="#9D0012" points="333.12,126.132,333.0186,133.3423,339.6354,136.2092,339.7368,128.9988,333.12,126.132" style="stroke:#9D0012;stroke-width:1.1;"/><polygon fill="#9D0012" points="371.85,186.002,370.3223,176.2723,369.1351,181.8032,363.6043,180.6161,371.85,186.002" style="stroke:#9D0012;stroke-width:1.1;"/></g><!--link Person to Roles--><g id="link_Person_Roles"><path codeLine="20" d="M360.0174,131.6281 C391.2074,147.6981 428.9766,167.1533 460.2166,183.2533 " fill="none" id="Person-Roles" style="stroke:#9D0012;stroke-width:1.1;"/><polygon fill="#9D0012" points="349.35,126.132,352.8516,132.4358,360.0174,131.6281,356.5157,125.3242,349.35,126.132" style="stroke:#9D0012;stroke-width:1.1;"/><polygon fill="#9D0012" points="465.55,186.002,459.3824,178.3234,461.1055,183.7114,455.7175,185.4346,465.55,186.002" style="stroke:#9D0012;stroke-width:1.1;"/></g><!--link Person to Nickname--><g id="link_Person_Nickname"><path codeLine="21" d="M363.4645,126.0744 C410.6645,141.3844 490.983,167.4399 544.353,184.7599 " fill="none" id="Person-Nickname" style="stroke:#9D0012;stroke-width:1.1;"/><polygon fill="#9D0012" points="352.05,122.372,356.5231,128.028,363.4645,126.0744,358.9914,120.4183,352.05,122.372" style="stroke:#9D0012;stroke-width:1.1;"/><polygon fill="#9D0012" points="550.06,186.612,542.7342,180.0292,545.3042,185.0686,540.2648,187.6385,550.06,186.612" style="stroke:#9D0012;stroke-width:1.1;"/></g><!--SRC=[bP7FQiCm38VlVWejnu0BUO71sXLso9hHPgSnXeX5OkB8cVzGzlPpLxRLwM7iPFpzFad6kj7ScQW8VFWmj9hZP8GVDS_eS09qpXxRGNSZa_TGhQfbkB76EdXixhVrswQfc_s5q1dqVetTs3iRMLshuaufbnglhHsXb4xtGv2tK5G5FBD-Z_H4pbkkjGz_gYtsNrvs0_aoQAM8NvKzihpk-ZzxgV-yeYmWGR4i-3NEJ8Zp2JBE5sNVj9G9xd2Y3BHag4_V-O2iJ1vj9zGc8uUGTidX4314doLxQoWdkzDQJzC-0G00]--></g></svg>
