<svg xmlns="http://www.w3.org/2000/svg" contentStyleType="text/css" height="454px" preserveAspectRatio="none"
     style="width:978px;height:454px;background:#FFFFFF;" version="1.1" viewBox="0 0 978 454" width="978px"
     zoomAndPan="magnify"><defs/><g><rect fill="#C8C8FA" height="435.127" style="stroke:#181818;stroke-width:0.5;" width="668.418" x="51.1597" y="6"/><text fill="#FFFFFF" font-family="sans-serif" font-size="13" font-weight="bold" lengthAdjust="spacing" textLength="35.585" x="365.4338" y="18.5684">Logic</text><rect fill="#F97181" height="435.127" style="stroke:#181818;stroke-width:0.5;" width="250.835" x="721.5776" y="6"/><text fill="#FFFFFF" font-family="sans-serif" font-size="13" font-weight="bold" lengthAdjust="spacing" textLength="40.5615" x="824.572" y="18.5684">Model</text><rect fill="#FFFFFF" height="341.0176" style="stroke:#181818;stroke-width:1.0;" width="10" x="116.6143" y="88.1094"/><rect fill="#FFFFFF" height="84.7988" style="stroke:#181818;stroke-width:1.0;" width="10" x="293.1719" y="117.4199"/><rect fill="#FFFFFF" height="31.4883" style="stroke:#181818;stroke-width:1.0;" width="10" x="466.2891" y="141.4199"/><rect fill="#FFFFFF" height="183.5977" style="stroke:#181818;stroke-width:1.0;" width="10" x="466.2891" y="231.5293"/><rect fill="#FFFFFF" height="31.4883" style="stroke:#181818;stroke-width:1.0;" width="10" x="632.7891" y="354.3281"/><rect fill="#FFFFFF" height="31.4883" style="stroke:#181818;stroke-width:1.0;" width="10" x="790.5869" y="255.5293"/><rect fill="#FFFFFF" height="14" style="stroke:#181818;stroke-width:1.0;" width="10" x="917.0044" y="316.3281"/><line style="stroke:#181818;stroke-width:0.5;stroke-dasharray:5.0,5.0;" x1="121.1597" x2="121.1597" y1="56.7988" y2="447.127"/><line style="stroke:#181818;stroke-width:0.5;stroke-dasharray:5.0,5.0;" x1="297.7661" x2="297.7661" y1="56.7988" y2="447.127"/><line style="stroke:#181818;stroke-width:0.5;stroke-dasharray:5.0,5.0;" x1="470.5776" x2="470.5776" y1="156.1641" y2="447.127"/><line style="stroke:#181818;stroke-width:0.5;stroke-dasharray:5.0,5.0;" x1="637.0005" x2="637.0005" y1="369.0723" y2="447.127"/><line style="stroke:#181818;stroke-width:0.5;stroke-dasharray:5.0,5.0;" x1="795.5776" x2="795.5776" y1="270.2734" y2="447.127"/><line style="stroke:#181818;stroke-width:0.5;stroke-dasharray:5.0,5.0;" x1="921.5962" x2="921.5962" y1="56.7988" y2="447.127"/><rect fill="#3333C4" height="30.4883" rx="2.5" ry="2.5" style="stroke:#181818;stroke-width:0.5;" width="112.9092" x="65.1597" y="25.3105"/><text fill="#FFFFFF" font-family="sans-serif" font-size="14" lengthAdjust="spacing" textLength="98.9092" x="72.1597" y="45.8457">:LogicManager</text><rect fill="#3333C4" height="30.4883" rx="2.5" ry="2.5" style="stroke:#181818;stroke-width:0.5;" width="148.8115" x="223.7661" y="25.3105"/><text fill="#FFFFFF" font-family="sans-serif" font-size="14" lengthAdjust="spacing" textLength="134.8115" x="230.7661" y="45.8457">:AddressBookParser</text><rect fill="#9D0012" height="30.4883" rx="2.5" ry="2.5" style="stroke:#181818;stroke-width:0.5;" width="72.8164" x="885.5962" y="25.3105"/><text fill="#FFFFFF" font-family="sans-serif" font-size="14" lengthAdjust="spacing" textLength="58.8164" x="892.5962" y="45.8457">m:Model</text><rect fill="#FFFFFF" height="341.0176" style="stroke:#181818;stroke-width:1.0;" width="10" x="116.6143" y="88.1094"/><rect fill="#FFFFFF" height="84.7988" style="stroke:#181818;stroke-width:1.0;" width="10" x="293.1719" y="117.4199"/><rect fill="#FFFFFF" height="31.4883" style="stroke:#181818;stroke-width:1.0;" width="10" x="466.2891" y="141.4199"/><rect fill="#FFFFFF" height="183.5977" style="stroke:#181818;stroke-width:1.0;" width="10" x="466.2891" y="231.5293"/><rect fill="#FFFFFF" height="31.4883" style="stroke:#181818;stroke-width:1.0;" width="10" x="632.7891" y="354.3281"/><rect fill="#FFFFFF" height="31.4883" style="stroke:#181818;stroke-width:1.0;" width="10" x="790.5869" y="255.5293"/><rect fill="#FFFFFF" height="14" style="stroke:#181818;stroke-width:1.0;" width="10" x="917.0044" y="316.3281"/><polygon fill="#181818" points="104.6143,84.1094,114.6143,88.1094,104.6143,92.1094,108.6143,88.1094" style="stroke:#181818;stroke-width:1.0;"/><line style="stroke:#181818;stroke-width:1.0;" x1="0" x2="110.6143" y1="88.1094" y2="88.1094"/><text fill="#000000" font-family="sans-serif" font-size="13" lengthAdjust="spacing" textLength="97.6143" x="9.5" y="83.3672">execute("clear")</text><polygon fill="#181818" points="281.1719,113.4199,291.1719,117.4199,281.1719,121.4199,285.1719,117.4199" style="stroke:#181818;stroke-width:1.0;"/><line style="stroke:#181818;stroke-width:1.0;" x1="126.6143" x2="287.1719" y1="117.4199" y2="117.4199"/><text fill="#000000" font-family="sans-serif" font-size="13" lengthAdjust="spacing" textLength="147.5576" x="136.1143" y="112.6777">parseCommand("clear")</text><polygon fill="#181818" points="390.5776,127.4199,400.5776,131.4199,390.5776,135.4199,394.5776,131.4199" style="stroke:#181818;stroke-width:1.0;"/><line style="stroke:#181818;stroke-width:1.0;" x1="303.1719" x2="396.5776" y1="131.4199" y2="131.4199"/><rect fill="#3333C4" height="30.4883" rx="2.5" ry="2.5" style="stroke:#181818;stroke-width:0.5;" width="137.4229" x="402.5776" y="125.4199"/><text fill="#FFFFFF" font-family="sans-serif" font-size="14" lengthAdjust="spacing" textLength="123.4229" x="409.5776" y="145.9551">cc:ClearCommand</text><polygon fill="#181818" points="314.1719,168.9082,304.1719,172.9082,314.1719,176.9082,310.1719,172.9082" style="stroke:#181818;stroke-width:1.0;"/><line style="stroke:#181818;stroke-width:1.0;stroke-dasharray:2.0,2.0;" x1="308.1719" x2="470.2891" y1="172.9082" y2="172.9082"/><polygon fill="#181818" points="137.6143,198.2188,127.6143,202.2188,137.6143,206.2188,133.6143,202.2188" style="stroke:#181818;stroke-width:1.0;"/><line style="stroke:#181818;stroke-width:1.0;stroke-dasharray:2.0,2.0;" x1="131.6143" x2="297.1719" y1="202.2188" y2="202.2188"/><text fill="#000000" font-family="sans-serif" font-size="13" lengthAdjust="spacing" textLength="13.3174" x="205.7344" y="197.4766">cc</text><polygon fill="#181818" points="454.2891,227.5293,464.2891,231.5293,454.2891,235.5293,458.2891,231.5293" style="stroke:#181818;stroke-width:1.0;"/><line style="stroke:#181818;stroke-width:1.0;" x1="126.6143" x2="460.2891" y1="231.5293" y2="231.5293"/><text fill="#000000" font-family="sans-serif" font-size="13" lengthAdjust="spacing" textLength="69.8813" x="261.511" y="226.7871">execute(m)</text><polygon fill="#181818" points="723.5776,241.5293,733.5776,245.5293,723.5776,249.5293,727.5776,245.5293" style="stroke:#181818;stroke-width:1.0;"/><line style="stroke:#181818;stroke-width:1.0;" x1="476.2891" x2="729.5776" y1="245.5293" y2="245.5293"/><rect fill="#9D0012" height="30.4883" rx="2.5" ry="2.5" style="stroke:#181818;stroke-width:0.5;" width="120.0186" x="735.5776" y="239.5293"/><text fill="#FFFFFF" font-family="sans-serif" font-size="14" lengthAdjust="spacing" textLength="106.0186" x="742.5776" y="260.0645">m:AddressBook</text><polygon fill="#181818" points="487.2891,283.0176,477.2891,287.0176,487.2891,291.0176,483.2891,287.0176" style="stroke:#181818;stroke-width:1.0;"/><line style="stroke:#181818;stroke-width:1.0;stroke-dasharray:2.0,2.0;" x1="481.2891" x2="794.5869" y1="287.0176" y2="287.0176"/><polygon fill="#181818" points="905.0044,312.3281,915.0044,316.3281,905.0044,320.3281,909.0044,316.3281" style="stroke:#181818;stroke-width:1.0;"/><line style="stroke:#181818;stroke-width:1.0;" x1="476.2891" x2="911.0044" y1="316.3281" y2="316.3281"/><text fill="#000000" font-family="sans-serif" font-size="13" lengthAdjust="spacing" textLength="124.7441" x="634.2747" y="311.5859">setAddressBook(ab)</text><polygon fill="#181818" points="487.2891,326.3281,477.2891,330.3281,487.2891,334.3281,483.2891,330.3281" style="stroke:#181818;stroke-width:1.0;"/><line style="stroke:#181818;stroke-width:1.0;stroke-dasharray:2.0,2.0;" x1="481.2891" x2="921.0044" y1="330.3281" y2="330.3281"/><polygon fill="#181818" points="558.0005,340.3281,568.0005,344.3281,558.0005,348.3281,562.0005,344.3281" style="stroke:#181818;stroke-width:1.0;"/><line style="stroke:#181818;stroke-width:1.0;" x1="476.2891" x2="564.0005" y1="344.3281" y2="344.3281"/><rect fill="#3333C4" height="30.4883" rx="2.5" ry="2.5" style="stroke:#181818;stroke-width:0.5;" width="135.5771" x="570.0005" y="338.3281"/><text fill="#FFFFFF" font-family="sans-serif" font-size="14" lengthAdjust="spacing" textLength="121.5771" x="577.0005" y="358.8633">r:CommandResult</text><polygon fill="#181818" points="487.2891,381.8164,477.2891,385.8164,487.2891,389.8164,483.2891,385.8164" style="stroke:#181818;stroke-width:1.0;"/><line style="stroke:#181818;stroke-width:1.0;stroke-dasharray:2.0,2.0;" x1="481.2891" x2="636.7891" y1="385.8164" y2="385.8164"/><polygon fill="#181818" points="137.6143,411.127,127.6143,415.127,137.6143,419.127,133.6143,415.127" style="stroke:#181818;stroke-width:1.0;"/><line style="stroke:#181818;stroke-width:1.0;stroke-dasharray:2.0,2.0;" x1="131.6143" x2="470.2891" y1="415.127" y2="415.127"/><text fill="#000000" font-family="sans-serif" font-size="13" lengthAdjust="spacing" textLength="5.3193" x="296.292" y="410.3848">r</text><polygon fill="#181818" points="11,425.127,1,429.127,11,433.127,7,429.127" style="stroke:#181818;stroke-width:1.0;"/><line style="stroke:#181818;stroke-width:1.0;stroke-dasharray:2.0,2.0;" x1="5" x2="120.6143" y1="429.127" y2="429.127"/><!--SRC=[VLF9ReCm4BtFLxYSaWELUaLLfPGkgaH4bVQMG-IOKOG26DccJV- -R6qyDd2pnc_nUxPlyaeKJOPCcvy2R-kcB42VywhcYfTievJyVf6L-UXsMLtml08uoWjBv2aNB4bVt-93d2Rfxl1v1ot9v2AlUMLO4FMGBQ_u2LN0k6RsmAOwl4sMATJwKShpErTw97lJUGKXehX0hc9PbhpAUhezc6UgQ8JiK3U56PZsX52nbMgx60hPoWmBjasVdfEPGaexcPl9PhgqNhedU2RNC-p31rfmnF22eZ6u2aGNFbW35oR_uWO9483GMXc_weZLtMAiOaBGem08XTsENJpuogqTGVmhaYcGwmkdpWWPpd0dJFskXB059kAu9P4JNRikrtCHnZuiQISL2JLPBSdIfo0Mqm70inbUKSGq6WktuaVhx3q6O80kEOt0lzksFujdJ7UlFP4nq0-tvEqItKVYtF726zdVXo7v51RIdly2]--></g></svg>