<svg xmlns="http://www.w3.org/2000/svg" xmlns:xlink="http://www.w3.org/1999/xlink" contentStyleType="text/css" height="348px" preserveAspectRatio="none" style="width:391px;height:348px;background:#FFFFFF;" version="1.1" viewBox="0 0 391 348" width="391px" zoomAndPan="magnify"><defs><filter height="300%" id="foch9wlgv37s9" width="300%" x="-1" y="-1"><feGaussianBlur result="blurOut" stdDeviation="2.0"/><feColorMatrix in="blurOut" result="blurOut2" type="matrix" values="0 0 0 0 0 0 0 0 0 0 0 0 0 0 0 0 0 0 .4 0"/><feOffset dx="4.0" dy="4.0" in="blurOut2" result="blurOut3"/><feBlend in="SourceGraphic" in2="blurOut3" mode="normal"/></filter></defs><g><ellipse cx="204.0625" cy="20" fill="#000000" filter="url(#foch9wlgv37s9)" rx="10" ry="10" style="stroke:#000000;stroke-width:1.0;"/><rect fill="#FEFECE" filter="url(#foch9wlgv37s9)" height="38.8672" rx="12.5" ry="12.5" style="stroke:#A80036;stroke-width:1.5;" width="185.9009" x="111.1121" y="50"/><text fill="#000000" font-family="sans-serif" font-size="15" lengthAdjust="spacing" textLength="165.9009" x="121.1121" y="75.5713">User executes command</text><polygon fill="#FEFECE" filter="url(#foch9wlgv37s9)" points="204.0625,108.8672,204.0625,108.8672,216.0625,120.8672,204.0625,132.8672,204.0625,132.8672,192.0625,120.8672,204.0625,108.8672" style="stroke:#A80036;stroke-width:1.5;"/><text fill="#000000" font-family="sans-serif" font-size="12" lengthAdjust="spacing" textLength="182.0625" x="10" y="118.2305">[command commits AddressBook]</text><text fill="#000000" font-family="sans-serif" font-size="12" lengthAdjust="spacing" textLength="28.6816" x="216.0625" y="118.2305">[else]</text><rect fill="#FEFECE" filter="url(#foch9wlgv37s9)" height="38.8672" rx="12.5" ry="12.5" style="stroke:#A80036;stroke-width:1.5;" width="175.9399" x="23.1323" y="142.8672"/><text fill="#000000" font-family="sans-serif" font-size="15" lengthAdjust="spacing" textLength="155.9399" x="33.1323" y="168.4385">Purge redundant states</text><rect fill="#FEFECE" filter="url(#foch9wlgv37s9)" height="57.7344" rx="12.5" ry="12.5" style="stroke:#A80036;stroke-width:1.5;" width="165.9204" x="28.1421" y="201.7344"/><text fill="#000000" font-family="sans-serif" font-size="15" lengthAdjust="spacing" textLength="144.2505" x="38.1421" y="227.3057">Save AddressBook to</text><text fill="#000000" font-family="sans-serif" font-size="15" lengthAdjust="spacing" textLength="145.9204" x="38.1421" y="246.1729">addressBookStateList</text><rect fill="#FEFECE" filter="url(#foch9wlgv37s9)" height="38.8672" rx="12.5" ry="12.5" style="stroke:#A80036;stroke-width:1.5;" width="155.9009" x="219.0723" y="142.8672"/><text fill="#000000" font-family="sans-serif" font-size="15" lengthAdjust="spacing" textLength="135.9009" x="229.0723" y="168.4385">Send error message</text><rect fill="#FEFECE" filter="url(#foch9wlgv37s9)" height="57.7344" rx="12.5" ry="12.5" style="stroke:#A80036;stroke-width:1.5;" width="132.5659" x="230.7397" y="201.7344"/><text fill="#000000" font-family="sans-serif" font-size="15" lengthAdjust="spacing" textLength="105.8789" x="240.7397" y="227.3057">Redirect user to</text><text fill="#000000" font-family="sans-serif" font-size="15" lengthAdjust="spacing" textLength="112.5659" x="240.7397" y="246.1729">Developer Guide</text><polygon fill="#FEFECE" filter="url(#foch9wlgv37s9)" points="204.0625,265.4688,216.0625,277.4688,204.0625,289.4688,192.0625,277.4688,204.0625,265.4688" style="stroke:#A80036;stroke-width:1.5;"/><ellipse cx="204.0625" cy="320.4688" fill="none" filter="url(#foch9wlgv37s9)" rx="11" ry="11" style="stroke:#000000;stroke-width:1.0;"/><ellipse cx="204.0625" cy="320.4688" fill="#000000" rx="6" ry="6" style="stroke:#000000;stroke-width:1.0;"/><line style="stroke:#A80036;stroke-width:1.5;" x1="204.0625" x2="204.0625" y1="30" y2="50"/><polygon fill="#A80036" points="200.0625,40,204.0625,50,208.0625,40,204.0625,44" style="stroke:#A80036;stroke-width:1.0;"/><line style="stroke:#A80036;stroke-width:1.5;" x1="111.1023" x2="111.1023" y1="181.7344" y2="201.7344"/><polygon fill="#A80036" points="107.1023,191.7344,111.1023,201.7344,115.1023,191.7344,111.1023,195.7344" style="stroke:#A80036;stroke-width:1.0;"/><line style="stroke:#A80036;stroke-width:1.5;" x1="297.0227" x2="297.0227" y1="181.7344" y2="201.7344"/><polygon fill="#A80036" points="293.0227,191.7344,297.0227,201.7344,301.0227,191.7344,297.0227,195.7344" style="stroke:#A80036;stroke-width:1.0;"/><line style="stroke:#A80036;stroke-width:1.5;" x1="192.0625" x2="111.1023" y1="120.8672" y2="120.8672"/><line style="stroke:#A80036;stroke-width:1.5;" x1="111.1023" x2="111.1023" y1="120.8672" y2="142.8672"/><polygon fill="#A80036" points="107.1023,132.8672,111.1023,142.8672,115.1023,132.8672,111.1023,136.8672" style="stroke:#A80036;stroke-width:1.0;"/><line style="stroke:#A80036;stroke-width:1.5;" x1="216.0625" x2="297.0227" y1="120.8672" y2="120.8672"/><line style="stroke:#A80036;stroke-width:1.5;" x1="297.0227" x2="297.0227" y1="120.8672" y2="142.8672"/><polygon fill="#A80036" points="293.0227,132.8672,297.0227,142.8672,301.0227,132.8672,297.0227,136.8672" style="stroke:#A80036;stroke-width:1.0;"/><line style="stroke:#A80036;stroke-width:1.5;" x1="111.1023" x2="111.1023" y1="259.4688" y2="277.4688"/><line style="stroke:#A80036;stroke-width:1.5;" x1="111.1023" x2="192.0625" y1="277.4688" y2="277.4688"/><polygon fill="#A80036" points="182.0625,273.4688,192.0625,277.4688,182.0625,281.4688,186.0625,277.4688" style="stroke:#A80036;stroke-width:1.0;"/><line style="stroke:#A80036;stroke-width:1.5;" x1="297.0227" x2="297.0227" y1="259.4688" y2="277.4688"/><line style="stroke:#A80036;stroke-width:1.5;" x1="297.0227" x2="216.0625" y1="277.4688" y2="277.4688"/><polygon fill="#A80036" points="226.0625,273.4688,216.0625,277.4688,226.0625,281.4688,222.0625,277.4688" style="stroke:#A80036;stroke-width:1.0;"/><line style="stroke:#A80036;stroke-width:1.5;" x1="204.0625" x2="204.0625" y1="88.8672" y2="108.8672"/><polygon fill="#A80036" points="200.0625,98.8672,204.0625,108.8672,208.0625,98.8672,204.0625,102.8672" style="stroke:#A80036;stroke-width:1.0;"/><line style="stroke:#A80036;stroke-width:1.5;" x1="204.0625" x2="204.0625" y1="289.4688" y2="309.4688"/><polygon fill="#A80036" points="200.0625,299.4688,204.0625,309.4688,208.0625,299.4688,204.0625,303.4688" style="stroke:#A80036;stroke-width:1.0;"/><!--SRC=[JL2xJaCn3Dtp5Tve5oIGMDgf2C72WBXYGWmcSLkhlVPLxFJ1r-DUYjeiYNmUFZcsOO6gHidYDM357XRPUST-V5RnZdy8xXwkqLfrVu7kapbMJxCFemfqeDoS3BBsFKgPftJJiMG2NnDyaoFOKHmFK3HOeWxMXa6hmx35pB8QYLcbiBCAQ7FZCihJJM7i0u4zZMm2Ta0R5LvR-5UKl0OMSy9ocn8lOJ8zuGAJptEaCHgxmQAKIcQFgfklQO8uixTMLmILIfE24jaSupFpFx337LsBm7K4y3BgJlnNDfydsXh5qjFrxzvHRAUehq8V0bpHsVcT2bVA3ktKuTdsYNQqrI46BoqQ2CVeP1bjw_0B]--></g></svg>
