<svg xmlns="http://www.w3.org/2000/svg" xmlns:xlink="http://www.w3.org/1999/xlink" contentStyleType="text/css" height="457px" preserveAspectRatio="none" style="width:325px;height:457px;background:#FFFFFF;" version="1.1" viewBox="0 0 325 457" width="325px" zoomAndPan="magnify"><defs/><g><!--cluster LogicPackage--><g id="cluster_LogicPackage"><rect fill="#FFFFFF" height="186" rx="2.5" ry="2.5" style="stroke:#000000;stroke-width:1.0;" width="134" x="89" y="55"/><text fill="#000000" font-family="sans-serif" font-size="16" font-weight="bold" lengthAdjust="spacing" textLength="42.6641" x="134.668" y="73.6094">Logic</text></g><!--cluster ModelPackage--><g id="cluster_ModelPackage"><rect fill="#FFFFFF" height="186" rx="2.5" ry="2.5" style="stroke:#000000;stroke-width:1.0;" width="138" x="7" y="265"/><text fill="#000000" font-family="sans-serif" font-size="16" font-weight="bold" lengthAdjust="spacing" textLength="46.2188" x="52.8906" y="283.6094">Model</text></g><!--cluster StoragePackage--><g id="cluster_StoragePackage"><rect fill="#FFFFFF" height="186" rx="2.5" ry="2.5" style="stroke:#000000;stroke-width:1.0;" width="150" x="169" y="265"/><text fill="#000000" font-family="sans-serif" font-size="16" font-weight="bold" lengthAdjust="spacing" textLength="59.5703" x="214.2148" y="283.6094">Storage</text></g><!--class Logic--><g id="elem_Logic"><rect codeLine="7" fill="#3333C4" height="44.4971" id="Logic" rx="2.5" ry="2.5" style="stroke:#FFFFFF;stroke-width:1.0;" width="80.2163" x="116" y="94"/><text fill="#FFFFFF" font-family="Arial" font-size="15" lengthAdjust="spacing" textLength="74.2163" x="119" y="113.0698">&#171;interface&#187;</text><text fill="#FFFFFF" font-family="Arial" font-size="15" lengthAdjust="spacing" textLength="35.8594" x="138.1785" y="130.3184">Logic</text></g><!--class LogicManager--><g id="elem_LogicManager"><rect codeLine="8" fill="#3333C4" height="27.2485" id="LogicManager" rx="2.5" ry="2.5" style="stroke:#FFFFFF;stroke-width:1.0;" width="101.061" x="105.5" y="198"/><text fill="#FFFFFF" font-family="Arial" font-size="15" lengthAdjust="spacing" textLength="95.061" x="108.5" y="217.0698">LogicManager</text></g><!--class Model--><g id="elem_Model"><rect codeLine="12" fill="#3333C4" height="44.4971" id="Model" rx="2.5" ry="2.5" style="stroke:#FFFFFF;stroke-width:1.0;" width="80.2163" x="42" y="304"/><text fill="#FFFFFF" font-family="Arial" font-size="15" lengthAdjust="spacing" textLength="74.2163" x="45" y="323.0698">&#171;interface&#187;</text><text fill="#FFFFFF" font-family="Arial" font-size="15" lengthAdjust="spacing" textLength="40.8545" x="61.6809" y="340.3184">Model</text></g><!--class ModelManager--><g id="elem_ModelManager"><rect codeLine="13" fill="#3333C4" height="27.2485" id="ModelManager" rx="2.5" ry="2.5" style="stroke:#FFFFFF;stroke-width:1.0;" width="106.0562" x="23" y="408"/><text fill="#FFFFFF" font-family="Arial" font-size="15" lengthAdjust="spacing" textLength="100.0562" x="26" y="427.0698">ModelManager</text></g><!--class Storage--><g id="elem_Storage"><rect codeLine="17" fill="#3333C4" height="44.4971" id="Storage" rx="2.5" ry="2.5" style="stroke:#FFFFFF;stroke-width:1.0;" width="80.2163" x="194" y="304"/><text fill="#FFFFFF" font-family="Arial" font-size="15" lengthAdjust="spacing" textLength="74.2163" x="197" y="323.0698">&#171;interface&#187;</text><text fill="#FFFFFF" font-family="Arial" font-size="15" lengthAdjust="spacing" textLength="52.5366" x="207.8398" y="340.3184">Storage</text></g><!--class StorageManager--><g id="elem_StorageManager"><rect codeLine="18" fill="#3333C4" height="27.2485" id="StorageManager" rx="2.5" ry="2.5" style="stroke:#FFFFFF;stroke-width:1.0;" width="117.7383" x="185" y="408"/><text fill="#FFFFFF" font-family="Arial" font-size="15" lengthAdjust="spacing" textLength="111.7383" x="188" y="427.0698">StorageManager</text></g><!--class HiddenOutside--><g id="elem_HiddenOutside"><rect codeLine="21" fill="#FFFFFF" height="27.2485" id="HiddenOutside" rx="2.5" ry="2.5" style="stroke:#FFFFFF;stroke-width:1.0;" width="105.2285" x="103.5" y="7"/><text fill="#FFFFFF" font-family="Arial" font-size="15" lengthAdjust="spacing" textLength="99.2285" x="106.5" y="26.0698">HiddenOutside</text></g><!--link HiddenOutside to Logic--><g id="link_HiddenOutside_Logic"><path codeLine="22" d="M156,34.11 C156,49.36 156,69.28 156,87.66 " fill="none" id="HiddenOutside-to-Logic" style="stroke:#101086;stroke-width:1.1;stroke-dasharray:7.0,7.0;"/><polygon fill="#101086" points="156,93.66,160,84.66,156,88.66,152,84.66,156,93.66" style="stroke:#101086;stroke-width:1.1;"/></g><!--reverse link Logic to LogicManager--><g id="link_Logic_LogicManager"><path codeLine="24" d="M156,156.22 C156,174.64 156,182.7 156,197.98 " fill="none" id="Logic-backto-LogicManager" style="stroke:#101086;stroke-width:1.1;stroke-dasharray:7.0,7.0;"/><polygon fill="none" points="156,138.22,150,156.22,162,156.22,156,138.22" style="stroke:#101086;stroke-width:1.1;"/></g><!--reverse link Model to ModelManager--><g id="link_Model_ModelManager"><path codeLine="25" d="M79.4893,366.1832 C78.3093,384.6032 77.78,392.7 76.8,407.98 " fill="none" id="Model-backto-ModelManager" style="stroke:#101086;stroke-width:1.1;stroke-dasharray:7.0,7.0;"/><polygon fill="none" points="80.64,348.22,73.5015,365.7996,85.477,366.5668,80.64,348.22" style="stroke:#101086;stroke-width:1.1;"/></g><!--reverse link Storage to StorageManager--><g id="link_Storage_StorageManager"><path codeLine="26" d="M238.1842,366.1179 C240.1542,384.5379 241.03,392.7 242.66,407.98 " fill="none" id="Storage-backto-StorageManager" style="stroke:#101086;stroke-width:1.1;stroke-dasharray:7.0,7.0;"/><polygon fill="none" points="236.27,348.22,232.2182,366.756,244.1501,365.4799,236.27,348.22" style="stroke:#101086;stroke-width:1.1;"/></g><!--link LogicManager to Model--><g id="link_LogicManager_Model"><path codeLine="28" d="M147.51,225.41 C134.91,244.57 114.3971,275.7371 99.2171,298.8171 " fill="none" id="LogicManager-to-Model" style="stroke:#101086;stroke-width:1.1;"/><polygon fill="#101086" points="95.92,303.83,104.2075,298.5087,98.6676,299.6526,97.5236,294.1126,95.92,303.83" style="stroke:#101086;stroke-width:1.1;"/></g><!--link LogicManager to Storage--><g id="link_LogicManager_Storage"><path codeLine="29" d="M164.95,225.41 C178.23,244.57 199.9016,275.819 215.9016,298.899 " fill="none" id="LogicManager-to-Storage" style="stroke:#101086;stroke-width:1.1;"/><polygon fill="#101086" points="219.32,303.83,217.4798,294.1546,216.4714,299.7208,210.9051,298.7124,219.32,303.83" style="stroke:#101086;stroke-width:1.1;"/></g><!--SRC=[XP5BQyGW58Nt_WgRhaSOw7B8ee4-84DAEyl2S56RaJWQD59As__Un5odfbCODnxl-UxnTQKCrq58weSFBLaVZfhuJfaU71mfE6VVTmV5EoEzfsks_cjMLbj7w-R-iTfNJTqyxtSt6SCrU7yBl6kT3KQSqOJqemcjfBLj5QVWP_64rKzIJGcqs6oK6QHx0oxByjL4g3ZXI4Mz1JDsElBzcxsrGke9Zk9ITeIA4uvKrFzalmpMJVE8exoKZrYHjI29gsoNkVwWX92c2ODNuqzTtyL1bbN6IdmBaZy3PQ5dNydABv6S-PBBhPENZhUCNArIrraP6tu0]--></g></svg>
