<svg xmlns="http://www.w3.org/2000/svg" xmlns:xlink="http://www.w3.org/1999/xlink" contentStyleType="text/css" height="540px" preserveAspectRatio="none" style="width:1019px;height:540px;background:#FFFFFF;" version="1.1" viewBox="0 0 1019 540" width="1019px" zoomAndPan="magnify"><defs/><g><rect fill="#C8C8FA" height="521.6016" style="stroke:#181818;stroke-width:0.5;" width="849.8467" x="66.3745" y="6"/><text fill="#FFFFFF" font-family="sans-serif" font-size="13" font-weight="bold" lengthAdjust="spacing" textLength="34.6646" x="472.1597" y="19.4951">Logic</text><rect fill="#F97181" height="521.6016" style="stroke:#181818;stroke-width:0.5;" width="95.6826" x="918.2212" y="6"/><text fill="#FFFFFF" font-family="sans-serif" font-size="13" font-weight="bold" lengthAdjust="spacing" textLength="37.5527" x="945.4802" y="19.4951">Model</text><rect fill="#FFFFFF" height="424.2891" style="stroke:#181818;stroke-width:1.0;" width="10" x="128.6812" y="91.3125"/><rect fill="#FFFFFF" height="218.2734" style="stroke:#181818;stroke-width:1.0;" width="10" x="314.3159" y="121.6641"/><rect fill="#FFFFFF" height="32.6094" style="stroke:#181818;stroke-width:1.0;" width="10" x="497.5981" y="145.6641"/><rect fill="#FFFFFF" height="86.9609" style="stroke:#181818;stroke-width:1.0;" width="10" x="497.5981" y="208.625"/><rect fill="#FFFFFF" height="32.6094" style="stroke:#181818;stroke-width:1.0;" width="10" x="675.0459" y="232.625"/><rect fill="#FFFFFF" height="131.3125" style="stroke:#181818;stroke-width:1.0;" width="10" x="675.0459" y="370.2891"/><rect fill="#FFFFFF" height="32.6094" style="stroke:#181818;stroke-width:1.0;" width="10" x="833.8145" y="438.6406"/><rect fill="#FFFFFF" height="14" style="stroke:#181818;stroke-width:1.0;" width="10" x="961.0625" y="400.6406"/><line style="stroke:#181818;stroke-width:0.5;stroke-dasharray:5.0,5.0;" x1="133.3745" x2="133.3745" y1="58.9609" y2="533.6016"/><line style="stroke:#181818;stroke-width:0.5;stroke-dasharray:5.0,5.0;" x1="319.1196" x2="319.1196" y1="58.9609" y2="533.6016"/><line style="stroke:#181818;stroke-width:0.5;stroke-dasharray:5.0,5.0;" x1="502.5122" x2="502.5122" y1="160.9688" y2="533.6016"/><line style="stroke:#181818;stroke-width:0.5;stroke-dasharray:5.0,5.0;" x1="679.6841" x2="679.6841" y1="247.9297" y2="533.6016"/><line style="stroke:#181818;stroke-width:0.5;stroke-dasharray:5.0,5.0;" x1="838.4077" x2="838.4077" y1="453.9453" y2="533.6016"/><line style="stroke:#181818;stroke-width:0.5;stroke-dasharray:5.0,5.0;" x1="965.2212" x2="965.2212" y1="58.9609" y2="533.6016"/><rect fill="#3333C4" height="31.6094" rx="2.5" ry="2.5" style="stroke:#181818;stroke-width:0.5;" width="106.6133" x="80.3745" y="26.3516"/><text fill="#FFFFFF" font-family="sans-serif" font-size="14" lengthAdjust="spacing" textLength="92.6133" x="87.3745" y="47.8848">:LogicManager</text><rect fill="#3333C4" height="31.6094" rx="2.5" ry="2.5" style="stroke:#181818;stroke-width:0.5;" width="142.3926" x="248.1196" y="26.3516"/><text fill="#FFFFFF" font-family="sans-serif" font-size="14" lengthAdjust="spacing" textLength="128.3926" x="255.1196" y="47.8848">:AddressBookParser</text><rect fill="#9D0012" height="31.6094" rx="2.5" ry="2.5" style="stroke:#181818;stroke-width:0.5;" width="67.6826" x="932.2212" y="26.3516"/><text fill="#FFFFFF" font-family="sans-serif" font-size="14" lengthAdjust="spacing" textLength="53.6826" x="939.2212" y="47.8848">m:Model</text><rect fill="#FFFFFF" height="424.2891" style="stroke:#181818;stroke-width:1.0;" width="10" x="128.6812" y="91.3125"/><rect fill="#FFFFFF" height="218.2734" style="stroke:#181818;stroke-width:1.0;" width="10" x="314.3159" y="121.6641"/><rect fill="#FFFFFF" height="32.6094" style="stroke:#181818;stroke-width:1.0;" width="10" x="497.5981" y="145.6641"/><rect fill="#FFFFFF" height="86.9609" style="stroke:#181818;stroke-width:1.0;" width="10" x="497.5981" y="208.625"/><rect fill="#FFFFFF" height="32.6094" style="stroke:#181818;stroke-width:1.0;" width="10" x="675.0459" y="232.625"/><rect fill="#FFFFFF" height="131.3125" style="stroke:#181818;stroke-width:1.0;" width="10" x="675.0459" y="370.2891"/><rect fill="#FFFFFF" height="32.6094" style="stroke:#181818;stroke-width:1.0;" width="10" x="833.8145" y="438.6406"/><rect fill="#FFFFFF" height="14" style="stroke:#181818;stroke-width:1.0;" width="10" x="961.0625" y="400.6406"/><polygon fill="#181818" points="116.6812,87.3125,126.6812,91.3125,116.6812,95.3125,120.6812,91.3125" style="stroke:#181818;stroke-width:1.0;"/><line style="stroke:#181818;stroke-width:1.0;" x1="0" x2="122.6812" y1="91.3125" y2="91.3125"/><text fill="#000000" font-family="sans-serif" font-size="13" lengthAdjust="spacing" textLength="109.6812" x="9.5" y="86.4561">execute("delete 1")</text><polygon fill="#181818" points="302.3159,117.6641,312.3159,121.6641,302.3159,125.6641,306.3159,121.6641" style="stroke:#181818;stroke-width:1.0;"/><line style="stroke:#181818;stroke-width:1.0;" x1="138.6812" x2="308.3159" y1="121.6641" y2="121.6641"/><text fill="#000000" font-family="sans-serif" font-size="13" lengthAdjust="spacing" textLength="156.6348" x="148.1812" y="116.8076">parseCommand("delete 1")</text><polygon fill="#181818" points="408.5122,131.6641,418.5122,135.6641,408.5122,139.6641,412.5122,135.6641" style="stroke:#181818;stroke-width:1.0;"/><line style="stroke:#181818;stroke-width:1.0;" x1="324.3159" x2="414.5122" y1="135.6641" y2="135.6641"/><rect fill="#3333C4" height="31.6094" rx="2.5" ry="2.5" style="stroke:#181818;stroke-width:0.5;" width="164.1719" x="420.5122" y="129.6641"/><text fill="#FFFFFF" font-family="sans-serif" font-size="14" lengthAdjust="spacing" textLength="150.1719" x="427.5122" y="151.1973">:DeleteCommandParser</text><polygon fill="#181818" points="335.3159,174.2734,325.3159,178.2734,335.3159,182.2734,331.3159,178.2734" style="stroke:#181818;stroke-width:1.0;"/><line style="stroke:#181818;stroke-width:1.0;stroke-dasharray:2.0,2.0;" x1="329.3159" x2="501.5981" y1="178.2734" y2="178.2734"/><polygon fill="#181818" points="485.5981,204.625,495.5981,208.625,485.5981,212.625,489.5981,208.625" style="stroke:#181818;stroke-width:1.0;"/><line style="stroke:#181818;stroke-width:1.0;" x1="324.3159" x2="491.5981" y1="208.625" y2="208.625"/><text fill="#000000" font-family="sans-serif" font-size="13" lengthAdjust="spacing" textLength="57.6367" x="382.1387" y="203.7686">parse("1")</text><polygon fill="#181818" points="602.6841,218.625,612.6841,222.625,602.6841,226.625,606.6841,222.625" style="stroke:#181818;stroke-width:1.0;"/><line style="stroke:#181818;stroke-width:1.0;" x1="507.5981" x2="608.6841" y1="222.625" y2="222.625"/><rect fill="#3333C4" height="31.6094" rx="2.5" ry="2.5" style="stroke:#181818;stroke-width:0.5;" width="130.7236" x="614.6841" y="216.625"/><text fill="#FFFFFF" font-family="sans-serif" font-size="14" lengthAdjust="spacing" textLength="116.7236" x="621.6841" y="238.1582">d:DeleteCommand</text><polygon fill="#181818" points="518.5981,261.2344,508.5981,265.2344,518.5981,269.2344,514.5981,265.2344" style="stroke:#181818;stroke-width:1.0;"/><line style="stroke:#181818;stroke-width:1.0;stroke-dasharray:2.0,2.0;" x1="512.5981" x2="679.0459" y1="265.2344" y2="265.2344"/><polygon fill="#181818" points="335.3159,291.5859,325.3159,295.5859,335.3159,299.5859,331.3159,295.5859" style="stroke:#181818;stroke-width:1.0;"/><line style="stroke:#181818;stroke-width:1.0;stroke-dasharray:2.0,2.0;" x1="329.3159" x2="501.5981" y1="295.5859" y2="295.5859"/><text fill="#000000" font-family="sans-serif" font-size="13" lengthAdjust="spacing" textLength="7.23" x="409.842" y="290.7295">d</text><line style="stroke:#A80036;stroke-width:2.0;" x1="493.5981" x2="511.5981" y1="300.5859" y2="318.5859"/><line style="stroke:#A80036;stroke-width:2.0;" x1="493.5981" x2="511.5981" y1="318.5859" y2="300.5859"/><polygon fill="#181818" points="149.6812,335.9375,139.6812,339.9375,149.6812,343.9375,145.6812,339.9375" style="stroke:#181818;stroke-width:1.0;"/><line style="stroke:#181818;stroke-width:1.0;stroke-dasharray:2.0,2.0;" x1="143.6812" x2="318.3159" y1="339.9375" y2="339.9375"/><text fill="#000000" font-family="sans-serif" font-size="13" lengthAdjust="spacing" textLength="7.23" x="225.3835" y="335.0811">d</text><polygon fill="#181818" points="663.0459,366.2891,673.0459,370.2891,663.0459,374.2891,667.0459,370.2891" style="stroke:#181818;stroke-width:1.0;"/><line style="stroke:#181818;stroke-width:1.0;" x1="138.6812" x2="669.0459" y1="370.2891" y2="370.2891"/><text fill="#000000" font-family="sans-serif" font-size="13" lengthAdjust="spacing" textLength="65.019" x="374.354" y="365.4326">execute(m)</text><polygon fill="#181818" points="949.0625,396.6406,959.0625,400.6406,949.0625,404.6406,953.0625,400.6406" style="stroke:#181818;stroke-width:1.0;"/><line style="stroke:#181818;stroke-width:1.0;" x1="685.0459" x2="955.0625" y1="400.6406" y2="400.6406"/><text fill="#000000" font-family="sans-serif" font-size="13" lengthAdjust="spacing" textLength="96.1099" x="774.9993" y="395.7842">deleteContact(1)</text><polygon fill="#181818" points="696.0459,410.6406,686.0459,414.6406,696.0459,418.6406,692.0459,414.6406" style="stroke:#181818;stroke-width:1.0;"/><line style="stroke:#181818;stroke-width:1.0;stroke-dasharray:2.0,2.0;" x1="690.0459" x2="965.0625" y1="414.6406" y2="414.6406"/><polygon fill="#181818" points="763.4077,424.6406,773.4077,428.6406,763.4077,432.6406,767.4077,428.6406" style="stroke:#181818;stroke-width:1.0;"/><line style="stroke:#181818;stroke-width:1.0;" x1="685.0459" x2="769.4077" y1="428.6406" y2="428.6406"/><rect fill="#3333C4" height="31.6094" rx="2.5" ry="2.5" style="stroke:#181818;stroke-width:0.5;" width="126.8135" x="775.4077" y="422.6406"/><text fill="#FFFFFF" font-family="sans-serif" font-size="14" lengthAdjust="spacing" textLength="112.8135" x="782.4077" y="444.1738">r:CommandResult</text><polygon fill="#181818" points="696.0459,467.25,686.0459,471.25,696.0459,475.25,692.0459,471.25" style="stroke:#181818;stroke-width:1.0;"/><line style="stroke:#181818;stroke-width:1.0;stroke-dasharray:2.0,2.0;" x1="690.0459" x2="837.8145" y1="471.25" y2="471.25"/><polygon fill="#181818" points="149.6812,497.6016,139.6812,501.6016,149.6812,505.6016,145.6812,501.6016" style="stroke:#181818;stroke-width:1.0;"/><line style="stroke:#181818;stroke-width:1.0;stroke-dasharray:2.0,2.0;" x1="143.6812" x2="679.0459" y1="501.6016" y2="501.6016"/><text fill="#000000" font-family="sans-serif" font-size="13" lengthAdjust="spacing" textLength="4.3291" x="407.199" y="496.7451">r</text><polygon fill="#181818" points="11,511.6016,1,515.6016,11,519.6016,7,515.6016" style="stroke:#181818;stroke-width:1.0;"/><line style="stroke:#181818;stroke-width:1.0;stroke-dasharray:2.0,2.0;" x1="5" x2="132.6812" y1="515.6016" y2="515.6016"/><!--SRC=[bLJBRi8m4BpxAxQv50vKuXfLI9G-9H0LxGrLbOctnIAn8zlqyVTrJ0fnx51wItPdPdTsRPznaULRXg3DTuuNvRR8YTvmKL952nWh9JzlfJ1FLHRAd791o4f-mLI-ymocyxk7oUjaFfqlNf-7n98CptX9XO4aTP0P5VGTLG9KGpFGfBPuOyOKQdqbvUQHAbsJW-WHXMlCqU145WKLhA4HYNUhC5yc5EYcghI6B51lS-EeNiIZefMo8ztDTIOPvZ2RNzzCE-PQf0xZH0FqGMmv6Fa3Jm6_CDiQx2NCsO1XqYSqC_o3sfycbX2FQPN2wQTGLX-rhRXcm28aKrXb8fiWOGrRE0RSwyUI9BRaGSm2ONXSwTI6VcVHIpptKSsO_tZBhL8TkYs_pccqnKwt_vYODSh-cjhvFMSC1T3gwG0ZePIQ6ou5c3K2GssK_8Q2getLMs5UWMoYEhVopNtMyXLbHTL5lBtbsfLvwLZihigfMmslYcSpSepRzyDVmk6g5VrJzpQgBxEjNIU4iTJUiA7W48JiWC6ccotNoFgqUMzFMDXFxpNyCF4ViAFLMypmXBQchOuSpkNbOE2zJGreC_u3]--></g></svg>
