<svg xmlns="http://www.w3.org/2000/svg" xmlns:xlink="http://www.w3.org/1999/xlink" contentStyleType="text/css" height="702px" preserveAspectRatio="none" style="width:1284px;height:702px;background:#FFFFFF;" version="1.1" viewBox="0 0 1284 702" width="1284px" zoomAndPan="magnify"><defs/><g><rect fill="#C8C8FA" height="683.2656" style="stroke:#181818;stroke-width:0.5;" width="1072.7603" x="107.5645" y="6"/><text fill="#FFFFFF" font-family="sans-serif" font-size="13" font-weight="bold" lengthAdjust="spacing" textLength="34.6646" x="624.8064" y="19.4951">Logic</text><rect fill="#F97181" height="683.2656" style="stroke:#181818;stroke-width:0.5;" width="95.6826" x="1182.3247" y="6"/><text fill="#FFFFFF" font-family="sans-serif" font-size="13" font-weight="bold" lengthAdjust="spacing" textLength="37.5527" x="1209.5837" y="19.4951">Model</text><rect fill="#FFFFFF" height="585.9531" style="stroke:#181818;stroke-width:1.0;" width="10" x="169.8711" y="91.3125"/><rect fill="#FFFFFF" height="379.9375" style="stroke:#181818;stroke-width:1.0;" width="10" x="396.6958" y="121.6641"/><rect fill="#FFFFFF" height="32.6094" style="stroke:#181818;stroke-width:1.0;" width="10" x="571.8057" y="145.6641"/><rect fill="#FFFFFF" height="14" style="stroke:#181818;stroke-width:1.0;" width="10" x="571.8057" y="208.625"/><rect fill="#FFFFFF" height="204.2734" style="stroke:#181818;stroke-width:1.0;" width="10" x="571.8057" y="252.9766"/><rect fill="#FFFFFF" height="32.6094" style="stroke:#181818;stroke-width:1.0;" width="10" x="764.4258" y="276.9766"/><rect fill="#FFFFFF" height="30.3516" style="stroke:#181818;stroke-width:1.0;" width="10" x="764.4258" y="339.9375"/><rect fill="#FFFFFF" height="16.2578" style="stroke:#181818;stroke-width:1.0;" width="10" x="943.8218" y="410.6406"/><rect fill="#FFFFFF" height="131.3125" style="stroke:#181818;stroke-width:1.0;" width="10" x="943.8218" y="531.9531"/><rect fill="#FFFFFF" height="32.6094" style="stroke:#181818;stroke-width:1.0;" width="10" x="1097.918" y="600.3047"/><rect fill="#FFFFFF" height="14" style="stroke:#181818;stroke-width:1.0;" width="10" x="1225.166" y="562.3047"/><line style="stroke:#181818;stroke-width:0.5;stroke-dasharray:5.0,5.0;" x1="174.5645" x2="174.5645" y1="58.9609" y2="695.2656"/><line style="stroke:#181818;stroke-width:0.5;stroke-dasharray:5.0,5.0;" x1="401.4995" x2="401.4995" y1="58.9609" y2="695.2656"/><line style="stroke:#181818;stroke-width:0.5;stroke-dasharray:5.0,5.0;" x1="575.8921" x2="575.8921" y1="160.9688" y2="695.2656"/><line style="stroke:#181818;stroke-width:0.5;stroke-dasharray:5.0,5.0;" x1="768.7192" x2="768.7192" y1="292.2813" y2="695.2656"/><line style="stroke:#181818;stroke-width:0.5;stroke-dasharray:5.0,5.0;" x1="948.1323" x2="948.1323" y1="409.5938" y2="695.2656"/><line style="stroke:#181818;stroke-width:0.5;stroke-dasharray:5.0,5.0;" x1="1102.5112" x2="1102.5112" y1="615.6094" y2="695.2656"/><line style="stroke:#181818;stroke-width:0.5;stroke-dasharray:5.0,5.0;" x1="1229.3247" x2="1229.3247" y1="58.9609" y2="695.2656"/><rect fill="#3333C4" height="31.6094" rx="2.5" ry="2.5" style="stroke:#181818;stroke-width:0.5;" width="106.6133" x="121.5645" y="26.3516"/><text fill="#FFFFFF" font-family="sans-serif" font-size="14" lengthAdjust="spacing" textLength="92.6133" x="128.5645" y="47.8848">:LogicManager</text><rect fill="#3333C4" height="31.6094" rx="2.5" ry="2.5" style="stroke:#181818;stroke-width:0.5;" width="142.3926" x="330.4995" y="26.3516"/><text fill="#FFFFFF" font-family="sans-serif" font-size="14" lengthAdjust="spacing" textLength="128.3926" x="337.4995" y="47.8848">:AddressBookParser</text><rect fill="#9D0012" height="31.6094" rx="2.5" ry="2.5" style="stroke:#181818;stroke-width:0.5;" width="67.6826" x="1196.3247" y="26.3516"/><text fill="#FFFFFF" font-family="sans-serif" font-size="14" lengthAdjust="spacing" textLength="53.6826" x="1203.3247" y="47.8848">m:Model</text><rect fill="#FFFFFF" height="585.9531" style="stroke:#181818;stroke-width:1.0;" width="10" x="169.8711" y="91.3125"/><rect fill="#FFFFFF" height="379.9375" style="stroke:#181818;stroke-width:1.0;" width="10" x="396.6958" y="121.6641"/><rect fill="#FFFFFF" height="32.6094" style="stroke:#181818;stroke-width:1.0;" width="10" x="571.8057" y="145.6641"/><rect fill="#FFFFFF" height="14" style="stroke:#181818;stroke-width:1.0;" width="10" x="571.8057" y="208.625"/><rect fill="#FFFFFF" height="204.2734" style="stroke:#181818;stroke-width:1.0;" width="10" x="571.8057" y="252.9766"/><rect fill="#FFFFFF" height="32.6094" style="stroke:#181818;stroke-width:1.0;" width="10" x="764.4258" y="276.9766"/><rect fill="#FFFFFF" height="30.3516" style="stroke:#181818;stroke-width:1.0;" width="10" x="764.4258" y="339.9375"/><rect fill="#FFFFFF" height="16.2578" style="stroke:#181818;stroke-width:1.0;" width="10" x="943.8218" y="410.6406"/><rect fill="#FFFFFF" height="131.3125" style="stroke:#181818;stroke-width:1.0;" width="10" x="943.8218" y="531.9531"/><rect fill="#FFFFFF" height="32.6094" style="stroke:#181818;stroke-width:1.0;" width="10" x="1097.918" y="600.3047"/><rect fill="#FFFFFF" height="14" style="stroke:#181818;stroke-width:1.0;" width="10" x="1225.166" y="562.3047"/><polygon fill="#181818" points="157.8711,87.3125,167.8711,91.3125,157.8711,95.3125,161.8711,91.3125" style="stroke:#181818;stroke-width:1.0;"/><line style="stroke:#181818;stroke-width:1.0;" x1="0" x2="163.8711" y1="91.3125" y2="91.3125"/><text fill="#000000" font-family="sans-serif" font-size="13" lengthAdjust="spacing" textLength="150.8711" x="9.5" y="86.4561">execute("edit alex n/john")</text><polygon fill="#181818" points="384.6958,117.6641,394.6958,121.6641,384.6958,125.6641,388.6958,121.6641" style="stroke:#181818;stroke-width:1.0;"/><line style="stroke:#181818;stroke-width:1.0;" x1="179.8711" x2="390.6958" y1="121.6641" y2="121.6641"/><text fill="#000000" font-family="sans-serif" font-size="13" lengthAdjust="spacing" textLength="197.8247" x="189.3711" y="116.8076">parseCommand("edit alex n/john")</text><polygon fill="#181818" points="490.8921,131.6641,500.8921,135.6641,490.8921,139.6641,494.8921,135.6641" style="stroke:#181818;stroke-width:1.0;"/><line style="stroke:#181818;stroke-width:1.0;" x1="406.6958" x2="496.8921" y1="135.6641" y2="135.6641"/><rect fill="#3333C4" height="31.6094" rx="2.5" ry="2.5" style="stroke:#181818;stroke-width:0.5;" width="147.8271" x="502.8921" y="129.6641"/><text fill="#FFFFFF" font-family="sans-serif" font-size="14" lengthAdjust="spacing" textLength="133.8271" x="509.8921" y="151.1973">:EditCommandParser</text><polygon fill="#181818" points="417.6958,174.2734,407.6958,178.2734,417.6958,182.2734,413.6958,178.2734" style="stroke:#181818;stroke-width:1.0;"/><line style="stroke:#181818;stroke-width:1.0;stroke-dasharray:2.0,2.0;" x1="411.6958" x2="575.8057" y1="178.2734" y2="178.2734"/><polygon fill="#181818" points="559.8057,204.625,569.8057,208.625,559.8057,212.625,563.8057,208.625" style="stroke:#181818;stroke-width:1.0;"/><line style="stroke:#181818;stroke-width:1.0;" x1="406.6958" x2="565.8057" y1="208.625" y2="208.625"/><text fill="#000000" font-family="sans-serif" font-size="13" lengthAdjust="spacing" textLength="74.2549" x="452.1233" y="203.7686">parse("alex")</text><polygon fill="#181818" points="417.6958,218.625,407.6958,222.625,417.6958,226.625,413.6958,222.625" style="stroke:#181818;stroke-width:1.0;"/><line style="stroke:#181818;stroke-width:1.0;stroke-dasharray:2.0,2.0;" x1="411.6958" x2="575.8057" y1="222.625" y2="222.625"/><polygon fill="#181818" points="559.8057,248.9766,569.8057,252.9766,559.8057,256.9766,563.8057,252.9766" style="stroke:#181818;stroke-width:1.0;"/><line style="stroke:#181818;stroke-width:1.0;" x1="406.6958" x2="565.8057" y1="252.9766" y2="252.9766"/><text fill="#000000" font-family="sans-serif" font-size="13" lengthAdjust="spacing" textLength="74.9849" x="451.7583" y="248.1201">parse("john")</text><polygon fill="#181818" points="668.7192,262.9766,678.7192,266.9766,668.7192,270.9766,672.7192,266.9766" style="stroke:#181818;stroke-width:1.0;"/><line style="stroke:#181818;stroke-width:1.0;" x1="581.8057" x2="674.7192" y1="266.9766" y2="266.9766"/><rect fill="#3333C4" height="31.6094" rx="2.5" ry="2.5" style="stroke:#181818;stroke-width:0.5;" width="177.4131" x="680.7192" y="260.9766"/><text fill="#FFFFFF" font-family="sans-serif" font-size="14" lengthAdjust="spacing" textLength="163.4131" x="687.7192" y="282.5098">epd:EditContactDescriptor</text><polygon fill="#181818" points="592.8057,305.5859,582.8057,309.5859,592.8057,313.5859,588.8057,309.5859" style="stroke:#181818;stroke-width:1.0;"/><line style="stroke:#181818;stroke-width:1.0;stroke-dasharray:2.0,2.0;" x1="586.8057" x2="768.4258" y1="309.5859" y2="309.5859"/><polygon fill="#181818" points="752.4258,335.9375,762.4258,339.9375,752.4258,343.9375,756.4258,339.9375" style="stroke:#181818;stroke-width:1.0;"/><line style="stroke:#181818;stroke-width:1.0;" x1="581.8057" x2="758.4258" y1="339.9375" y2="339.9375"/><text fill="#000000" font-family="sans-serif" font-size="13" lengthAdjust="spacing" textLength="59.8076" x="643.2119" y="335.0811">set("john")</text><polygon fill="#181818" points="592.8057,366.2891,582.8057,370.2891,592.8057,374.2891,588.8057,370.2891" style="stroke:#181818;stroke-width:1.0;"/><line style="stroke:#181818;stroke-width:1.0;stroke-dasharray:2.0,2.0;" x1="586.8057" x2="768.4258" y1="370.2891" y2="370.2891"/><text fill="#000000" font-family="sans-serif" font-size="13" lengthAdjust="spacing" textLength="21.6899" x="664.7708" y="365.4326">epd</text><polygon fill="#181818" points="876.1323,396.6406,886.1323,400.6406,876.1323,404.6406,880.1323,400.6406" style="stroke:#181818;stroke-width:1.0;"/><line style="stroke:#181818;stroke-width:1.0;" x1="581.8057" x2="882.1323" y1="400.6406" y2="400.6406"/><text fill="#000000" font-family="sans-serif" font-size="13" lengthAdjust="spacing" textLength="61.9912" x="703.9734" y="395.7842">"alex", epd</text><rect fill="#3333C4" height="31.6094" rx="2.5" ry="2.5" style="stroke:#181818;stroke-width:0.5;" width="121.3789" x="888.1323" y="378.2891"/><text fill="#FFFFFF" font-family="sans-serif" font-size="14" lengthAdjust="spacing" textLength="107.3789" x="895.1323" y="399.8223">ec:EditCommand</text><polygon fill="#181818" points="592.8057,422.8984,582.8057,426.8984,592.8057,430.8984,588.8057,426.8984" style="stroke:#181818;stroke-width:1.0;"/><line style="stroke:#181818;stroke-width:1.0;stroke-dasharray:2.0,2.0;" x1="586.8057" x2="947.8218" y1="426.8984" y2="426.8984"/><polygon fill="#181818" points="417.6958,453.25,407.6958,457.25,417.6958,461.25,413.6958,457.25" style="stroke:#181818;stroke-width:1.0;"/><line style="stroke:#181818;stroke-width:1.0;stroke-dasharray:2.0,2.0;" x1="411.6958" x2="575.8057" y1="457.25" y2="457.25"/><text fill="#000000" font-family="sans-serif" font-size="13" lengthAdjust="spacing" textLength="13.73" x="484.8857" y="452.3936">ec</text><line style="stroke:#A80036;stroke-width:2.0;" x1="567.8057" x2="585.8057" y1="462.25" y2="480.25"/><line style="stroke:#A80036;stroke-width:2.0;" x1="567.8057" x2="585.8057" y1="480.25" y2="462.25"/><polygon fill="#181818" points="190.8711,497.6016,180.8711,501.6016,190.8711,505.6016,186.8711,501.6016" style="stroke:#181818;stroke-width:1.0;"/><line style="stroke:#181818;stroke-width:1.0;stroke-dasharray:2.0,2.0;" x1="184.8711" x2="400.6958" y1="501.6016" y2="501.6016"/><text fill="#000000" font-family="sans-serif" font-size="13" lengthAdjust="spacing" textLength="13.73" x="283.9185" y="496.7451">ec</text><polygon fill="#181818" points="931.8218,527.9531,941.8218,531.9531,931.8218,535.9531,935.8218,531.9531" style="stroke:#181818;stroke-width:1.0;"/><line style="stroke:#181818;stroke-width:1.0;" x1="179.8711" x2="937.8218" y1="531.9531" y2="531.9531"/><text fill="#000000" font-family="sans-serif" font-size="13" lengthAdjust="spacing" textLength="65.019" x="529.3369" y="527.0967">execute(m)</text><polygon fill="#181818" points="1213.166,558.3047,1223.166,562.3047,1213.166,566.3047,1217.166,562.3047" style="stroke:#181818;stroke-width:1.0;"/><line style="stroke:#181818;stroke-width:1.0;" x1="953.8218" x2="1219.166" y1="562.3047" y2="562.3047"/><text fill="#000000" font-family="sans-serif" font-size="13" lengthAdjust="spacing" textLength="62.6958" x="1058.146" y="557.4482">edit("alex")</text><polygon fill="#181818" points="964.8218,572.3047,954.8218,576.3047,964.8218,580.3047,960.8218,576.3047" style="stroke:#181818;stroke-width:1.0;"/><line style="stroke:#181818;stroke-width:1.0;stroke-dasharray:2.0,2.0;" x1="958.8218" x2="1229.166" y1="576.3047" y2="576.3047"/><polygon fill="#181818" points="1027.5112,586.3047,1037.5112,590.3047,1027.5112,594.3047,1031.5112,590.3047" style="stroke:#181818;stroke-width:1.0;"/><line style="stroke:#181818;stroke-width:1.0;" x1="953.8218" x2="1033.5112" y1="590.3047" y2="590.3047"/><rect fill="#3333C4" height="31.6094" rx="2.5" ry="2.5" style="stroke:#181818;stroke-width:0.5;" width="126.8135" x="1039.5112" y="584.3047"/><text fill="#FFFFFF" font-family="sans-serif" font-size="14" lengthAdjust="spacing" textLength="112.8135" x="1046.5112" y="605.8379">r:CommandResult</text><polygon fill="#181818" points="964.8218,628.9141,954.8218,632.9141,964.8218,636.9141,960.8218,632.9141" style="stroke:#181818;stroke-width:1.0;"/><line style="stroke:#181818;stroke-width:1.0;stroke-dasharray:2.0,2.0;" x1="958.8218" x2="1101.918" y1="632.9141" y2="632.9141"/><polygon fill="#181818" points="190.8711,659.2656,180.8711,663.2656,190.8711,667.2656,186.8711,663.2656" style="stroke:#181818;stroke-width:1.0;"/><line style="stroke:#181818;stroke-width:1.0;stroke-dasharray:2.0,2.0;" x1="184.8711" x2="947.8218" y1="663.2656" y2="663.2656"/><text fill="#000000" font-family="sans-serif" font-size="13" lengthAdjust="spacing" textLength="4.3291" x="562.1819" y="658.4092">r</text><polygon fill="#181818" points="11,673.2656,1,677.2656,11,681.2656,7,677.2656" style="stroke:#181818;stroke-width:1.0;"/><line style="stroke:#181818;stroke-width:1.0;stroke-dasharray:2.0,2.0;" x1="5" x2="173.8711" y1="677.2656" y2="677.2656"/><!--SRC=[nLLBRzGm4BxxLmovj9L8gruZj5BP5gYqgqM5smfLtdZecatioFR2zjzZ9sdn8uc2E72pvl7DuviPl-6Yh8uCGPld2Y-ROrqHVU2YeOhMSAEK_FL12lF5QQ6fA1U4xEG9LlA9bx3QVBnVFYutgyt3uzThOfqCBtb3XO6iQ4tMLD0dL1bG3Rx0TutyRXXJgFLxAG-VgTAzSoATGBXZt2nbNLF1F8H4Eew03Uj1XA6bkKLTAjuOwGD5cWcmqayeJcNSJnMzoGFgOsLQnq0IkAA5iiHqxAmbmmhMczkxrGWxTT7QjA29zH-mRRu8QIi0JrWU3PvdQ8i0Mk49nDKFkHVP1R4TuJ-fmS27a0318gPS5j2uHr_UD7RYJKYfq6aIXaaQoOPFpLwnKnL9noOVAe4md4APbyXB7yupLxjVT0hvV_AAoHY03CY8jcGewyM8QHHZ62dUmdoGtwG7CTXVv6LxeT6CTU8VidIxrR0PkQRJFfL-TsKAw4RgRHjZYBwW1sCPZapJx2rnDPRJ8tdsYJE60gZxUy18QAJcXai1Pe_0K1ibdw6cwc3XTbWv8wjm9qj-Rvyzk7FPKNKvbDjstmRvDh8nNOnvwp9m8OCA1yvLV0z3ebuER7qnXwT5VxwjdnMdXwFL4j8PHQpwQVPs_Mm5_qmSC5I-8eHY4dvL4v4ZltWAe-QgqH7SlilpuD_n37tvRm00]--></g></svg>
