<svg xmlns="http://www.w3.org/2000/svg" contentStyleType="text/css" height="355px" preserveAspectRatio="none"
     style="width:696px;height:355px;background:#FFFFFF;" version="1.1" viewBox="0 0 696 355" width="696px"
     zoomAndPan="magnify"><defs/><g><rect fill="#C8C8FA" height="336.3281" style="stroke:#181818;stroke-width:0.5;" width="646.0176" x="44.8374" y="6"/><text fill="#FFFFFF" font-family="sans-serif" font-size="13" font-weight="bold" lengthAdjust="spacing" textLength="35.585" x="347.9114" y="18.5684">Logic</text><rect fill="#FFFFFF" height="242.2188" style="stroke:#181818;stroke-width:1.0;" width="10" x="110.292" y="88.1094"/><rect fill="#FFFFFF" height="84.7988" style="stroke:#181818;stroke-width:1.0;" width="10" x="280.5273" y="117.4199"/><rect fill="#FFFFFF" height="31.4883" style="stroke:#181818;stroke-width:1.0;" width="10" x="445.6055" y="141.4199"/><rect fill="#FFFFFF" height="84.7988" style="stroke:#181818;stroke-width:1.0;" width="10" x="445.6055" y="231.5293"/><rect fill="#FFFFFF" height="31.4883" style="stroke:#181818;stroke-width:1.0;" width="10" x="604.0664" y="255.5293"/><line style="stroke:#181818;stroke-width:0.5;stroke-dasharray:5.0,5.0;" x1="114.8374" x2="114.8374" y1="56.7988" y2="348.3281"/><line style="stroke:#181818;stroke-width:0.5;stroke-dasharray:5.0,5.0;" x1="285.1216" x2="285.1216" y1="56.7988" y2="348.3281"/><line style="stroke:#181818;stroke-width:0.5;stroke-dasharray:5.0,5.0;" x1="449.9331" x2="449.9331" y1="156.1641" y2="348.3281"/><line style="stroke:#181818;stroke-width:0.5;stroke-dasharray:5.0,5.0;" x1="608.2778" x2="608.2778" y1="270.2734" y2="348.3281"/><rect fill="#3333C4" height="30.4883" rx="2.5" ry="2.5" style="stroke:#181818;stroke-width:0.5;" width="112.9092" x="58.8374" y="25.3105"/><text fill="#FFFFFF" font-family="sans-serif" font-size="14" lengthAdjust="spacing" textLength="98.9092" x="65.8374" y="45.8457">:LogicManager</text><rect fill="#3333C4" height="30.4883" rx="2.5" ry="2.5" style="stroke:#181818;stroke-width:0.5;" width="148.8115" x="211.1216" y="25.3105"/><text fill="#FFFFFF" font-family="sans-serif" font-size="14" lengthAdjust="spacing" textLength="134.8115" x="218.1216" y="45.8457">:AddressBookParser</text><rect fill="#FFFFFF" height="242.2188" style="stroke:#181818;stroke-width:1.0;" width="10" x="110.292" y="88.1094"/><rect fill="#FFFFFF" height="84.7988" style="stroke:#181818;stroke-width:1.0;" width="10" x="280.5273" y="117.4199"/><rect fill="#FFFFFF" height="31.4883" style="stroke:#181818;stroke-width:1.0;" width="10" x="445.6055" y="141.4199"/><rect fill="#FFFFFF" height="84.7988" style="stroke:#181818;stroke-width:1.0;" width="10" x="445.6055" y="231.5293"/><rect fill="#FFFFFF" height="31.4883" style="stroke:#181818;stroke-width:1.0;" width="10" x="604.0664" y="255.5293"/><polygon fill="#181818" points="98.292,84.1094,108.292,88.1094,98.292,92.1094,102.292,88.1094" style="stroke:#181818;stroke-width:1.0;"/><line style="stroke:#181818;stroke-width:1.0;" x1="0" x2="104.292" y1="88.1094" y2="88.1094"/><text fill="#000000" font-family="sans-serif" font-size="13" lengthAdjust="spacing" textLength="91.292" x="9.5" y="83.3672">execute("exit")</text><polygon fill="#181818" points="268.5273,113.4199,278.5273,117.4199,268.5273,121.4199,272.5273,117.4199" style="stroke:#181818;stroke-width:1.0;"/><line style="stroke:#181818;stroke-width:1.0;" x1="120.292" x2="274.5273" y1="117.4199" y2="117.4199"/><text fill="#000000" font-family="sans-serif" font-size="13" lengthAdjust="spacing" textLength="141.2354" x="129.792" y="112.6777">parseCommand("exit")</text><polygon fill="#181818" points="377.9331,127.4199,387.9331,131.4199,377.9331,135.4199,381.9331,131.4199" style="stroke:#181818;stroke-width:1.0;"/><line style="stroke:#181818;stroke-width:1.0;" x1="290.5273" x2="383.9331" y1="131.4199" y2="131.4199"/><rect fill="#3333C4" height="30.4883" rx="2.5" ry="2.5" style="stroke:#181818;stroke-width:0.5;" width="121.3447" x="389.9331" y="125.4199"/><text fill="#FFFFFF" font-family="sans-serif" font-size="14" lengthAdjust="spacing" textLength="107.3447" x="396.9331" y="145.9551">e:ExitCommand</text><polygon fill="#181818" points="301.5273,168.9082,291.5273,172.9082,301.5273,176.9082,297.5273,172.9082" style="stroke:#181818;stroke-width:1.0;"/><line style="stroke:#181818;stroke-width:1.0;stroke-dasharray:2.0,2.0;" x1="295.5273" x2="449.6055" y1="172.9082" y2="172.9082"/><polygon fill="#181818" points="131.292,198.2188,121.292,202.2188,131.292,206.2188,127.292,202.2188" style="stroke:#181818;stroke-width:1.0;"/><line style="stroke:#181818;stroke-width:1.0;stroke-dasharray:2.0,2.0;" x1="125.292" x2="284.5273" y1="202.2188" y2="202.2188"/><text fill="#000000" font-family="sans-serif" font-size="13" lengthAdjust="spacing" textLength="7.2427" x="199.2883" y="197.4766">e</text><polygon fill="#181818" points="433.6055,227.5293,443.6055,231.5293,433.6055,235.5293,437.6055,231.5293" style="stroke:#181818;stroke-width:1.0;"/><line style="stroke:#181818;stroke-width:1.0;" x1="120.292" x2="439.6055" y1="231.5293" y2="231.5293"/><text fill="#000000" font-family="sans-serif" font-size="13" lengthAdjust="spacing" textLength="69.8813" x="248.0081" y="226.7871">execute(m)</text><polygon fill="#181818" points="529.2778,241.5293,539.2778,245.5293,529.2778,249.5293,533.2778,245.5293" style="stroke:#181818;stroke-width:1.0;"/><line style="stroke:#181818;stroke-width:1.0;" x1="455.6055" x2="535.2778" y1="245.5293" y2="245.5293"/><rect fill="#3333C4" height="30.4883" rx="2.5" ry="2.5" style="stroke:#181818;stroke-width:0.5;" width="135.5771" x="541.2778" y="239.5293"/><text fill="#FFFFFF" font-family="sans-serif" font-size="14" lengthAdjust="spacing" textLength="121.5771" x="548.2778" y="260.0645">r:CommandResult</text><polygon fill="#181818" points="466.6055,283.0176,456.6055,287.0176,466.6055,291.0176,462.6055,287.0176" style="stroke:#181818;stroke-width:1.0;"/><line style="stroke:#181818;stroke-width:1.0;stroke-dasharray:2.0,2.0;" x1="460.6055" x2="608.0664" y1="287.0176" y2="287.0176"/><polygon fill="#181818" points="131.292,312.3281,121.292,316.3281,131.292,320.3281,127.292,316.3281" style="stroke:#181818;stroke-width:1.0;"/><line style="stroke:#181818;stroke-width:1.0;stroke-dasharray:2.0,2.0;" x1="125.292" x2="449.6055" y1="316.3281" y2="316.3281"/><text fill="#000000" font-family="sans-serif" font-size="13" lengthAdjust="spacing" textLength="5.3193" x="282.7891" y="311.5859">r</text><polygon fill="#181818" points="11,326.3281,1,330.3281,11,334.3281,7,330.3281" style="stroke:#181818;stroke-width:1.0;"/><line style="stroke:#181818;stroke-width:1.0;stroke-dasharray:2.0,2.0;" x1="5" x2="114.292" y1="330.3281" y2="330.3281"/><!--SRC=[TP91QuGm48NlyojIJzs3XRrAMTXAMnOibcrlUrZIE2nXDP4ajlRVDufi9r5lPZBVctdFt4abwgv2PjrlZGzjrzHWhrArtF26xOtHFozQkO_XbhKrbmhWI_Uiq1SfM56-7l9pNXRbyVov1GyvAMJBbMD9DhQySSKlQ1B6BQC5YaRSlgeCMlkazVMT6pl1i-gw0cRFlNIvRXgkgX4cvtNCP5FB4MrNkn4CAW6ANie70N1ATw6pZ66FedDudw2Vcso02oU_kSEW3o2WlChSOiRQuMFQOgut8m24mU66E8QvhXz66svwj0Wqj7HvFQXmcLqOkH0JnHUinFdGXVv3RZOh-qz91BymDBMBBcywOHd2Lv16wH4J4HSd6Fatg_6T7jCqU2kaaTR_0000]--></g></svg>
