<svg xmlns="http://www.w3.org/2000/svg" contentStyleType="text/css" height="611px" preserveAspectRatio="none"
     style="width:1467px;height:611px;background:#FFFFFF;" version="1.1" viewBox="0 0 1467 611" width="1467px"
     zoomAndPan="magnify"><defs/><g><rect fill="#C8C8FA" height="592.5469" style="stroke:#181818;stroke-width:0.5;" width="1208.3159" x="150.2275" y="6"/><text fill="#FFFFFF" font-family="sans-serif" font-size="13" font-weight="bold" lengthAdjust="spacing" textLength="35.585" x="734.4507" y="18.5684">Logic</text><rect fill="#F97181" height="592.5469" style="stroke:#181818;stroke-width:0.5;" width="100.8164" x="1360.5435" y="6"/><text fill="#FFFFFF" font-family="sans-serif" font-size="13" font-weight="bold" lengthAdjust="spacing" textLength="40.5615" x="1388.5286" y="18.5684">Model</text><rect fill="#FFFFFF" height="498.4375" style="stroke:#181818;stroke-width:1.0;" width="10" x="215.6821" y="88.1094"/><rect fill="#FFFFFF" height="268.3965" style="stroke:#181818;stroke-width:1.0;" width="10" x="491.3076" y="117.4199"/><rect fill="#FFFFFF" height="31.4883" style="stroke:#181818;stroke-width:1.0;" width="10" x="675.2153" y="141.4199"/><rect fill="#FFFFFF" height="140.2871" style="stroke:#181818;stroke-width:1.0;" width="10" x="675.2153" y="202.2188"/><rect fill="#FFFFFF" height="31.4883" style="stroke:#181818;stroke-width:1.0;" width="10" x="899.6123" y="226.2188"/><rect fill="#FFFFFF" height="16.1777" style="stroke:#181818;stroke-width:1.0;" width="10" x="1109.2368" y="297.0176"/><rect fill="#FFFFFF" height="157.4199" style="stroke:#181818;stroke-width:1.0;" width="10" x="1109.2368" y="415.127"/><rect fill="#FFFFFF" height="31.4883" style="stroke:#181818;stroke-width:1.0;" width="10" x="1271.7549" y="511.748"/><rect fill="#FFFFFF" height="14" style="stroke:#181818;stroke-width:1.0;" width="10" x="1405.9517" y="473.748"/><line style="stroke:#181818;stroke-width:0.5;stroke-dasharray:5.0,5.0;" x1="220.2275" x2="220.2275" y1="56.7988" y2="604.5469"/><line style="stroke:#181818;stroke-width:0.5;stroke-dasharray:5.0,5.0;" x1="495.9019" x2="495.9019" y1="56.7988" y2="604.5469"/><line style="stroke:#181818;stroke-width:0.5;stroke-dasharray:5.0,5.0;" x1="679.7134" x2="679.7134" y1="156.1641" y2="604.5469"/><line style="stroke:#181818;stroke-width:0.5;stroke-dasharray:5.0,5.0;" x1="903.7173" x2="903.7173" y1="240.9629" y2="604.5469"/><line style="stroke:#181818;stroke-width:0.5;stroke-dasharray:5.0,5.0;" x1="1113.5073" x2="1113.5073" y1="296.4512" y2="604.5469"/><line style="stroke:#181818;stroke-width:0.5;stroke-dasharray:5.0,5.0;" x1="1275.9663" x2="1275.9663" y1="526.4922" y2="604.5469"/><line style="stroke:#181818;stroke-width:0.5;stroke-dasharray:5.0,5.0;" x1="1410.5435" x2="1410.5435" y1="56.7988" y2="604.5469"/><rect fill="#3333C4" height="30.4883" rx="2.5" ry="2.5" style="stroke:#181818;stroke-width:0.5;" width="112.9092" x="164.2275" y="25.3105"/><text fill="#FFFFFF" font-family="sans-serif" font-size="14" lengthAdjust="spacing" textLength="98.9092" x="171.2275" y="45.8457">:LogicManager</text><rect fill="#3333C4" height="30.4883" rx="2.5" ry="2.5" style="stroke:#181818;stroke-width:0.5;" width="148.8115" x="421.9019" y="25.3105"/><text fill="#FFFFFF" font-family="sans-serif" font-size="14" lengthAdjust="spacing" textLength="134.8115" x="428.9019" y="45.8457">:AddressBookParser</text><rect fill="#9D0012" height="30.4883" rx="2.5" ry="2.5" style="stroke:#181818;stroke-width:0.5;" width="72.8164" x="1374.5435" y="25.3105"/><text fill="#FFFFFF" font-family="sans-serif" font-size="14" lengthAdjust="spacing" textLength="58.8164" x="1381.5435" y="45.8457">m:Model</text><rect fill="#FFFFFF" height="498.4375" style="stroke:#181818;stroke-width:1.0;" width="10" x="215.6821" y="88.1094"/><rect fill="#FFFFFF" height="268.3965" style="stroke:#181818;stroke-width:1.0;" width="10" x="491.3076" y="117.4199"/><rect fill="#FFFFFF" height="31.4883" style="stroke:#181818;stroke-width:1.0;" width="10" x="675.2153" y="141.4199"/><rect fill="#FFFFFF" height="140.2871" style="stroke:#181818;stroke-width:1.0;" width="10" x="675.2153" y="202.2188"/><rect fill="#FFFFFF" height="31.4883" style="stroke:#181818;stroke-width:1.0;" width="10" x="899.6123" y="226.2188"/><rect fill="#FFFFFF" height="16.1777" style="stroke:#181818;stroke-width:1.0;" width="10" x="1109.2368" y="297.0176"/><rect fill="#FFFFFF" height="157.4199" style="stroke:#181818;stroke-width:1.0;" width="10" x="1109.2368" y="415.127"/><rect fill="#FFFFFF" height="31.4883" style="stroke:#181818;stroke-width:1.0;" width="10" x="1271.7549" y="511.748"/><rect fill="#FFFFFF" height="14" style="stroke:#181818;stroke-width:1.0;" width="10" x="1405.9517" y="473.748"/><polygon fill="#181818" points="203.6821,84.1094,213.6821,88.1094,203.6821,92.1094,207.6821,88.1094" style="stroke:#181818;stroke-width:1.0;"/><line style="stroke:#181818;stroke-width:1.0;" x1="0" x2="209.6821" y1="88.1094" y2="88.1094"/><text fill="#000000" font-family="sans-serif" font-size="13" lengthAdjust="spacing" textLength="196.6821" x="9.5" y="83.3672">execute("find n/john r/Admin")</text><polygon fill="#181818" points="479.3076,113.4199,489.3076,117.4199,479.3076,121.4199,483.3076,117.4199" style="stroke:#181818;stroke-width:1.0;"/><line style="stroke:#181818;stroke-width:1.0;" x1="225.6821" x2="485.3076" y1="117.4199" y2="117.4199"/><text fill="#000000" font-family="sans-serif" font-size="13" lengthAdjust="spacing" textLength="246.6255" x="235.1821" y="112.6777">parseCommand("find n/john r/Admin")</text><polygon fill="#181818" points="588.7134,127.4199,598.7134,131.4199,588.7134,135.4199,592.7134,131.4199" style="stroke:#181818;stroke-width:1.0;"/><line style="stroke:#181818;stroke-width:1.0;" x1="501.3076" x2="594.7134" y1="131.4199" y2="131.4199"/><rect fill="#3333C4" height="30.4883" rx="2.5" ry="2.5" style="stroke:#181818;stroke-width:0.5;" width="159.0039" x="600.7134" y="125.4199"/><text fill="#FFFFFF" font-family="sans-serif" font-size="14" lengthAdjust="spacing" textLength="145.0039" x="607.7134" y="145.9551">:FindCommandParser</text><polygon fill="#181818" points="512.3076,168.9082,502.3076,172.9082,512.3076,176.9082,508.3076,172.9082" style="stroke:#181818;stroke-width:1.0;"/><line style="stroke:#181818;stroke-width:1.0;stroke-dasharray:2.0,2.0;" x1="506.3076" x2="679.2153" y1="172.9082" y2="172.9082"/><polygon fill="#181818" points="663.2153,198.2188,673.2153,202.2188,663.2153,206.2188,667.2153,202.2188" style="stroke:#181818;stroke-width:1.0;"/><line style="stroke:#181818;stroke-width:1.0;" x1="501.3076" x2="669.2153" y1="202.2188" y2="202.2188"/><text fill="#000000" font-family="sans-serif" font-size="13" lengthAdjust="spacing" textLength="153.042" x="511.7405" y="197.4766">parse("n/john r/Admin")</text><polygon fill="#181818" points="777.7173,212.2188,787.7173,216.2188,777.7173,220.2188,781.7173,216.2188" style="stroke:#181818;stroke-width:1.0;"/><line style="stroke:#181818;stroke-width:1.0;" x1="685.2153" x2="783.7173" y1="216.2188" y2="216.2188"/><rect fill="#3333C4" height="30.4883" rx="2.5" ry="2.5" style="stroke:#181818;stroke-width:0.5;" width="229.79" x="789.7173" y="210.2188"/><text fill="#FFFFFF" font-family="sans-serif" font-size="14" lengthAdjust="spacing" textLength="215.79" x="796.7173" y="230.7539">ckp:ContainsKeywordsPredicate</text><polygon fill="#181818" points="696.2153,253.707,686.2153,257.707,696.2153,261.707,692.2153,257.707" style="stroke:#181818;stroke-width:1.0;"/><line style="stroke:#181818;stroke-width:1.0;stroke-dasharray:2.0,2.0;" x1="690.2153" x2="903.6123" y1="257.707" y2="257.707"/><polygon fill="#181818" points="1037.5073,283.0176,1047.5073,287.0176,1037.5073,291.0176,1041.5073,287.0176" style="stroke:#181818;stroke-width:1.0;"/><line style="stroke:#181818;stroke-width:1.0;" x1="685.2153" x2="1043.5073" y1="287.0176" y2="287.0176"/><text fill="#000000" font-family="sans-serif" font-size="13" lengthAdjust="spacing" textLength="22.439" x="856.1418" y="282.2754">ckp</text><rect fill="#3333C4" height="30.4883" rx="2.5" ry="2.5" style="stroke:#181818;stroke-width:0.5;" width="129.459" x="1049.5073" y="265.707"/><text fill="#FFFFFF" font-family="sans-serif" font-size="14" lengthAdjust="spacing" textLength="115.459" x="1056.5073" y="286.2422">fc:FindCommand</text><polygon fill="#181818" points="696.2153,309.1953,686.2153,313.1953,696.2153,317.1953,692.2153,313.1953" style="stroke:#181818;stroke-width:1.0;"/><line style="stroke:#181818;stroke-width:1.0;stroke-dasharray:2.0,2.0;" x1="690.2153" x2="1113.2368" y1="313.1953" y2="313.1953"/><polygon fill="#181818" points="512.3076,338.5059,502.3076,342.5059,512.3076,346.5059,508.3076,342.5059" style="stroke:#181818;stroke-width:1.0;"/><line style="stroke:#181818;stroke-width:1.0;stroke-dasharray:2.0,2.0;" x1="506.3076" x2="679.2153" y1="342.5059" y2="342.5059"/><text fill="#000000" font-family="sans-serif" font-size="13" lengthAdjust="spacing" textLength="11.4385" x="585.0422" y="337.7637">fc</text><line style="stroke:#A80036;stroke-width:2.0;" x1="671.2153" x2="689.2153" y1="347.5059" y2="365.5059"/><line style="stroke:#A80036;stroke-width:2.0;" x1="671.2153" x2="689.2153" y1="365.5059" y2="347.5059"/><polygon fill="#181818" points="236.6821,381.8164,226.6821,385.8164,236.6821,389.8164,232.6821,385.8164" style="stroke:#181818;stroke-width:1.0;"/><line style="stroke:#181818;stroke-width:1.0;stroke-dasharray:2.0,2.0;" x1="230.6821" x2="495.3076" y1="385.8164" y2="385.8164"/><text fill="#000000" font-family="sans-serif" font-size="13" lengthAdjust="spacing" textLength="11.4385" x="355.2756" y="381.0742">fc</text><polygon fill="#181818" points="1097.2368,411.127,1107.2368,415.127,1097.2368,419.127,1101.2368,415.127" style="stroke:#181818;stroke-width:1.0;"/><line style="stroke:#181818;stroke-width:1.0;" x1="225.6821" x2="1103.2368" y1="415.127" y2="415.127"/><text fill="#000000" font-family="sans-serif" font-size="13" lengthAdjust="spacing" textLength="69.8813" x="632.5188" y="410.3848">execute(m)</text><polygon fill="#181818" points="1398.9517,440.4375,1408.9517,444.4375,1398.9517,448.4375,1402.9517,444.4375" style="stroke:#181818;stroke-width:1.0;"/><line style="stroke:#181818;stroke-width:1.0;" x1="1119.2368" x2="1404.9517" y1="444.4375" y2="444.4375"/><text fill="#000000" font-family="sans-serif" font-size="13" lengthAdjust="spacing" textLength="192.7339" x="1168.7273" y="439.6953">updateFilteredContactList(ckp)</text><polygon fill="#181818" points="1393.9517,469.748,1403.9517,473.748,1393.9517,477.748,1397.9517,473.748" style="stroke:#181818;stroke-width:1.0;"/><line style="stroke:#181818;stroke-width:1.0;" x1="1119.2368" x2="1399.9517" y1="473.748" y2="473.748"/><text fill="#000000" font-family="sans-serif" font-size="13" lengthAdjust="spacing" textLength="146.7896" x="1189.1995" y="469.0059">getFilteredContactList()</text><polygon fill="#181818" points="1130.2368,483.748,1120.2368,487.748,1130.2368,491.748,1126.2368,487.748" style="stroke:#181818;stroke-width:1.0;"/><line style="stroke:#181818;stroke-width:1.0;stroke-dasharray:2.0,2.0;" x1="1124.2368" x2="1409.9517" y1="487.748" y2="487.748"/><polygon fill="#181818" points="1196.9663,497.748,1206.9663,501.748,1196.9663,505.748,1200.9663,501.748" style="stroke:#181818;stroke-width:1.0;"/><line style="stroke:#181818;stroke-width:1.0;" x1="1119.2368" x2="1202.9663" y1="501.748" y2="501.748"/><rect fill="#3333C4" height="30.4883" rx="2.5" ry="2.5" style="stroke:#181818;stroke-width:0.5;" width="135.5771" x="1208.9663" y="495.748"/><text fill="#FFFFFF" font-family="sans-serif" font-size="14" lengthAdjust="spacing" textLength="121.5771" x="1215.9663" y="516.2832">r:CommandResult</text><polygon fill="#181818" points="1130.2368,539.2363,1120.2368,543.2363,1130.2368,547.2363,1126.2368,543.2363" style="stroke:#181818;stroke-width:1.0;"/><line style="stroke:#181818;stroke-width:1.0;stroke-dasharray:2.0,2.0;" x1="1124.2368" x2="1275.7549" y1="543.2363" y2="543.2363"/><polygon fill="#181818" points="236.6821,568.5469,226.6821,572.5469,236.6821,576.5469,232.6821,572.5469" style="stroke:#181818;stroke-width:1.0;"/><line style="stroke:#181818;stroke-width:1.0;stroke-dasharray:2.0,2.0;" x1="230.6821" x2="1113.2368" y1="572.5469" y2="572.5469"/><text fill="#000000" font-family="sans-serif" font-size="13" lengthAdjust="spacing" textLength="5.3193" x="667.2998" y="567.8047">r</text><polygon fill="#181818" points="11,582.5469,1,586.5469,11,590.5469,7,586.5469" style="stroke:#181818;stroke-width:1.0;"/><line style="stroke:#181818;stroke-width:1.0;stroke-dasharray:2.0,2.0;" x1="5" x2="219.6821" y1="586.5469" y2="586.5469"/><!--SRC=[ZLJ1Zjem4BtxAwQv50xigjUeGgAqj5M3M6rxGzNAs0Eu97Pac-xoztL2bdLYctApPjwycV6RcNT2ilB84OmzbNXN7wkIc8EGDTMqWfdMwdcXfFtPUA4kgP24RDGB56ed61Ihhz_dJ_DLiNfy-lM1k20hcAYfj93bBMH99TsXpe0Qy0r-w21knhb6OpufTNYWsdJ1WVKAmq98FbTLHINt609hce4TwdpksdRjcXzuUbQQcmUDN31giILBUjEaM-ONDYmf7QVp3lA8vbZQBhrdwOMYet82dLLQAeubB5UVlnG9bQgynRIa0VgDR3sPzkNB0L-G7IsEigrh0kJz7xMNeEzdl18o6nFAhFZR_eSNHaYFn966ikPGDu-km__I1mI4C8sD9z2RXCbS1I7imXswI3X4arWNXECrbjiAUVsAKPPkFqBUjP-Sq5WFqolmIwuq9BqDa-WFUx-J9ete62_Ttw8StEv6lwUdNRmko1EwtQoxoxzbryL__qrmZX9eSrl1AgYL4LOe2NQFmD5OhKvGKNrmT1ii6v1pDAkejksp8sz2DbJVnMfRxzialnEpUSvnss26cz_lCBA0moNl2_HwEAhnBJfDkxEKmx7c3heGfKKt8-tSC5i8OqTEyd4oR8Ss5kCbRv64d0C6W-5tsk4k- -MTu67oljCRTjzC-bVyIkP1t72G1_hev1IlFquclNli0NtxFm00]--></g></svg>
