<svg xmlns="http://www.w3.org/2000/svg" contentStyleType="text/css" height="483px" preserveAspectRatio="none"
     style="width:908px;height:483px;background:#FFFFFF;" version="1.1" viewBox="0 0 908 483" width="908px"
     zoomAndPan="magnify"><defs/><g><rect fill="#C8C8FA" height="464.4375" style="stroke:#181818;stroke-width:0.5;" width="853.8789" x="48.2524" y="6"/><text fill="#FFFFFF" font-family="sans-serif" font-size="13" font-weight="bold" lengthAdjust="spacing" textLength="35.585" x="455.2571" y="18.5684">Logic</text><rect fill="#FFFFFF" height="370.3281" style="stroke:#181818;stroke-width:1.0;" width="10" x="113.707" y="88.1094"/><rect fill="#FFFFFF" height="212.9082" style="stroke:#181818;stroke-width:1.0;" width="10" x="287.3574" y="117.4199"/><rect fill="#FFFFFF" height="31.4883" style="stroke:#181818;stroke-width:1.0;" width="10" x="472.2119" y="141.4199"/><rect fill="#FFFFFF" height="84.7988" style="stroke:#181818;stroke-width:1.0;" width="10" x="472.2119" y="202.2188"/><rect fill="#FFFFFF" height="31.4883" style="stroke:#181818;stroke-width:1.0;" width="10" x="650.1074" y="226.2188"/><rect fill="#FFFFFF" height="84.7988" style="stroke:#181818;stroke-width:1.0;" width="10" x="650.1074" y="359.6387"/><rect fill="#FFFFFF" height="31.4883" style="stroke:#181818;stroke-width:1.0;" width="10" x="815.3428" y="383.6387"/><line style="stroke:#181818;stroke-width:0.5;stroke-dasharray:5.0,5.0;" x1="118.2524" x2="118.2524" y1="56.7988" y2="476.4375"/><line style="stroke:#181818;stroke-width:0.5;stroke-dasharray:5.0,5.0;" x1="291.9517" x2="291.9517" y1="56.7988" y2="476.4375"/><line style="stroke:#181818;stroke-width:0.5;stroke-dasharray:5.0,5.0;" x1="476.7632" x2="476.7632" y1="156.1641" y2="476.4375"/><line style="stroke:#181818;stroke-width:0.5;stroke-dasharray:5.0,5.0;" x1="654.6606" x2="654.6606" y1="240.9629" y2="476.4375"/><line style="stroke:#181818;stroke-width:0.5;stroke-dasharray:5.0,5.0;" x1="819.5542" x2="819.5542" y1="398.3828" y2="476.4375"/><rect fill="#3333C4" height="30.4883" rx="2.5" ry="2.5" style="stroke:#181818;stroke-width:0.5;" width="112.9092" x="62.2524" y="25.3105"/><text fill="#FFFFFF" font-family="sans-serif" font-size="14" lengthAdjust="spacing" textLength="98.9092" x="69.2524" y="45.8457">:LogicManager</text><rect fill="#3333C4" height="30.4883" rx="2.5" ry="2.5" style="stroke:#181818;stroke-width:0.5;" width="148.8115" x="217.9517" y="25.3105"/><text fill="#FFFFFF" font-family="sans-serif" font-size="14" lengthAdjust="spacing" textLength="134.8115" x="224.9517" y="45.8457">:AddressBookParser</text><rect fill="#FFFFFF" height="370.3281" style="stroke:#181818;stroke-width:1.0;" width="10" x="113.707" y="88.1094"/><rect fill="#FFFFFF" height="212.9082" style="stroke:#181818;stroke-width:1.0;" width="10" x="287.3574" y="117.4199"/><rect fill="#FFFFFF" height="31.4883" style="stroke:#181818;stroke-width:1.0;" width="10" x="472.2119" y="141.4199"/><rect fill="#FFFFFF" height="84.7988" style="stroke:#181818;stroke-width:1.0;" width="10" x="472.2119" y="202.2188"/><rect fill="#FFFFFF" height="31.4883" style="stroke:#181818;stroke-width:1.0;" width="10" x="650.1074" y="226.2188"/><rect fill="#FFFFFF" height="84.7988" style="stroke:#181818;stroke-width:1.0;" width="10" x="650.1074" y="359.6387"/><rect fill="#FFFFFF" height="31.4883" style="stroke:#181818;stroke-width:1.0;" width="10" x="815.3428" y="383.6387"/><polygon fill="#181818" points="101.707,84.1094,111.707,88.1094,101.707,92.1094,105.707,88.1094" style="stroke:#181818;stroke-width:1.0;"/><line style="stroke:#181818;stroke-width:1.0;" x1="0" x2="107.707" y1="88.1094" y2="88.1094"/><text fill="#000000" font-family="sans-serif" font-size="13" lengthAdjust="spacing" textLength="94.707" x="9.5" y="83.3672">execute("help")</text><polygon fill="#181818" points="275.3574,113.4199,285.3574,117.4199,275.3574,121.4199,279.3574,117.4199" style="stroke:#181818;stroke-width:1.0;"/><line style="stroke:#181818;stroke-width:1.0;" x1="123.707" x2="281.3574" y1="117.4199" y2="117.4199"/><text fill="#000000" font-family="sans-serif" font-size="13" lengthAdjust="spacing" textLength="144.6504" x="133.207" y="112.6777">parseCommand("help")</text><polygon fill="#181818" points="384.7632,127.4199,394.7632,131.4199,384.7632,135.4199,388.7632,131.4199" style="stroke:#181818;stroke-width:1.0;"/><line style="stroke:#181818;stroke-width:1.0;" x1="297.3574" x2="390.7632" y1="131.4199" y2="131.4199"/><rect fill="#3333C4" height="30.4883" rx="2.5" ry="2.5" style="stroke:#181818;stroke-width:0.5;" width="160.8975" x="396.7632" y="125.4199"/><text fill="#FFFFFF" font-family="sans-serif" font-size="14" lengthAdjust="spacing" textLength="146.8975" x="403.7632" y="145.9551">:HelpCommandParser</text><polygon fill="#181818" points="308.3574,168.9082,298.3574,172.9082,308.3574,176.9082,304.3574,172.9082" style="stroke:#181818;stroke-width:1.0;"/><line style="stroke:#181818;stroke-width:1.0;stroke-dasharray:2.0,2.0;" x1="302.3574" x2="476.2119" y1="172.9082" y2="172.9082"/><polygon fill="#181818" points="460.2119,198.2188,470.2119,202.2188,460.2119,206.2188,464.2119,202.2188" style="stroke:#181818;stroke-width:1.0;"/><line style="stroke:#181818;stroke-width:1.0;" x1="297.3574" x2="466.2119" y1="202.2188" y2="202.2188"/><text fill="#000000" font-family="sans-serif" font-size="13" lengthAdjust="spacing" textLength="43.0054" x="363.282" y="197.4766">parse()</text><polygon fill="#181818" points="575.6606,212.2188,585.6606,216.2188,575.6606,220.2188,579.6606,216.2188" style="stroke:#181818;stroke-width:1.0;"/><line style="stroke:#181818;stroke-width:1.0;" x1="482.2119" x2="581.6606" y1="216.2188" y2="216.2188"/><rect fill="#3333C4" height="30.4883" rx="2.5" ry="2.5" style="stroke:#181818;stroke-width:0.5;" width="134.8936" x="587.6606" y="210.2188"/><text fill="#FFFFFF" font-family="sans-serif" font-size="14" lengthAdjust="spacing" textLength="120.8936" x="594.6606" y="230.7539">hc:HelpCommand</text><polygon fill="#181818" points="493.2119,253.707,483.2119,257.707,493.2119,261.707,489.2119,257.707" style="stroke:#181818;stroke-width:1.0;"/><line style="stroke:#181818;stroke-width:1.0;stroke-dasharray:2.0,2.0;" x1="487.2119" x2="654.1074" y1="257.707" y2="257.707"/><polygon fill="#181818" points="308.3574,283.0176,298.3574,287.0176,308.3574,291.0176,304.3574,287.0176" style="stroke:#181818;stroke-width:1.0;"/><line style="stroke:#181818;stroke-width:1.0;stroke-dasharray:2.0,2.0;" x1="302.3574" x2="476.2119" y1="287.0176" y2="287.0176"/><text fill="#000000" font-family="sans-serif" font-size="13" lengthAdjust="spacing" textLength="14.7266" x="379.9214" y="282.2754">hc</text><line style="stroke:#A80036;stroke-width:2.0;" x1="468.2119" x2="486.2119" y1="292.0176" y2="310.0176"/><line style="stroke:#A80036;stroke-width:2.0;" x1="468.2119" x2="486.2119" y1="310.0176" y2="292.0176"/><polygon fill="#181818" points="134.707,326.3281,124.707,330.3281,134.707,334.3281,130.707,330.3281" style="stroke:#181818;stroke-width:1.0;"/><line style="stroke:#181818;stroke-width:1.0;stroke-dasharray:2.0,2.0;" x1="128.707" x2="291.3574" y1="330.3281" y2="330.3281"/><text fill="#000000" font-family="sans-serif" font-size="13" lengthAdjust="spacing" textLength="14.7266" x="200.6689" y="325.5859">hc</text><polygon fill="#181818" points="638.1074,355.6387,648.1074,359.6387,638.1074,363.6387,642.1074,359.6387" style="stroke:#181818;stroke-width:1.0;"/><line style="stroke:#181818;stroke-width:1.0;" x1="123.707" x2="644.1074" y1="359.6387" y2="359.6387"/><text fill="#000000" font-family="sans-serif" font-size="13" lengthAdjust="spacing" textLength="69.8813" x="351.9666" y="354.8965">execute(m)</text><polygon fill="#181818" points="740.5542,369.6387,750.5542,373.6387,740.5542,377.6387,744.5542,373.6387" style="stroke:#181818;stroke-width:1.0;"/><line style="stroke:#181818;stroke-width:1.0;" x1="660.1074" x2="746.5542" y1="373.6387" y2="373.6387"/><rect fill="#3333C4" height="30.4883" rx="2.5" ry="2.5" style="stroke:#181818;stroke-width:0.5;" width="135.5771" x="752.5542" y="367.6387"/><text fill="#FFFFFF" font-family="sans-serif" font-size="14" lengthAdjust="spacing" textLength="121.5771" x="759.5542" y="388.1738">r:CommandResult</text><polygon fill="#181818" points="671.1074,411.127,661.1074,415.127,671.1074,419.127,667.1074,415.127" style="stroke:#181818;stroke-width:1.0;"/><line style="stroke:#181818;stroke-width:1.0;stroke-dasharray:2.0,2.0;" x1="665.1074" x2="819.3428" y1="415.127" y2="415.127"/><polygon fill="#181818" points="134.707,440.4375,124.707,444.4375,134.707,448.4375,130.707,444.4375" style="stroke:#181818;stroke-width:1.0;"/><line style="stroke:#181818;stroke-width:1.0;stroke-dasharray:2.0,2.0;" x1="128.707" x2="654.1074" y1="444.4375" y2="444.4375"/><text fill="#000000" font-family="sans-serif" font-size="13" lengthAdjust="spacing" textLength="5.3193" x="386.7476" y="439.6953">r</text><polygon fill="#181818" points="11,454.4375,1,458.4375,11,462.4375,7,458.4375" style="stroke:#181818;stroke-width:1.0;"/><line style="stroke:#181818;stroke-width:1.0;stroke-dasharray:2.0,2.0;" x1="5" x2="117.707" y1="458.4375" y2="458.4375"/><!--SRC=[ZLHDRy8m3BtdLsIz30v5shMQa1ZInYGc9hORcb18F1hH9bKIDlZtIxkEvQEjk5MstulVizqRBcXnP82rEHSmgOvbWVI1YueeKkAPKlBxKGhpLcTnLH0k4Dh94rxAFQTukNfwdc_dg-LglNs_GnPaEEKL4GOdMLFoGWJPWqemqTWDkD00DsDCWTOFKXvUYT8jE8eEC2oWgEQoB8bW3aCKxMV8gSiHeljnAcjBrg2FXMc0NiI3WgMoNYAqIQU-EHc64z2ZWL6IstUJCIBKy2zYmAj3o4DPbjYb35VrHzj5p1SX4A8Awapa5uhPxPDnsOKxJg5u26bNsuZ14CjrZVnf7uq7MuhbTdNfyNVoUU8QMHqTzGYxsXYhAQV3xjmkE6CWCAcF5nk9AwcvuL9WamDce8sIPrmITR1qEoZg8fkejr5-DfyjUGtP4JNfwcsJDuzyz0plzuth9XSllw-mOqF3jNUD_x-TSjmpftRYtcNwmvi6oGkF7qR-SGSpTqK4k71J0WDKxvfixjFK-mKuXMxy1m00]--></g></svg>