<svg xmlns="http://www.w3.org/2000/svg" contentStyleType="text/css" height="512px" preserveAspectRatio="none"
     style="width:1100px;height:512px;background:#FFFFFF;" version="1.1" viewBox="0 0 1100 512" width="1100px"
     zoomAndPan="magnify"><defs/><g><rect fill="#C8C8FA" height="493.748" style="stroke:#181818;stroke-width:0.5;" width="826.8687" x="40.0068" y="6"/><text fill="#FFFFFF" font-family="sans-serif" font-size="13" font-weight="bold" lengthAdjust="spacing" textLength="35.585" x="433.5063" y="18.5684">Logic</text><rect fill="#F97181" height="493.748" style="stroke:#181818;stroke-width:0.5;" width="100.8164" x="993.9648" y="6"/><text fill="#FFFFFF" font-family="sans-serif" font-size="13" font-weight="bold" lengthAdjust="spacing" textLength="40.5615" x="1021.95" y="18.5684">Model</text><rect fill="#FFFFFF" height="399.6387" style="stroke:#181818;stroke-width:1.0;" width="10" x="105.4614" y="88.1094"/><rect fill="#FFFFFF" height="212.9082" style="stroke:#181818;stroke-width:1.0;" width="10" x="270.8662" y="117.4199"/><rect fill="#FFFFFF" height="31.4883" style="stroke:#181818;stroke-width:1.0;" width="10" x="452.1899" y="141.4199"/><rect fill="#FFFFFF" height="84.7988" style="stroke:#181818;stroke-width:1.0;" width="10" x="452.1899" y="202.2188"/><rect fill="#FFFFFF" height="31.4883" style="stroke:#181818;stroke-width:1.0;" width="10" x="620.7031" y="226.2188"/><rect fill="#FFFFFF" height="114.1094" style="stroke:#181818;stroke-width:1.0;" width="10" x="620.7031" y="359.6387"/><rect fill="#FFFFFF" height="31.4883" style="stroke:#181818;stroke-width:1.0;" width="10" x="780.0869" y="412.9492"/><line style="stroke:#181818;stroke-width:0.5;stroke-dasharray:5.0,5.0;" x1="110.0068" x2="110.0068" y1="56.7988" y2="505.748"/><line style="stroke:#181818;stroke-width:0.5;stroke-dasharray:5.0,5.0;" x1="275.4604" x2="275.4604" y1="56.7988" y2="505.748"/><line style="stroke:#181818;stroke-width:0.5;stroke-dasharray:5.0,5.0;" x1="456.272" x2="456.272" y1="156.1641" y2="505.748"/><line style="stroke:#181818;stroke-width:0.5;stroke-dasharray:5.0,5.0;" x1="625.1079" x2="625.1079" y1="240.9629" y2="505.748"/><line style="stroke:#181818;stroke-width:0.5;stroke-dasharray:5.0,5.0;" x1="784.2983" x2="784.2983" y1="427.6934" y2="505.748"/><line style="stroke:#181818;stroke-width:0.5;stroke-dasharray:5.0,5.0;" x1="1043.9648" x2="1043.9648" y1="56.7988" y2="505.748"/><rect fill="#3333C4" height="30.4883" rx="2.5" ry="2.5" style="stroke:#181818;stroke-width:0.5;" width="112.9092" x="54.0068" y="25.3105"/><text fill="#FFFFFF" font-family="sans-serif" font-size="14" lengthAdjust="spacing" textLength="98.9092" x="61.0068" y="45.8457">:LogicManager</text><rect fill="#3333C4" height="30.4883" rx="2.5" ry="2.5" style="stroke:#181818;stroke-width:0.5;" width="148.8115" x="201.4604" y="25.3105"/><text fill="#FFFFFF" font-family="sans-serif" font-size="14" lengthAdjust="spacing" textLength="134.8115" x="208.4604" y="45.8457">:AddressBookParser</text><rect fill="#9D0012" height="30.4883" rx="2.5" ry="2.5" style="stroke:#181818;stroke-width:0.5;" width="72.8164" x="1007.9648" y="25.3105"/><text fill="#FFFFFF" font-family="sans-serif" font-size="14" lengthAdjust="spacing" textLength="58.8164" x="1014.9648" y="45.8457">m:Model</text><rect fill="#FFFFFF" height="399.6387" style="stroke:#181818;stroke-width:1.0;" width="10" x="105.4614" y="88.1094"/><rect fill="#FFFFFF" height="212.9082" style="stroke:#181818;stroke-width:1.0;" width="10" x="270.8662" y="117.4199"/><rect fill="#FFFFFF" height="31.4883" style="stroke:#181818;stroke-width:1.0;" width="10" x="452.1899" y="141.4199"/><rect fill="#FFFFFF" height="84.7988" style="stroke:#181818;stroke-width:1.0;" width="10" x="452.1899" y="202.2188"/><rect fill="#FFFFFF" height="31.4883" style="stroke:#181818;stroke-width:1.0;" width="10" x="620.7031" y="226.2188"/><rect fill="#FFFFFF" height="114.1094" style="stroke:#181818;stroke-width:1.0;" width="10" x="620.7031" y="359.6387"/><rect fill="#FFFFFF" height="31.4883" style="stroke:#181818;stroke-width:1.0;" width="10" x="780.0869" y="412.9492"/><polygon fill="#181818" points="93.4614,84.1094,103.4614,88.1094,93.4614,92.1094,97.4614,88.1094" style="stroke:#181818;stroke-width:1.0;"/><line style="stroke:#181818;stroke-width:1.0;" x1="0" x2="99.4614" y1="88.1094" y2="88.1094"/><text fill="#000000" font-family="sans-serif" font-size="13" lengthAdjust="spacing" textLength="86.4614" x="9.5" y="83.3672">execute("list")</text><polygon fill="#181818" points="258.8662,113.4199,268.8662,117.4199,258.8662,121.4199,262.8662,117.4199" style="stroke:#181818;stroke-width:1.0;"/><line style="stroke:#181818;stroke-width:1.0;" x1="115.4614" x2="264.8662" y1="117.4199" y2="117.4199"/><text fill="#000000" font-family="sans-serif" font-size="13" lengthAdjust="spacing" textLength="136.4048" x="124.9614" y="112.6777">parseCommand("list")</text><polygon fill="#181818" points="368.272,127.4199,378.272,131.4199,368.272,135.4199,372.272,131.4199" style="stroke:#181818;stroke-width:1.0;"/><line style="stroke:#181818;stroke-width:1.0;" x1="280.8662" x2="374.272" y1="131.4199" y2="131.4199"/><rect fill="#3333C4" height="30.4883" rx="2.5" ry="2.5" style="stroke:#181818;stroke-width:0.5;" width="153.8359" x="380.272" y="125.4199"/><text fill="#FFFFFF" font-family="sans-serif" font-size="14" lengthAdjust="spacing" textLength="139.8359" x="387.272" y="145.9551">:ListCommandParser</text><polygon fill="#181818" points="291.8662,168.9082,281.8662,172.9082,291.8662,176.9082,287.8662,172.9082" style="stroke:#181818;stroke-width:1.0;"/><line style="stroke:#181818;stroke-width:1.0;stroke-dasharray:2.0,2.0;" x1="285.8662" x2="456.1899" y1="172.9082" y2="172.9082"/><polygon fill="#181818" points="440.1899,198.2188,450.1899,202.2188,440.1899,206.2188,444.1899,202.2188" style="stroke:#181818;stroke-width:1.0;"/><line style="stroke:#181818;stroke-width:1.0;" x1="280.8662" x2="446.1899" y1="202.2188" y2="202.2188"/><text fill="#000000" font-family="sans-serif" font-size="13" lengthAdjust="spacing" textLength="43.0054" x="345.0254" y="197.4766">parse()</text><polygon fill="#181818" points="552.1079,212.2188,562.1079,216.2188,552.1079,220.2188,556.1079,216.2188" style="stroke:#181818;stroke-width:1.0;"/><line style="stroke:#181818;stroke-width:1.0;" x1="462.1899" x2="558.1079" y1="216.2188" y2="216.2188"/><rect fill="#3333C4" height="30.4883" rx="2.5" ry="2.5" style="stroke:#181818;stroke-width:0.5;" width="123.1904" x="564.1079" y="210.2188"/><text fill="#FFFFFF" font-family="sans-serif" font-size="14" lengthAdjust="spacing" textLength="109.1904" x="571.1079" y="230.7539">lc:ListCommand</text><polygon fill="#181818" points="473.1899,253.707,463.1899,257.707,473.1899,261.707,469.1899,257.707" style="stroke:#181818;stroke-width:1.0;"/><line style="stroke:#181818;stroke-width:1.0;stroke-dasharray:2.0,2.0;" x1="467.1899" x2="624.7031" y1="257.707" y2="257.707"/><polygon fill="#181818" points="291.8662,283.0176,281.8662,287.0176,291.8662,291.0176,287.8662,287.0176" style="stroke:#181818;stroke-width:1.0;"/><line style="stroke:#181818;stroke-width:1.0;stroke-dasharray:2.0,2.0;" x1="285.8662" x2="456.1899" y1="287.0176" y2="287.0176"/><text fill="#000000" font-family="sans-serif" font-size="13" lengthAdjust="spacing" textLength="10.4165" x="363.8198" y="282.2754">lc</text><line style="stroke:#A80036;stroke-width:2.0;" x1="448.1899" x2="466.1899" y1="292.0176" y2="310.0176"/><line style="stroke:#A80036;stroke-width:2.0;" x1="448.1899" x2="466.1899" y1="310.0176" y2="292.0176"/><polygon fill="#181818" points="126.4614,326.3281,116.4614,330.3281,126.4614,334.3281,122.4614,330.3281" style="stroke:#181818;stroke-width:1.0;"/><line style="stroke:#181818;stroke-width:1.0;stroke-dasharray:2.0,2.0;" x1="120.4614" x2="274.8662" y1="330.3281" y2="330.3281"/><text fill="#000000" font-family="sans-serif" font-size="13" lengthAdjust="spacing" textLength="10.4165" x="190.4556" y="325.5859">lc</text><polygon fill="#181818" points="608.7031,355.6387,618.7031,359.6387,608.7031,363.6387,612.7031,359.6387" style="stroke:#181818;stroke-width:1.0;"/><line style="stroke:#181818;stroke-width:1.0;" x1="115.4614" x2="614.7031" y1="359.6387" y2="359.6387"/><text fill="#000000" font-family="sans-serif" font-size="13" lengthAdjust="spacing" textLength="69.8813" x="333.1416" y="354.8965">execute(m)</text><polygon fill="#181818" points="1032.373,384.9492,1042.373,388.9492,1032.373,392.9492,1036.373,388.9492" style="stroke:#181818;stroke-width:1.0;"/><line style="stroke:#181818;stroke-width:1.0;" x1="630.7031" x2="1038.373" y1="388.9492" y2="388.9492"/><text fill="#000000" font-family="sans-serif" font-size="13" lengthAdjust="spacing" textLength="389.6699" x="642.7031" y="384.207">updateFilteredContactList(PREDICATE_SHOW_ALL_CONTACTS)</text><polygon fill="#181818" points="705.2983,398.9492,715.2983,402.9492,705.2983,406.9492,709.2983,402.9492" style="stroke:#181818;stroke-width:1.0;"/><line style="stroke:#181818;stroke-width:1.0;" x1="630.7031" x2="711.2983" y1="402.9492" y2="402.9492"/><rect fill="#3333C4" height="30.4883" rx="2.5" ry="2.5" style="stroke:#181818;stroke-width:0.5;" width="135.5771" x="717.2983" y="396.9492"/><text fill="#FFFFFF" font-family="sans-serif" font-size="14" lengthAdjust="spacing" textLength="121.5771" x="724.2983" y="417.4844">r:CommandResult</text><polygon fill="#181818" points="641.7031,440.4375,631.7031,444.4375,641.7031,448.4375,637.7031,444.4375" style="stroke:#181818;stroke-width:1.0;"/><line style="stroke:#181818;stroke-width:1.0;stroke-dasharray:2.0,2.0;" x1="635.7031" x2="784.0869" y1="444.4375" y2="444.4375"/><polygon fill="#181818" points="126.4614,469.748,116.4614,473.748,126.4614,477.748,122.4614,473.748" style="stroke:#181818;stroke-width:1.0;"/><line style="stroke:#181818;stroke-width:1.0;stroke-dasharray:2.0,2.0;" x1="120.4614" x2="624.7031" y1="473.748" y2="473.748"/><text fill="#000000" font-family="sans-serif" font-size="13" lengthAdjust="spacing" textLength="5.3193" x="367.9226" y="469.0059">r</text><polygon fill="#181818" points="11,483.748,1,487.748,11,491.748,7,487.748" style="stroke:#181818;stroke-width:1.0;"/><line style="stroke:#181818;stroke-width:1.0;stroke-dasharray:2.0,2.0;" x1="5" x2="109.4614" y1="487.748" y2="487.748"/><!--SRC=[ZLJ1Rjim3BthAxXSbXnIO5TZAE2vwLh0cOiam0x142WMrmgH9KEIj_Rl9xbUOrbsa9j0lVT4FbByn6Kf6ePWx9l0cxgf134dBckgQGMfrkhllP9sws-X5fHBGexg5NBrp4l8Y- -FsI4hyc9ps7qXZcHvoMigBSoI5hAcaZwZdW4rq0_qgGDUofX6OxufTNgYsdJaA7f18UV6Pgggg6GzXIWwhI3AliQGFStJIGVPe6c4ROb19A2Yat9UlXkwLWm5h8kxLJvXQ9Mqc5OqGf_5zilRqEa4y1NBnk9y9bmHimMXfUL_gCK0HqZ0SYgnvGdK_j2L5Ej5349AZUrBG_D9hEuJZs3dNACh4dTqEPOsONX9vRf4_jS-NrnCAIvtBCj0VrGlAAujQoIZYSAkDiRL9ChBxdn-u8oX1Eet0LW5jJBSSYN1lY0mD5QhDwYeFZcv8meFSXT-6jNlzjY9UygHwfkntFOlxIE_9fht_iPrdOk7FwnmP4A7Ozyt_lntgiKrVRhjVcO2JSqSz9uBYnfPvdQeetli_6cpkdlCqjtgi7qeVXxIt7_X7xiqssqN7mCKR8tX6-7bHrfXc8IBPp12VKy6l6ZmGZ_rvDJjlowNmKRf0tlnVm00]--></g></svg>
