<svg xmlns="http://www.w3.org/2000/svg" xmlns:xlink="http://www.w3.org/1999/xlink" contentStyleType="text/css" height="626px" preserveAspectRatio="none" style="width:536px;height:626px;background:#FFFFFF;" version="1.1" viewBox="0 0 536 626" width="536px" zoomAndPan="magnify"><defs/><g><!--cluster LogicPackage--><g id="cluster_LogicPackage"><rect fill="#FFFFFF" height="539" rx="2.5" ry="2.5" style="stroke:#000000;stroke-width:1.0;" width="295" x="7" y="81"/><text fill="#000000" font-family="sans-serif" font-size="16" font-weight="bold" lengthAdjust="spacing" textLength="42.6641" x="133.168" y="99.6094">Logic</text></g><!--cluster Model--><g id="cluster_Model"><rect fill="#FFFFFF" height="98" rx="2.5" ry="2.5" style="stroke:#000000;stroke-width:1.0;" width="161" x="353" y="416"/><text fill="#000000" font-family="sans-serif" font-size="16" font-weight="bold" lengthAdjust="spacing" textLength="46.2188" x="410.3906" y="434.6094">Model</text></g><!--class XYZCommand--><g id="elem_XYZCommand"><rect codeLine="10" fill="#3333C4" height="27.2485" id="XYZCommand" rx="2.5" ry="2.5" style="stroke:#FFFFFF;stroke-width:1.0;" width="104.3643" x="178" y="577"/><text fill="#FFFFFF" font-family="Arial" font-size="15" lengthAdjust="spacing" textLength="98.3643" x="181" y="596.0698">XYZCommand</text></g><!--class CommandResult--><g id="elem_CommandResult"><rect codeLine="11" fill="#3333C4" height="27.2485" id="CommandResult" rx="2.5" ry="2.5" style="stroke:#FFFFFF;stroke-width:1.0;" width="117.709" x="168" y="300.5"/><text fill="#FFFFFF" font-family="Arial" font-size="15" lengthAdjust="spacing" textLength="111.709" x="171" y="319.5698">CommandResult</text></g><!--class Command--><g id="elem_Command"><rect codeLine="12" fill="#3333C4" height="44.4971" id="Command" rx="2.5" ry="2.5" style="stroke:#FFFFFF;stroke-width:1.0;" width="75.1919" x="192.5" y="454.5"/><text fill="#FFFFFF" font-family="Arial" font-size="15" lengthAdjust="spacing" textLength="63.3765" x="198.4077" y="473.5698">{abstract}</text><text fill="#FFFFFF" font-family="Arial" font-size="15" lengthAdjust="spacing" textLength="69.1919" x="195.5" y="490.8184">Command</text></g><!--class Logic--><g id="elem_Logic"><rect codeLine="15" fill="#3333C4" height="44.4971" id="Logic" rx="2.5" ry="2.5" style="stroke:#FFFFFF;stroke-width:1.0;" width="80.2163" x="206" y="120"/><text fill="#FFFFFF" font-family="Arial" font-size="15" lengthAdjust="spacing" textLength="74.2163" x="209" y="139.0698">&#171;interface&#187;</text><text fill="#FFFFFF" font-family="Arial" font-size="15" lengthAdjust="spacing" textLength="35.8594" x="228.1785" y="156.3184">Logic</text></g><!--class LogicManager--><g id="elem_LogicManager"><rect codeLine="16" fill="#3333C4" height="27.2485" id="LogicManager" rx="2.5" ry="2.5" style="stroke:#FFFFFF;stroke-width:1.0;" width="101.061" x="69.5" y="128.5"/><text fill="#FFFFFF" font-family="Arial" font-size="15" lengthAdjust="spacing" textLength="95.061" x="72.5" y="147.5698">LogicManager</text></g><rect fill="#FFFFFF" height="60.25" rx="2.5" ry="2.5" style="stroke:#181818;stroke-width:1.0;" width="134.7578" x="23.5" y="194"/><text fill="#000000" font-family="sans-serif" font-size="16" font-weight="bold" lengthAdjust="spacing" textLength="114.7578" x="33.5" y="212.6094">Parser Classes</text><!--class HiddenModel--><g id="elem_HiddenModel"><rect codeLine="20" fill="#FFFFFF" height="27.2485" id="HiddenModel" rx="2.5" ry="2.5" style="stroke:#FFFFFF;stroke-width:1.0;" width="94.3887" x="396" y="463"/><text fill="#FFFFFF" font-family="Arial" font-size="15" lengthAdjust="spacing" textLength="88.3887" x="399" y="482.0698">HiddenModel</text></g><rect fill="#FFFFFF" height="60.25" rx="2.5" ry="2.5" style="stroke:#181818;stroke-width:1.0;" width="79.5703" x="321" y="284"/><text fill="#000000" font-family="sans-serif" font-size="16" font-weight="bold" lengthAdjust="spacing" textLength="59.5703" x="331" y="302.6094">Storage</text><!--class HiddenOutside--><g id="elem_HiddenOutside"><rect codeLine="26" fill="#FFFFFF" height="27.2485" id="HiddenOutside" rx="2.5" ry="2.5" style="stroke:#FFFFFF;stroke-width:1.0;" width="105.2285" x="193.5" y="7"/><text fill="#FFFFFF" font-family="Arial" font-size="15" lengthAdjust="spacing" textLength="99.2285" x="196.5" y="26.0698">HiddenOutside</text></g><g id="elem_GMN27"><path d="M318.5,569 L318.5,586.5 L282.29,590.5 L318.5,594.5 L318.5,611.7031 A0,0 0 0 0 318.5,611.7031 L529.8853,611.7031 A0,0 0 0 0 529.8853,611.7031 L529.8853,579 L519.8853,569 L318.5,569 A0,0 0 0 0 318.5,569 " fill="#FEFFDD" style="stroke:#181818;stroke-width:0.5;"/><path d="M519.8853,569 L519.8853,579 L529.8853,579 L519.8853,569 " fill="#FEFFDD" style="stroke:#181818;stroke-width:0.5;"/><text fill="#000000" font-family="sans-serif" font-size="13" lengthAdjust="spacing" textLength="186.7734" x="324.5" y="587.4951">XYZCommand = AddCommand,</text><text fill="#000000" font-family="sans-serif" font-size="13" lengthAdjust="spacing" textLength="109.8208" x="364.7822" y="603.8467">FindCommand, etc</text></g><!--link HiddenOutside to Logic--><g id="link_HiddenOutside_Logic"><path codeLine="27" d="M246,34.29 C246,54.76 246,89.1 246,113.89 " fill="none" id="HiddenOutside-to-Logic" style="stroke:#101086;stroke-width:1.1;stroke-dasharray:7.0,7.0;"/><polygon fill="#101086" points="246,119.89,250,110.89,246,114.89,242,110.89,246,119.89" style="stroke:#101086;stroke-width:1.1;"/></g><!--link LogicManager to Logic--><g id="link_LogicManager_Logic"><path codeLine="29" d="M170.7,142 C182.46,142 176.23,142 187.99,142 " fill="none" id="LogicManager-to-Logic" style="stroke:#101086;stroke-width:1.1;stroke-dasharray:7.0,7.0;"/><polygon fill="none" points="205.99,142,187.99,136,187.99,148,205.99,142" style="stroke:#101086;stroke-width:1.1;"/></g><!--link LogicManager to ParserClasses--><g id="link_LogicManager_ParserClasses"><path codeLine="30" d="M115.34,155.85 C111.63,166.1 108.327,175.21 103.587,188.27 " fill="none" id="LogicManager-to-ParserClasses" style="stroke:#101086;stroke-width:1.1;"/><polygon fill="#101086" points="101.54,193.91,108.3705,186.8146,103.2458,189.21,100.8505,184.0853,101.54,193.91" style="stroke:#101086;stroke-width:1.1;"/><text fill="#000000" font-family="sans-serif" font-size="13" font-weight="bold" lengthAdjust="spacing" textLength="7.23" x="96.1316" y="183.084">1</text></g><!--link ParserClasses to XYZCommand--><g id="link_ParserClasses_XYZCommand"><path codeLine="31" d="M78.44,254.14 C65.66,288.09 49.84,345.47 66,392 C95.1,475.78 173.3683,544.9099 208.8683,573.2099 " fill="none" id="ParserClasses-to-XYZCommand" style="stroke:#101086;stroke-width:1.1;stroke-dasharray:7.0,7.0;"/><polygon fill="#101086" points="213.56,576.95,209.0159,568.2121,209.6503,573.8332,204.0291,574.4676,213.56,576.95" style="stroke:#101086;stroke-width:1.1;"/><text fill="#000000" font-family="sans-serif" font-size="13" font-weight="bold" lengthAdjust="spacing" textLength="52.7681" x="67" y="388.4951">&#171;create&#187;</text></g><!--reverse link Command to XYZCommand--><g id="link_Command_XYZCommand"><path codeLine="33" d="M230,516.57 C230,539.63 230,557.86 230,576.88 " fill="none" id="Command-backto-XYZCommand" style="stroke:#101086;stroke-width:1.1;"/><polygon fill="none" points="230,498.57,224,516.57,236,516.57,230,498.57" style="stroke:#101086;stroke-width:1.1;"/></g><!--reverse link Command to LogicManager--><g id="link_Command_LogicManager"><path codeLine="34" d="M196.7446,450.5472 C167.8946,427.2172 129.82,390.55 112,344 C102.46,319.1 99.07,307.32 112,284 C124.2,262 147.8,276 160,254 C172.93,230.68 168.71,219.21 160,194 C154.86,179.11 143.38,165.25 134.03,155.75 " fill="none" id="Command-backto-LogicManager" style="stroke:#101086;stroke-width:1.1;stroke-dasharray:7.0,7.0;"/><polygon fill="#101086" points="201.41,454.32,196.927,445.5506,197.5221,451.176,191.8967,451.7711,201.41,454.32" style="stroke:#101086;stroke-width:1.1;"/><text fill="#000000" font-family="sans-serif" font-size="13" font-weight="bold" lengthAdjust="spacing" textLength="36.1436" x="113" y="319.4951">&#171;call&#187;</text></g><!--link LogicManager to Model--><g id="link_LogicManager_Model"><path codeLine="36" d="M160.11,155.59 C235.08,180.07 391.4,235.9 419,284 C432.27,307.13 426.73,318.48 419,344 C411.57,368.54 402.59,371.64 387,392 C384.13,395.75 382.19,395.82 380,400 C378.055,403.7113 376.3025,407.6308 374.7244,411.6537 C374.3299,412.6595 373.9462,413.6717 373.5732,414.6887 C373.48,414.943 373.3874,415.1975 373.2955,415.4523 C373.2495,415.5798 375.2249,410.0579 375.1793,410.1855 " fill="none" id="LogicManager-to-Model" style="stroke:#101086;stroke-width:1.1;"/><polygon fill="#101086" points="373.1581,415.8348,379.9561,408.7083,374.8424,411.127,372.4237,406.0134,373.1581,415.8348" style="stroke:#101086;stroke-width:1.1;"/></g><!--link LogicManager to Storage--><g id="link_LogicManager_Storage"><path codeLine="37" d="M140.35,155.67 C156.44,165.79 179.37,180.48 199,194 C242.1,223.7 285.5181,255.8392 318.0581,280.3592 " fill="none" id="LogicManager-to-Storage" style="stroke:#101086;stroke-width:1.1;"/><polygon fill="#101086" points="322.85,283.97,318.0694,275.3592,318.8568,280.961,313.255,281.7483,322.85,283.97" style="stroke:#101086;stroke-width:1.1;"/></g><!--link Storage to Model--><!--reverse link Storage to Command--><!--link Command to Model--><g id="link_Command_Model"><path codeLine="40" d="M267.61,476.5 C283.115,476.5 298.62,476.5 314.125,476.5 C321.8775,476.5 329.63,476.5 337.3825,476.5 C341.2587,476.5 345.135,476.5 349.0113,476.5 C349.9803,476.5 350.9494,476.5 351.9184,476.5 C352.1607,476.5 346.403,476.5 346.6452,476.5 " fill="none" id="Command-to-Model" style="stroke:#101086;stroke-width:1.1;stroke-dasharray:7.0,7.0;"/><polygon fill="#101086" points="352.6452,476.5,343.6452,472.5,347.6452,476.5,343.6452,480.5,352.6452,476.5" style="stroke:#101086;stroke-width:1.1;"/></g><!--link Logic to CommandResult--><g id="link_Logic_CommandResult"><path codeLine="43" d="M243.63,164.19 C239.63,199.97 232.3262,265.3371 229.0862,294.3371 " fill="none" id="Logic-to-CommandResult" style="stroke:#101086;stroke-width:1.1;stroke-dasharray:7.0,7.0;"/><polygon fill="#101086" points="228.42,300.3,233.3946,291.7998,228.9752,295.3309,225.444,290.9115,228.42,300.3" style="stroke:#101086;stroke-width:1.1;"/></g><!--link LogicManager to CommandResult--><g id="link_LogicManager_CommandResult"><path codeLine="44" d="M136.78,155.85 C148.39,165.4 163.56,179.27 174,194 C198.84,229.06 214.1867,271.9106 221.3867,294.6206 " fill="none" id="LogicManager-to-CommandResult" style="stroke:#101086;stroke-width:1.1;stroke-dasharray:7.0,7.0;"/><polygon fill="#101086" points="223.2,300.34,224.293,290.552,221.6889,295.5738,216.6671,292.9697,223.2,300.34" style="stroke:#101086;stroke-width:1.1;"/></g><!--reverse link CommandResult to Command--><g id="link_CommandResult_Command"><path codeLine="45" d="M227.3516,333.589 C227.8616,361.009 228.97,420.35 229.6,454.26 " fill="none" id="CommandResult-backto-Command" style="stroke:#101086;stroke-width:1.1;stroke-dasharray:7.0,7.0;"/><polygon fill="#101086" points="227.24,327.59,223.4081,336.6628,227.333,332.5891,231.4067,336.5141,227.24,327.59" style="stroke:#101086;stroke-width:1.1;"/><text fill="#000000" font-family="sans-serif" font-size="13" font-weight="bold" lengthAdjust="spacing" textLength="52.7681" x="229" y="388.4951">&#171;create&#187;</text></g><!--SRC=[PL9TQyCW57ttLxZiTH4AUofPO0jq6xIaT7lOHqTnqQPIeq4DPNJzxqkD9d7Da_USSw_d7dF5HC4RGg4sFvoYkgauq7icQgnm1R5Iyl2wOyLUKAtX14t-avdaKi5v_lYSRR9ydgyshxSZJS6nrW-us9TADe9Sg06eMnAN5CvboGg8TNTOElGu2A8bLfegc9r7KXsTjHtaa2Cu0Nk4R-yVcQmgB8W3NBMYkk76OT4HVskZS65EQ-44TgXl1LwO94mOghQue6cw5jPWr5jrAdjUOD5QLQsHtlP24ihRFJhL4oE4YWwxdjblB7unKdLhdq3GaJT6i_QLV4-88fGwBs1i0oB5ofr1lvuDoDYISHfDeZ1745Hs-10edC8aAHJ5fiq2W14HDtNStkJJ2urmkZMe9xiXcFFpYD1Kd7Q9NS8k6-0pYkFFdKtXotNuuSZZJOs6jfxjCl7N26aej12Ksz6Uq_7ET_2U45VSmBMOCJ6KrFZORLJXhnQcGEH1N4XwOzPkm0LX_m40]--></g></svg>
