<svg xmlns="http://www.w3.org/2000/svg" xmlns:xlink="http://www.w3.org/1999/xlink" contentStyleType="text/css" height="569px" preserveAspectRatio="none" style="width:662px;height:569px;background:#FFFFFF;" version="1.1" viewBox="0 0 662 569" width="662px" zoomAndPan="magnify"><defs/><g><!--cluster ModelPackage--><g id="cluster_ModelPackage"><rect fill="#FFFFFF" height="505" rx="2.5" ry="2.5" style="stroke:#181818;stroke-width:1.0;" width="649" x="7" y="58"/><text fill="#000000" font-family="sans-serif" font-size="14" font-weight="bold" lengthAdjust="spacing" textLength="40.4414" x="311.2793" y="74.5332">Model</text></g><!--class ReadOnlyAddressBook--><g id="elem_ReadOnlyAddressBook"><rect codeLine="7" fill="#9D0012" height="44.4971" id="ReadOnlyAddressBook" rx="2.5" ry="2.5" style="stroke:#FFFFFF;stroke-width:1.0;" width="161.918" x="148" y="94"/><text fill="#FFFFFF" font-family="Arial" font-size="15" lengthAdjust="spacing" textLength="74.2163" x="191.8508" y="113.0698">&#171;interface&#187;</text><text fill="#FFFFFF" font-family="Arial" font-size="15" lengthAdjust="spacing" textLength="155.918" x="151" y="130.3184">ReadOnlyAddressBook</text></g><!--class ReadOnlyUserPrefs--><g id="elem_ReadOnlyUserPrefs"><rect codeLine="8" fill="#9D0012" height="44.4971" id="ReadOnlyUserPrefs" rx="2.5" ry="2.5" style="stroke:#FFFFFF;stroke-width:1.0;" width="139.3813" x="460.5" y="94"/><text fill="#FFFFFF" font-family="Arial" font-size="15" lengthAdjust="spacing" textLength="74.2163" x="493.0825" y="113.0698">&#171;interface&#187;</text><text fill="#FFFFFF" font-family="Arial" font-size="15" lengthAdjust="spacing" textLength="133.3813" x="463.5" y="130.3184">ReadOnlyUserPrefs</text></g><!--class Model--><g id="elem_Model"><rect codeLine="9" fill="#9D0012" height="44.4971" id="Model" rx="2.5" ry="2.5" style="stroke:#FFFFFF;stroke-width:1.0;" width="80.2163" x="345" y="94"/><text fill="#FFFFFF" font-family="Arial" font-size="15" lengthAdjust="spacing" textLength="74.2163" x="348" y="113.0698">&#171;interface&#187;</text><text fill="#FFFFFF" font-family="Arial" font-size="15" lengthAdjust="spacing" textLength="40.8545" x="364.6809" y="130.3184">Model</text></g><!--class AddressBook--><g id="elem_AddressBook"><rect codeLine="10" fill="#9D0012" height="27.2485" id="AddressBook" rx="2.5" ry="2.5" style="stroke:#FFFFFF;stroke-width:1.0;" width="95.2163" x="181.5" y="198"/><text fill="#FFFFFF" font-family="Arial" font-size="15" lengthAdjust="spacing" textLength="89.2163" x="184.5" y="217.0698">AddressBook</text></g><!--class ModelManager--><g id="elem_ModelManager"><rect codeLine="11" fill="#9D0012" height="27.2485" id="ModelManager" rx="2.5" ry="2.5" style="stroke:#FFFFFF;stroke-width:1.0;" width="106.0562" x="337" y="198"/><text fill="#FFFFFF" font-family="Arial" font-size="15" lengthAdjust="spacing" textLength="100.0562" x="340" y="217.0698">ModelManager</text></g><!--class UserPrefs--><g id="elem_UserPrefs"><rect codeLine="12" fill="#9D0012" height="27.2485" id="UserPrefs" rx="2.5" ry="2.5" style="stroke:#FFFFFF;stroke-width:1.0;" width="72.6797" x="488.5" y="198"/><text fill="#FFFFFF" font-family="Arial" font-size="15" lengthAdjust="spacing" textLength="66.6797" x="491.5" y="217.0698">UserPrefs</text></g><!--class UniquePersonList--><g id="elem_UniquePersonList"><rect codeLine="14" fill="#9D0012" height="27.2485" id="UniquePersonList" rx="2.5" ry="2.5" style="stroke:#FFFFFF;stroke-width:1.0;" width="124.4033" x="154" y="285"/><text fill="#FFFFFF" font-family="Arial" font-size="15" lengthAdjust="spacing" textLength="118.4033" x="157" y="304.0698">UniquePersonList</text></g><!--class Person--><g id="elem_Person"><rect codeLine="15" fill="#9D0012" height="27.2485" id="Person" rx="2.5" ry="2.5" style="stroke:#FFFFFF;stroke-width:1.0;" width="53.5269" x="311" y="433"/><text fill="#FFFFFF" font-family="Arial" font-size="15" lengthAdjust="spacing" textLength="47.5269" x="314" y="452.0698">Person</text></g><!--class Name--><g id="elem_Name"><rect codeLine="16" fill="#9D0012" height="27.2485" id="Name" rx="2.5" ry="2.5" style="stroke:#FFFFFF;stroke-width:1.0;" width="50" x="23" y="520"/><text fill="#FFFFFF" font-family="Arial" font-size="15" lengthAdjust="spacing" textLength="40.0122" x="27.9939" y="539.0698">Name</text></g><!--class TelegramHandle--><g id="elem_TelegramHandle"><rect codeLine="17" fill="#9D0012" height="27.2485" id="TelegramHandle" rx="2.5" ry="2.5" style="stroke:#FFFFFF;stroke-width:1.0;" width="116.8887" x="108.5" y="520"/><text fill="#FFFFFF" font-family="Arial" font-size="15" lengthAdjust="spacing" textLength="110.8887" x="111.5" y="539.0698">TelegramHandle</text></g><!--class Email--><g id="elem_Email"><rect codeLine="18" fill="#9D0012" height="27.2485" id="Email" rx="2.5" ry="2.5" style="stroke:#FFFFFF;stroke-width:1.0;" width="50" x="261" y="520"/><text fill="#FFFFFF" font-family="Arial" font-size="15" lengthAdjust="spacing" textLength="37.5073" x="267.2463" y="539.0698">Email</text></g><!--class Role--><g id="elem_Role"><rect codeLine="19" fill="#9D0012" height="27.2485" id="Role" rx="2.5" ry="2.5" style="stroke:#FFFFFF;stroke-width:1.0;" width="50" x="481" y="520"/><text fill="#FFFFFF" font-family="Arial" font-size="15" lengthAdjust="spacing" textLength="30.8496" x="490.5752" y="539.0698">Role</text></g><!--class StudentStatus--><g id="elem_StudentStatus"><rect codeLine="20" fill="#9D0012" height="27.2485" id="StudentStatus" rx="2.5" ry="2.5" style="stroke:#FFFFFF;stroke-width:1.0;" width="100.2334" x="346" y="520"/><text fill="#FFFFFF" font-family="Arial" font-size="15" lengthAdjust="spacing" textLength="94.2334" x="349" y="539.0698">StudentStatus</text></g><!--class Nickname--><g id="elem_Nickname"><rect codeLine="21" fill="#9D0012" height="27.2485" id="Nickname" rx="2.5" ry="2.5" style="stroke:#FFFFFF;stroke-width:1.0;" width="72.687" x="566.5" y="520"/><text fill="#FFFFFF" font-family="Arial" font-size="15" lengthAdjust="spacing" textLength="66.687" x="569.5" y="539.0698">Nickname</text></g><!--class I--><g id="elem_I"><rect codeLine="23" fill="#FFFFFF" height="27.2485" id="I" rx="2.5" ry="2.5" style="stroke:#FFFFFF;stroke-width:1.0;" width="50" x="313" y="285"/><text fill="#FFFFFF" font-family="Arial" font-size="15" lengthAdjust="spacing" textLength="4.1675" x="335.9163" y="304.0698">I</text></g><!--class HiddenOutside--><g id="elem_HiddenOutside"><rect codeLine="26" fill="#FFFFFF" height="27.2485" id="HiddenOutside" rx="2.5" ry="2.5" style="stroke:#FFFFFF;stroke-width:1.0;" width="105.2285" x="332.5" y="7"/><text fill="#FFFFFF" font-family="Arial" font-size="15" lengthAdjust="spacing" textLength="99.2285" x="335.5" y="26.0698">HiddenOutside</text></g><!--link HiddenOutside to Model--><g id="link_HiddenOutside_Model"><path codeLine="27" d="M385,34.11 C385,49.36 385,69.28 385,87.66 " fill="none" id="HiddenOutside-to-Model" style="stroke:#9D0012;stroke-width:1.1;stroke-dasharray:7.0,7.0;"/><polygon fill="#9D0012" points="385,93.66,389,84.66,385,88.66,381,84.66,385,93.66" style="stroke:#9D0012;stroke-width:1.1;"/></g><!--reverse link ReadOnlyAddressBook to AddressBook--><g id="link_ReadOnlyAddressBook_AddressBook"><path codeLine="29" d="M229,156.22 C229,174.64 229,182.7 229,197.98 " fill="none" id="ReadOnlyAddressBook-backto-AddressBook" style="stroke:#9D0012;stroke-width:1.1;stroke-dasharray:7.0,7.0;"/><polygon fill="none" points="229,138.22,223,156.22,235,156.22,229,138.22" style="stroke:#9D0012;stroke-width:1.1;"/></g><!--reverse link Model to ModelManager--><g id="link_Model_ModelManager"><path codeLine="31" d="M387.096,156.1941 C388.086,174.6141 388.51,182.7 389.33,197.98 " fill="none" id="Model-backto-ModelManager" style="stroke:#9D0012;stroke-width:1.1;stroke-dasharray:7.0,7.0;"/><polygon fill="none" points="386.13,138.22,381.1047,156.5161,393.0874,155.872,386.13,138.22" style="stroke:#9D0012;stroke-width:1.1;"/></g><!--link Model to ReadOnlyUserPrefs--><g id="link_Model_ReadOnlyUserPrefs"><path codeLine="32" d="M425.21,116 C436.95,116 442.68,116 454.42,116 " fill="none" id="Model-to-ReadOnlyUserPrefs" style="stroke:#9D0012;stroke-width:1.1;stroke-dasharray:7.0,7.0;"/><polygon fill="#9D0012" points="460.42,116,451.42,112,455.42,116,451.42,120,460.42,116" style="stroke:#9D0012;stroke-width:1.1;"/></g><!--reverse link ReadOnlyAddressBook to Model--><g id="link_ReadOnlyAddressBook_Model"><path codeLine="33" d="M316.05,116 C327.66,116 333.27,116 344.89,116 " fill="none" id="ReadOnlyAddressBook-backto-Model" style="stroke:#9D0012;stroke-width:1.1;stroke-dasharray:7.0,7.0;"/><polygon fill="#9D0012" points="310.05,116,319.05,120,315.05,116,319.05,112,310.05,116" style="stroke:#9D0012;stroke-width:1.1;"/></g><!--reverse link AddressBook to ModelManager--><g id="link_AddressBook_ModelManager"><path codeLine="34" d="M282.8,211.5 C302.84,211.5 316.89,211.5 336.94,211.5 " fill="none" id="AddressBook-backto-ModelManager" style="stroke:#9D0012;stroke-width:1.1;"/><polygon fill="#9D0012" points="276.8,211.5,285.8,215.5,281.8,211.5,285.8,207.5,276.8,211.5" style="stroke:#9D0012;stroke-width:1.1;"/><text fill="#000000" font-family="sans-serif" font-size="13" font-weight="bold" lengthAdjust="spacing" textLength="7.23" x="284.6564" y="207.778">1</text></g><!--link ModelManager to UserPrefs--><g id="link_ModelManager_UserPrefs"><path codeLine="35" d="M443.26,211.5 C458.27,211.5 467.27,211.5 482.28,211.5 " fill="none" id="ModelManager-to-UserPrefs" style="stroke:#9D0012;stroke-width:1.1;"/><polygon fill="#9D0012" points="488.28,211.5,479.28,207.5,483.28,211.5,479.28,215.5,488.28,211.5" style="stroke:#9D0012;stroke-width:1.1;"/><text fill="#000000" font-family="sans-serif" font-size="13" font-weight="bold" lengthAdjust="spacing" textLength="7.23" x="473.0414" y="207.3557">1</text></g><!--reverse link ReadOnlyUserPrefs to UserPrefs--><g id="link_ReadOnlyUserPrefs_UserPrefs"><path codeLine="36" d="M527.904,156.1941 C526.914,174.6141 526.49,182.7 525.67,197.98 " fill="none" id="ReadOnlyUserPrefs-backto-UserPrefs" style="stroke:#9D0012;stroke-width:1.1;stroke-dasharray:7.0,7.0;"/><polygon fill="none" points="528.87,138.22,521.9126,155.872,533.8953,156.5161,528.87,138.22" style="stroke:#9D0012;stroke-width:1.1;"/></g><!--link AddressBook to UniquePersonList--><g id="link_AddressBook_UniquePersonList"><path codeLine="38" d="M225.2642,236.9018 C222.8042,252.9718 221.2963,262.8788 218.8363,278.9788 " fill="none" id="AddressBook-UniquePersonList" style="stroke:#9D0012;stroke-width:1.1;"/><polygon fill="#9D0012" points="227.08,225.04,222.2182,230.3656,225.2642,236.9018,230.126,231.5762,227.08,225.04" style="stroke:#9D0012;stroke-width:1.1;"/><polygon fill="#9D0012" points="217.93,284.91,223.2435,276.6174,218.6852,279.9674,215.3353,275.4091,217.93,284.91" style="stroke:#9D0012;stroke-width:1.1;"/><text fill="#000000" font-family="sans-serif" font-size="13" font-weight="bold" lengthAdjust="spacing" textLength="7.23" x="210.2984" y="274.1936">1</text></g><!--link UniquePersonList to Person--><g id="link_UniquePersonList_Person"><path codeLine="39" d="M226.61,312.2 C249.69,339.81 300.3427,400.4359 323.4727,428.1159 " fill="none" id="UniquePersonList-to-Person" style="stroke:#9D0012;stroke-width:1.1;"/><polygon fill="#9D0012" points="327.32,432.72,324.6184,423.2489,324.1139,428.8832,318.4796,428.3787,327.32,432.72" style="stroke:#9D0012;stroke-width:1.1;"/><text fill="#000000" font-family="sans-serif" font-size="13" font-weight="bold" lengthAdjust="spacing" textLength="23.1245" x="296.2513" y="422.2027">* all</text></g><!--link Person to Name--><g id="link_Person_Name"><path codeLine="40" d="M299.4644,458.795 C243.6444,475.155 133.5476,507.4219 79.1476,523.3719 " fill="none" id="Person-Name" style="stroke:#9D0012;stroke-width:1.1;"/><polygon fill="#9D0012" points="310.98,455.42,304.0972,453.269,299.4644,458.795,306.3472,460.9461,310.98,455.42" style="stroke:#9D0012;stroke-width:1.1;"/><polygon fill="#9D0012" points="73.39,525.06,83.1519,526.3662,78.188,523.6532,80.901,518.6894,73.39,525.06" style="stroke:#9D0012;stroke-width:1.1;"/><text fill="#000000" font-family="sans-serif" font-size="13" font-weight="bold" lengthAdjust="spacing" textLength="7.23" x="80.8225" y="518.3556">1</text></g><!--link Person to TelegramHandle--><g id="link_Person_TelegramHandle"><path codeLine="41" d="M302.0243,465.3813 C269.6943,481.4513 230.0925,501.1387 197.7125,517.2387 " fill="none" id="Person-TelegramHandle" style="stroke:#9D0012;stroke-width:1.1;"/><polygon fill="#9D0012" points="312.77,460.04,305.6167,459.1287,302.0243,465.3813,309.1776,466.2926,312.77,460.04" style="stroke:#9D0012;stroke-width:1.1;"/><polygon fill="#9D0012" points="192.34,519.91,202.1797,519.4847,196.8171,517.6839,198.6179,512.3213,192.34,519.91" style="stroke:#9D0012;stroke-width:1.1;"/><text fill="#000000" font-family="sans-serif" font-size="13" font-weight="bold" lengthAdjust="spacing" textLength="7.23" x="193.7316" y="509.1936">1</text></g><!--link Person to Email--><g id="link_Person_Email"><path codeLine="42" d="M324.0682,470.2767 C314.2382,486.3467 306.6813,498.6919 296.8313,514.7919 " fill="none" id="Person-Email" style="stroke:#9D0012;stroke-width:1.1;"/><polygon fill="#9D0012" points="330.33,460.04,323.7869,463.0711,324.0682,470.2767,330.6113,467.2456,330.33,460.04" style="stroke:#9D0012;stroke-width:1.1;"/><polygon fill="#9D0012" points="293.7,519.91,301.809,514.3203,296.3094,515.6449,294.9848,510.1453,293.7,519.91" style="stroke:#9D0012;stroke-width:1.1;"/><text fill="#000000" font-family="sans-serif" font-size="13" font-weight="bold" lengthAdjust="spacing" textLength="7.23" x="288.3451" y="509.1936">1</text></g><!--link Person to StudentStatus--><g id="link_Person_StudentStatus"><path codeLine="43" d="M353.3214,469.9538 C364.2814,486.0238 373.0373,498.8545 384.0273,514.9545 " fill="none" id="Person-StudentStatus" style="stroke:#9D0012;stroke-width:1.1;"/><polygon fill="#9D0012" points="346.56,460.04,346.6361,467.2507,353.3214,469.9538,353.2453,462.7431,346.56,460.04" style="stroke:#9D0012;stroke-width:1.1;"/><polygon fill="#9D0012" points="387.41,519.91,385.6397,510.2216,384.5911,515.7804,379.0323,514.7318,387.41,519.91" style="stroke:#9D0012;stroke-width:1.1;"/><text fill="#000000" font-family="sans-serif" font-size="13" font-weight="bold" lengthAdjust="spacing" textLength="7.23" x="375.8" y="509.1936">1</text></g><!--link Person to Role--><g id="link_Person_Role"><path codeLine="44" d="M373.4974,465.4577 C405.2574,481.5277 443.9466,501.1005 475.7566,517.2005 " fill="none" id="Person-Role" style="stroke:#9D0012;stroke-width:1.1;"/><polygon fill="#9D0012" points="362.79,460.04,366.3378,466.318,373.4974,465.4577,369.9496,459.1797,362.79,460.04" style="stroke:#9D0012;stroke-width:1.1;"/><polygon fill="#9D0012" points="481.11,519.91,474.8863,512.2768,476.6489,517.6521,471.2736,519.4147,481.11,519.91" style="stroke:#9D0012;stroke-width:1.1;"/><text fill="#000000" font-family="sans-serif" font-size="13" font-weight="bold" lengthAdjust="spacing" textLength="5.0591" x="468.0729" y="511.0782">*</text></g><!--link Person to Nickname--><g id="link_Person_Nickname"><path codeLine="45" d="M376.7869,459.9442 C424.6569,475.2942 506.4865,501.548 560.3765,518.828 " fill="none" id="Person-Nickname" style="stroke:#9D0012;stroke-width:1.1;"/><polygon fill="#9D0012" points="365.36,456.28,369.8521,461.921,376.7869,459.9442,372.2948,454.3031,365.36,456.28" style="stroke:#9D0012;stroke-width:1.1;"/><polygon fill="#9D0012" points="566.09,520.66,558.7412,514.103,561.3288,519.1333,556.2984,521.7209,566.09,520.66" style="stroke:#9D0012;stroke-width:1.1;"/><text fill="#000000" font-family="sans-serif" font-size="13" font-weight="bold" lengthAdjust="spacing" textLength="7.23" x="551.1877" y="514.0624">1</text></g><!--reverse link I to Person--><!--link UniquePersonList to I--><!--link Name to TelegramHandle--><!--link TelegramHandle to Email--><!--link Email to StudentStatus--><!--link StudentStatus to Role--><!--link Role to Nickname--><!--link ModelManager to Person--><g id="link_ModelManager_Person"><path codeLine="57" d="M389.75,225.2 C389.17,244.24 387.26,281.24 381,312 C371.72,357.57 354.5537,403.8793 345.3137,427.2793 " fill="none" id="ModelManager-to-Person" style="stroke:#9D0012;stroke-width:1.1;"/><polygon fill="#9D0012" points="343.11,432.86,350.1359,425.9581,344.9464,428.2094,342.695,423.0199,343.11,432.86" style="stroke:#9D0012;stroke-width:1.1;"/><text fill="#000000" font-family="sans-serif" font-size="13" font-weight="bold" lengthAdjust="spacing" textLength="52.0127" x="355.0633" y="422.1245">* filtered</text></g><!--SRC=[XLDTRy8W57tlhs3TcubDV3TDfdEPYQx6kQTjMKYvLYA20vfbsSTl7wLGMwfP7reuvt3XS6wlACzPIG0f_SaWEPO75gazvKSiyG5XASN7PaVpFGUbq2WPXUHKC27HChkTBTwcsI9RjmGvmqfDSBulf2WvwKkZbI5n0MWf2324LJtmw7YyXbnZNZ18qwzeMfL3yNXCkGQvnRb1N_WQCCau-xmXH9epJeJOnrMbC_W_5PuKo9M4hUgiRz0Bg-s9u-RiJjNVrR9Bp8qnwQ1JQGzm-bx22gGIV46LTd0DkCa3Fe0RRe11OIxw7dF2F3WxOEfFiHOD_AXDo5m_QgnBR-MXohKgv-PpT7rdd-Z7G_UKc6LPgHKrFUBfBfeagVCUjMoZf3mct-dP7ABsPNXXNQBkX4JIOgUJz4mAJi1Ws-RRrJl5XvLmcA9u5AFB8hkTKvssQaQXbrPmRSU3eIyHvXW2o2f_1mWpqpikt_fpgcAJ3i4Wyv2kqm_HRlWTTX3NNTBRlEaDnmoVTpRrr_9OQUPdF7c5lyrv55KU-aHWeZljosjJzjqdkzuwixxOMgrUVUfaEEWDbzIMClFN0_5n_G40]--></g></svg>
