<svg xmlns="http://www.w3.org/2000/svg" xmlns:xlink="http://www.w3.org/1999/xlink" contentStyleType="text/css" height="569px" preserveAspectRatio="none" style="width:662px;height:569px;background:#FFFFFF;" version="1.1" viewBox="0 0 662 569" width="662px" zoomAndPan="magnify"><defs/><g><!--cluster ModelPackage--><g id="cluster_ModelPackage"><rect fill="#FFFFFF" height="505" rx="2.5" ry="2.5" style="stroke:#181818;stroke-width:1.0;" width="649" x="7" y="58"/><text fill="#000000" font-family="sans-serif" font-size="14" font-weight="bold" lengthAdjust="spacing" textLength="40.4414" x="311.2793" y="74.5332">Model</text></g><!--class ReadOnlyAddressBook--><g id="elem_ReadOnlyAddressBook"><rect codeLine="7" fill="#9D0012" height="44.4971" id="ReadOnlyAddressBook" rx="2.5" ry="2.5" style="stroke:#FFFFFF;stroke-width:1.0;" width="161.918" x="149" y="94"/><text fill="#FFFFFF" font-family="Arial" font-size="15" lengthAdjust="spacing" textLength="74.2163" x="192.8508" y="113.0698">&#171;interface&#187;</text><text fill="#FFFFFF" font-family="Arial" font-size="15" lengthAdjust="spacing" textLength="155.918" x="152" y="130.3184">ReadOnlyAddressBook</text></g><!--class ReadOnlyUserPrefs--><g id="elem_ReadOnlyUserPrefs"><rect codeLine="8" fill="#9D0012" height="44.4971" id="ReadOnlyUserPrefs" rx="2.5" ry="2.5" style="stroke:#FFFFFF;stroke-width:1.0;" width="139.3813" x="461.5" y="94"/><text fill="#FFFFFF" font-family="Arial" font-size="15" lengthAdjust="spacing" textLength="74.2163" x="494.0825" y="113.0698">&#171;interface&#187;</text><text fill="#FFFFFF" font-family="Arial" font-size="15" lengthAdjust="spacing" textLength="133.3813" x="464.5" y="130.3184">ReadOnlyUserPrefs</text></g><!--class Model--><g id="elem_Model"><rect codeLine="9" fill="#9D0012" height="44.4971" id="Model" rx="2.5" ry="2.5" style="stroke:#FFFFFF;stroke-width:1.0;" width="80.2163" x="346" y="94"/><text fill="#FFFFFF" font-family="Arial" font-size="15" lengthAdjust="spacing" textLength="74.2163" x="349" y="113.0698">&#171;interface&#187;</text><text fill="#FFFFFF" font-family="Arial" font-size="15" lengthAdjust="spacing" textLength="40.8545" x="365.6809" y="130.3184">Model</text></g><!--class AddressBook--><g id="elem_AddressBook"><rect codeLine="10" fill="#9D0012" height="27.2485" id="AddressBook" rx="2.5" ry="2.5" style="stroke:#FFFFFF;stroke-width:1.0;" width="95.2163" x="182.5" y="198"/><text fill="#FFFFFF" font-family="Arial" font-size="15" lengthAdjust="spacing" textLength="89.2163" x="185.5" y="217.0698">AddressBook</text></g><!--class ModelManager--><g id="elem_ModelManager"><rect codeLine="11" fill="#9D0012" height="27.2485" id="ModelManager" rx="2.5" ry="2.5" style="stroke:#FFFFFF;stroke-width:1.0;" width="106.0562" x="338" y="198"/><text fill="#FFFFFF" font-family="Arial" font-size="15" lengthAdjust="spacing" textLength="100.0562" x="341" y="217.0698">ModelManager</text></g><!--class UserPrefs--><g id="elem_UserPrefs"><rect codeLine="12" fill="#9D0012" height="27.2485" id="UserPrefs" rx="2.5" ry="2.5" style="stroke:#FFFFFF;stroke-width:1.0;" width="72.6797" x="489.5" y="198"/><text fill="#FFFFFF" font-family="Arial" font-size="15" lengthAdjust="spacing" textLength="66.6797" x="492.5" y="217.0698">UserPrefs</text></g><!--class UniqueContactList--><g id="elem_UniqueContactList"><rect codeLine="14" fill="#9D0012" height="27.2485" id="UniqueContactList" rx="2.5" ry="2.5" style="stroke:#FFFFFF;stroke-width:1.0;" width="128.5708" x="150.5" y="285"/><text fill="#FFFFFF" font-family="Arial" font-size="15" lengthAdjust="spacing" textLength="122.5708" x="153.5" y="304.0698">UniqueContactList</text></g><!--class Contact--><g id="elem_Contact"><rect codeLine="15" fill="#9D0012" height="27.2485" id="Contact" rx="2.5" ry="2.5" style="stroke:#FFFFFF;stroke-width:1.0;" width="57.6943" x="311" y="433"/><text fill="#FFFFFF" font-family="Arial" font-size="15" lengthAdjust="spacing" textLength="51.6943" x="314" y="452.0698">Contact</text></g><!--class Name--><g id="elem_Name"><rect codeLine="16" fill="#9D0012" height="27.2485" id="Name" rx="2.5" ry="2.5" style="stroke:#FFFFFF;stroke-width:1.0;" width="50" x="23" y="520"/><text fill="#FFFFFF" font-family="Arial" font-size="15" lengthAdjust="spacing" textLength="40.0122" x="27.9939" y="539.0698">Name</text></g><!--class TelegramHandle--><g id="elem_TelegramHandle"><rect codeLine="17" fill="#9D0012" height="27.2485" id="TelegramHandle" rx="2.5" ry="2.5" style="stroke:#FFFFFF;stroke-width:1.0;" width="116.8887" x="108.5" y="520"/><text fill="#FFFFFF" font-family="Arial" font-size="15" lengthAdjust="spacing" textLength="110.8887" x="111.5" y="539.0698">TelegramHandle</text></g><!--class Email--><g id="elem_Email"><rect codeLine="18" fill="#9D0012" height="27.2485" id="Email" rx="2.5" ry="2.5" style="stroke:#FFFFFF;stroke-width:1.0;" width="50" x="261" y="520"/><text fill="#FFFFFF" font-family="Arial" font-size="15" lengthAdjust="spacing" textLength="37.5073" x="267.2463" y="539.0698">Email</text></g><!--class Role--><g id="elem_Role"><rect codeLine="19" fill="#9D0012" height="27.2485" id="Role" rx="2.5" ry="2.5" style="stroke:#FFFFFF;stroke-width:1.0;" width="50" x="481" y="520"/><text fill="#FFFFFF" font-family="Arial" font-size="15" lengthAdjust="spacing" textLength="30.8496" x="490.5752" y="539.0698">Role</text></g><!--class StudentStatus--><g id="elem_StudentStatus"><rect codeLine="20" fill="#9D0012" height="27.2485" id="StudentStatus" rx="2.5" ry="2.5" style="stroke:#FFFFFF;stroke-width:1.0;" width="100.2334" x="346" y="520"/><text fill="#FFFFFF" font-family="Arial" font-size="15" lengthAdjust="spacing" textLength="94.2334" x="349" y="539.0698">StudentStatus</text></g><!--class Nickname--><g id="elem_Nickname"><rect codeLine="21" fill="#9D0012" height="27.2485" id="Nickname" rx="2.5" ry="2.5" style="stroke:#FFFFFF;stroke-width:1.0;" width="72.687" x="566.5" y="520"/><text fill="#FFFFFF" font-family="Arial" font-size="15" lengthAdjust="spacing" textLength="66.687" x="569.5" y="539.0698">Nickname</text></g><!--class I--><g id="elem_I"><rect codeLine="23" fill="#FFFFFF" height="27.2485" id="I" rx="2.5" ry="2.5" style="stroke:#FFFFFF;stroke-width:1.0;" width="50" x="315" y="285"/><text fill="#FFFFFF" font-family="Arial" font-size="15" lengthAdjust="spacing" textLength="4.1675" x="337.9163" y="304.0698">I</text></g><!--class HiddenOutside--><g id="elem_HiddenOutside"><rect codeLine="26" fill="#FFFFFF" height="27.2485" id="HiddenOutside" rx="2.5" ry="2.5" style="stroke:#FFFFFF;stroke-width:1.0;" width="105.2285" x="333.5" y="7"/><text fill="#FFFFFF" font-family="Arial" font-size="15" lengthAdjust="spacing" textLength="99.2285" x="336.5" y="26.0698">HiddenOutside</text></g><!--link HiddenOutside to Model--><g id="link_HiddenOutside_Model"><path codeLine="27" d="M386,34.11 C386,49.36 386,69.28 386,87.66 " fill="none" id="HiddenOutside-to-Model" style="stroke:#9D0012;stroke-width:1.1;stroke-dasharray:7.0,7.0;"/><polygon fill="#9D0012" points="386,93.66,390,84.66,386,88.66,382,84.66,386,93.66" style="stroke:#9D0012;stroke-width:1.1;"/></g><!--reverse link ReadOnlyAddressBook to AddressBook--><g id="link_ReadOnlyAddressBook_AddressBook"><path codeLine="29" d="M230,156.22 C230,174.64 230,182.7 230,197.98 " fill="none" id="ReadOnlyAddressBook-backto-AddressBook" style="stroke:#9D0012;stroke-width:1.1;stroke-dasharray:7.0,7.0;"/><polygon fill="none" points="230,138.22,224,156.22,236,156.22,230,138.22" style="stroke:#9D0012;stroke-width:1.1;"/></g><!--reverse link Model to ModelManager--><g id="link_Model_ModelManager"><path codeLine="31" d="M388.096,156.1941 C389.086,174.6141 389.51,182.7 390.33,197.98 " fill="none" id="Model-backto-ModelManager" style="stroke:#9D0012;stroke-width:1.1;stroke-dasharray:7.0,7.0;"/><polygon fill="none" points="387.13,138.22,382.1047,156.5161,394.0874,155.872,387.13,138.22" style="stroke:#9D0012;stroke-width:1.1;"/></g><!--link Model to ReadOnlyUserPrefs--><g id="link_Model_ReadOnlyUserPrefs"><path codeLine="32" d="M426.21,116 C437.95,116 443.68,116 455.42,116 " fill="none" id="Model-to-ReadOnlyUserPrefs" style="stroke:#9D0012;stroke-width:1.1;stroke-dasharray:7.0,7.0;"/><polygon fill="#9D0012" points="461.42,116,452.42,112,456.42,116,452.42,120,461.42,116" style="stroke:#9D0012;stroke-width:1.1;"/></g><!--reverse link ReadOnlyAddressBook to Model--><g id="link_ReadOnlyAddressBook_Model"><path codeLine="33" d="M317.05,116 C328.66,116 334.27,116 345.89,116 " fill="none" id="ReadOnlyAddressBook-backto-Model" style="stroke:#9D0012;stroke-width:1.1;stroke-dasharray:7.0,7.0;"/><polygon fill="#9D0012" points="311.05,116,320.05,120,316.05,116,320.05,112,311.05,116" style="stroke:#9D0012;stroke-width:1.1;"/></g><!--reverse link AddressBook to ModelManager--><g id="link_AddressBook_ModelManager"><path codeLine="34" d="M283.8,211.5 C303.84,211.5 317.89,211.5 337.94,211.5 " fill="none" id="AddressBook-backto-ModelManager" style="stroke:#9D0012;stroke-width:1.1;"/><polygon fill="#9D0012" points="277.8,211.5,286.8,215.5,282.8,211.5,286.8,207.5,277.8,211.5" style="stroke:#9D0012;stroke-width:1.1;"/><text fill="#000000" font-family="sans-serif" font-size="13" font-weight="bold" lengthAdjust="spacing" textLength="7.23" x="285.6564" y="207.778">1</text></g><!--link ModelManager to UserPrefs--><g id="link_ModelManager_UserPrefs"><path codeLine="35" d="M444.26,211.5 C459.27,211.5 468.27,211.5 483.28,211.5 " fill="none" id="ModelManager-to-UserPrefs" style="stroke:#9D0012;stroke-width:1.1;"/><polygon fill="#9D0012" points="489.28,211.5,480.28,207.5,484.28,211.5,480.28,215.5,489.28,211.5" style="stroke:#9D0012;stroke-width:1.1;"/><text fill="#000000" font-family="sans-serif" font-size="13" font-weight="bold" lengthAdjust="spacing" textLength="7.23" x="474.0414" y="207.3557">1</text></g><!--reverse link ReadOnlyUserPrefs to UserPrefs--><g id="link_ReadOnlyUserPrefs_UserPrefs"><path codeLine="36" d="M528.904,156.1941 C527.914,174.6141 527.49,182.7 526.67,197.98 " fill="none" id="ReadOnlyUserPrefs-backto-UserPrefs" style="stroke:#9D0012;stroke-width:1.1;stroke-dasharray:7.0,7.0;"/><polygon fill="none" points="529.87,138.22,522.9126,155.872,534.8953,156.5161,529.87,138.22" style="stroke:#9D0012;stroke-width:1.1;"/></g><!--link AddressBook to UniqueContactList--><g id="link_AddressBook_UniqueContactList"><path codeLine="38" d="M225.7016,236.8569 C222.8616,252.9269 221.1023,262.9012 218.2623,279.0012 " fill="none" id="AddressBook-UniqueContactList" style="stroke:#9D0012;stroke-width:1.1;"/><polygon fill="#9D0012" points="227.79,225.04,222.8069,230.2523,225.7016,236.8569,230.6848,231.6446,227.79,225.04" style="stroke:#9D0012;stroke-width:1.1;"/><polygon fill="#9D0012" points="217.22,284.91,222.7226,276.7417,218.0886,279.986,214.8443,275.352,217.22,284.91" style="stroke:#9D0012;stroke-width:1.1;"/><text fill="#000000" font-family="sans-serif" font-size="13" font-weight="bold" lengthAdjust="spacing" textLength="7.23" x="209.8577" y="274.1936">1</text></g><!--link UniqueContactList to Contact--><g id="link_UniqueContactList_Contact"><path codeLine="39" d="M225.87,312.2 C249.51,339.81 301.4577,400.4824 325.1577,428.1624 " fill="none" id="UniqueContactList-to-Contact" style="stroke:#9D0012;stroke-width:1.1;"/><polygon fill="#9D0012" points="329.06,432.72,326.245,423.282,325.8081,428.922,320.1681,428.4851,329.06,432.72" style="stroke:#9D0012;stroke-width:1.1;"/><text fill="#000000" font-family="sans-serif" font-size="13" font-weight="bold" lengthAdjust="spacing" textLength="23.1245" x="297.8646" y="422.2027">* all</text></g><!--link Contact to Name--><g id="link_Contact_Name"><path codeLine="40" d="M299.4083,459.3143 C242.1483,475.9843 132.881,507.7935 78.931,523.4935 " fill="none" id="Contact-Name" style="stroke:#9D0012;stroke-width:1.1;"/><polygon fill="#9D0012" points="310.93,455.96,304.0511,453.7966,299.4083,459.3143,306.2873,461.4777,310.93,455.96" style="stroke:#9D0012;stroke-width:1.1;"/><polygon fill="#9D0012" points="73.17,525.17,82.9292,526.4959,77.9708,523.7729,80.6938,518.8146,73.17,525.17" style="stroke:#9D0012;stroke-width:1.1;"/><text fill="#000000" font-family="sans-serif" font-size="13" font-weight="bold" lengthAdjust="spacing" textLength="7.23" x="80.906" y="518.2903">1</text></g><!--link Contact to TelegramHandle--><g id="link_Contact_TelegramHandle"><path codeLine="41" d="M303.6996,465.3314 C270.9896,481.4014 230.7748,501.1636 198.0148,517.2636 " fill="none" id="Contact-TelegramHandle" style="stroke:#9D0012;stroke-width:1.1;"/><polygon fill="#9D0012" points="314.47,460.04,307.321,459.0955,303.6996,465.3314,310.8486,466.2758,314.47,460.04" style="stroke:#9D0012;stroke-width:1.1;"/><polygon fill="#9D0012" points="192.63,519.91,202.4715,519.5303,197.1174,517.7047,198.943,512.3505,192.63,519.91" style="stroke:#9D0012;stroke-width:1.1;"/><text fill="#000000" font-family="sans-serif" font-size="13" font-weight="bold" lengthAdjust="spacing" textLength="7.23" x="194.1321" y="509.1936">1</text></g><!--link Contact to Email--><g id="link_Contact_Email"><path codeLine="42" d="M325.5948,470.1686 C315.3848,486.2386 307.4478,498.7458 297.2178,514.8458 " fill="none" id="Contact-Email" style="stroke:#9D0012;stroke-width:1.1;"/><polygon fill="#9D0012" points="332.03,460.04,325.4362,462.9592,325.5948,470.1686,332.1886,467.2494,332.03,460.04" style="stroke:#9D0012;stroke-width:1.1;"/><polygon fill="#9D0012" points="294,519.91,302.2028,514.4589,296.6815,515.6899,295.4506,510.1686,294,519.91" style="stroke:#9D0012;stroke-width:1.1;"/><text fill="#000000" font-family="sans-serif" font-size="13" font-weight="bold" lengthAdjust="spacing" textLength="7.23" x="288.7595" y="509.1936">1</text></g><!--link Contact to StudentStatus--><g id="link_Contact_StudentStatus"><path codeLine="43" d="M354.8631,470.06 C365.4531,486.13 373.8006,498.7986 384.4006,514.8986 " fill="none" id="Contact-StudentStatus" style="stroke:#9D0012;stroke-width:1.1;"/><polygon fill="#9D0012" points="348.26,460.04,348.2215,467.251,354.8631,470.06,354.9015,462.849,348.26,460.04" style="stroke:#9D0012;stroke-width:1.1;"/><polygon fill="#9D0012" points="387.7,519.91,386.0918,510.1933,384.9505,515.7339,379.41,514.5925,387.7,519.91" style="stroke:#9D0012;stroke-width:1.1;"/><text fill="#000000" font-family="sans-serif" font-size="13" font-weight="bold" lengthAdjust="spacing" textLength="7.23" x="376.2006" y="509.1936">1</text></g><!--link Contact to Role--><g id="link_Contact_Role"><path codeLine="44" d="M375.1716,465.5084 C406.5616,481.5784 444.6295,501.0752 476.0695,517.1752 " fill="none" id="Contact-Role" style="stroke:#9D0012;stroke-width:1.1;"/><polygon fill="#9D0012" points="364.49,460.04,368.008,466.3347,375.1716,465.5084,371.6536,459.2137,364.49,460.04" style="stroke:#9D0012;stroke-width:1.1;"/><polygon fill="#9D0012" points="481.41,519.91,475.2225,512.2475,476.9596,517.631,471.5761,519.3681,481.41,519.91" style="stroke:#9D0012;stroke-width:1.1;"/><text fill="#000000" font-family="sans-serif" font-size="13" font-weight="bold" lengthAdjust="spacing" textLength="5.0591" x="467.7845" y="510.5397">*</text></g><!--link Contact to Nickname--><g id="link_Contact_Nickname"><path codeLine="45" d="M380.5686,460.61 C428.7186,476.17 507.6407,501.685 560.4307,518.745 " fill="none" id="Contact-Nickname" style="stroke:#9D0012;stroke-width:1.1;"/><polygon fill="#9D0012" points="369.15,456.92,373.6293,462.5712,380.5686,460.61,376.0893,454.9588,369.15,456.92" style="stroke:#9D0012;stroke-width:1.1;"/><polygon fill="#9D0012" points="566.14,520.59,558.8061,514.0162,561.3823,519.0525,556.3461,521.6286,566.14,520.59" style="stroke:#9D0012;stroke-width:1.1;"/><text fill="#000000" font-family="sans-serif" font-size="13" font-weight="bold" lengthAdjust="spacing" textLength="7.23" x="551.2476" y="513.9786">1</text></g><!--reverse link I to Contact--><!--link UniqueContactList to I--><!--link Name to TelegramHandle--><!--link TelegramHandle to Email--><!--link Email to StudentStatus--><!--link StudentStatus to Role--><!--link Role to Nickname--><!--link ModelManager to Contact--><g id="link_ModelManager_Contact"><path codeLine="57" d="M390.91,225.19 C390.58,244.23 389.11,281.23 383,312 C373.95,357.62 356.6889,403.9054 347.3789,427.2954 " fill="none" id="ModelManager-to-Contact" style="stroke:#9D0012;stroke-width:1.1;"/><polygon fill="#9D0012" points="345.16,432.87,352.2048,425.9873,347.0091,428.2245,344.7719,423.0288,345.16,432.87" style="stroke:#9D0012;stroke-width:1.1;"/><text fill="#000000" font-family="sans-serif" font-size="13" font-weight="bold" lengthAdjust="spacing" textLength="52.0127" x="357.1004" y="422.1383">* filtered</text></g><!--SRC=[XLHDR-CW5BpxLr3lBL8ivHvPsgPTDL9ILsdtjArMJ-R5GI6G1QogQhk_VR4D_e1KwuCDCyE3OPvynKJ9Quf4cpUEsRa-yKGVcJY3WXC1fUJhqu6LHu5QaqMs2CcLv5AHRN5pk_czAZR5RYGeEMXz3UMnKh8MD9Oc3vQ42ibMKkG4T3Vmw7AvmzA0g3Zc-NkoQigHTBbamg3QGsdHPx53e8NWRzyfLVQCrr8UqwRI1Vm_5NvgL0yAztgolaU_MDsUEEtFxbJnhYsx1M6DAGSDfJqWs9yQLr8OACs6QUDmXxZPFPpG3P-GOsMl-Wu4vHwyFG7pvzZ97duqDcPX7WsOsfkvRv9johdvcdpxqJx9fuVk6BNBYjfePhl4qrCqotBdFXaP9rbzpZxoYqaau-lmmgv4rmkPOjN1PFc579o0utxCZwjFYiyRuJmdwI8bNulQxPngsAeVXLv6qOqTp-Q-H9HaX91M-tT6WDl-wIFklaEbBkqG3OCFUTS38Hpqm8IUfQvReXCCJUAe-Qz3c_zBVMv4wqlclCHVx3f96Yin4LYPJcDvvwnzn-JKtsGMYrktpIkc1ij1cxZ8zepRNm3IFhT_]--></g></svg>
