<svg xmlns="http://www.w3.org/2000/svg" xmlns:xlink="http://www.w3.org/1999/xlink" contentStyleType="text/css" height="501px" preserveAspectRatio="none" style="width:685px;height:501px;background:#FFFFFF;" version="1.1" viewBox="0 0 685 501" width="685px" zoomAndPan="magnify"><defs/><g><!--cluster Parser classes--><g id="cluster_Parser classes"><rect fill="#FFFFFF" height="414" rx="2.5" ry="2.5" style="stroke:#000000;stroke-width:1.0;" width="548" x="7" y="81"/><text fill="#000000" font-family="sans-serif" font-size="16" font-weight="bold" lengthAdjust="spacing" textLength="112.1016" x="224.9492" y="99.6094">Parser classes</text></g><!--class Parser--><g id="elem_Parser"><rect codeLine="10" fill="#3333C4" height="44.4971" id="Parser" rx="2.5" ry="2.5" style="stroke:#FFFFFF;stroke-width:1.0;" width="80.2163" x="284" y="120"/><text fill="#FFFFFF" font-family="Arial" font-size="15" lengthAdjust="spacing" textLength="74.2163" x="287" y="139.0698">&#171;interface&#187;</text><text fill="#FFFFFF" font-family="Arial" font-size="15" lengthAdjust="spacing" textLength="44.1797" x="302.0183" y="156.3184">Parser</text></g><!--class AddressBookParser--><g id="elem_AddressBookParser"><rect codeLine="11" fill="#3333C4" height="27.2485" id="AddressBookParser" rx="2.5" ry="2.5" style="stroke:#FFFFFF;stroke-width:1.0;" width="139.396" x="399.5" y="128.5"/><text fill="#FFFFFF" font-family="Arial" font-size="15" lengthAdjust="spacing" textLength="133.396" x="402.5" y="147.5698">AddressBookParser</text></g><!--class XYZCommandParser--><g id="elem_XYZCommandParser"><rect codeLine="12" fill="#3333C4" height="27.2485" id="XYZCommandParser" rx="2.5" ry="2.5" style="stroke:#FFFFFF;stroke-width:1.0;" width="148.5439" x="322.5" y="250.5"/><text fill="#FFFFFF" font-family="Arial" font-size="15" lengthAdjust="spacing" textLength="142.5439" x="325.5" y="269.5698">XYZCommandParser</text></g><!--class CliSyntax--><g id="elem_CliSyntax"><rect codeLine="13" fill="#3333C4" height="27.2485" id="CliSyntax" rx="2.5" ry="2.5" style="stroke:#FFFFFF;stroke-width:1.0;" width="69.3545" x="362.5" y="364"/><text fill="#FFFFFF" font-family="Arial" font-size="15" lengthAdjust="spacing" textLength="63.3545" x="365.5" y="383.0698">CliSyntax</text></g><!--class ParserUtil--><g id="elem_ParserUtil"><rect codeLine="14" fill="#3333C4" height="27.2485" id="ParserUtil" rx="2.5" ry="2.5" style="stroke:#FFFFFF;stroke-width:1.0;" width="71.8447" x="467" y="364"/><text fill="#FFFFFF" font-family="Arial" font-size="15" lengthAdjust="spacing" textLength="65.8447" x="470" y="383.0698">ParserUtil</text></g><!--class ArgumentMultimap--><g id="elem_ArgumentMultimap"><rect codeLine="15" fill="#3333C4" height="27.2485" id="ArgumentMultimap" rx="2.5" ry="2.5" style="stroke:#FFFFFF;stroke-width:1.0;" width="131.8813" x="23" y="364"/><text fill="#FFFFFF" font-family="Arial" font-size="15" lengthAdjust="spacing" textLength="125.8813" x="26" y="383.0698">ArgumentMultimap</text></g><!--class ArgumentTokenizer--><g id="elem_ArgumentTokenizer"><rect codeLine="16" fill="#3333C4" height="27.2485" id="ArgumentTokenizer" rx="2.5" ry="2.5" style="stroke:#FFFFFF;stroke-width:1.0;" width="136.8911" x="190.5" y="364"/><text fill="#FFFFFF" font-family="Arial" font-size="15" lengthAdjust="spacing" textLength="130.8911" x="193.5" y="383.0698">ArgumentTokenizer</text></g><!--class Prefix--><g id="elem_Prefix"><rect codeLine="17" fill="#3333C4" height="27.2485" id="Prefix" rx="2.5" ry="2.5" style="stroke:#FFFFFF;stroke-width:1.0;" width="50" x="372" y="452"/><text fill="#FFFFFF" font-family="Arial" font-size="15" lengthAdjust="spacing" textLength="38.3423" x="377.8289" y="471.0698">Prefix</text></g><!--class Command--><g id="elem_Command"><rect codeLine="6" fill="#3333C4" height="44.4971" id="Command" rx="2.5" ry="2.5" style="stroke:#FFFFFF;stroke-width:1.0;" width="75.1919" x="579.5" y="242"/><text fill="#FFFFFF" font-family="Arial" font-size="15" lengthAdjust="spacing" textLength="63.3765" x="585.4077" y="261.0698">{abstract}</text><text fill="#FFFFFF" font-family="Arial" font-size="15" lengthAdjust="spacing" textLength="69.1919" x="582.5" y="278.3184">Command</text></g><!--class XYZCommand--><g id="elem_XYZCommand"><rect codeLine="7" fill="#3333C4" height="27.2485" id="XYZCommand" rx="2.5" ry="2.5" style="stroke:#FFFFFF;stroke-width:1.0;" width="104.3643" x="574" y="364"/><text fill="#FFFFFF" font-family="Arial" font-size="15" lengthAdjust="spacing" textLength="98.3643" x="577" y="383.0698">XYZCommand</text></g><!--class HiddenOutside--><g id="elem_HiddenOutside"><rect codeLine="20" fill="#FFFFFF" height="27.2485" id="HiddenOutside" rx="2.5" ry="2.5" style="stroke:#FFFFFF;stroke-width:1.0;" width="105.2285" x="416.5" y="7"/><text fill="#FFFFFF" font-family="Arial" font-size="15" lengthAdjust="spacing" textLength="99.2285" x="419.5" y="26.0698">HiddenOutside</text></g><!--link HiddenOutside to AddressBookParser--><g id="link_HiddenOutside_AddressBookParser"><path codeLine="21" d="M469,34.29 C469,57.29 469,99.37 469,122.3 " fill="none" id="HiddenOutside-to-AddressBookParser" style="stroke:#101086;stroke-width:1.1;stroke-dasharray:7.0,7.0;"/><polygon fill="#101086" points="469,128.3,473,119.3,469,123.3,465,119.3,469,128.3" style="stroke:#101086;stroke-width:1.1;"/></g><!--link AddressBookParser to XYZCommandParser--><g id="link_AddressBookParser_XYZCommandParser"><path codeLine="23" d="M461.29,155.84 C447.44,178.94 421.5573,222.0752 407.7373,245.1052 " fill="none" id="AddressBookParser-to-XYZCommandParser" style="stroke:#101086;stroke-width:1.1;stroke-dasharray:7.0,7.0;"/><polygon fill="#101086" points="404.65,250.25,412.7108,244.5911,407.2228,245.9627,405.8511,240.4747,404.65,250.25" style="stroke:#101086;stroke-width:1.1;"/><text fill="#000000" font-family="sans-serif" font-size="13" font-weight="bold" lengthAdjust="spacing" textLength="52.7681" x="438" y="208.4951">&#171;create&#187;</text></g><!--link XYZCommandParser to XYZCommand--><g id="link_XYZCommandParser_XYZCommand"><path codeLine="25" d="M422.82,277.57 C466.92,299.05 550.8456,339.9032 594.8756,361.3432 " fill="none" id="XYZCommandParser-to-XYZCommand" style="stroke:#101086;stroke-width:1.1;stroke-dasharray:7.0,7.0;"/><polygon fill="#101086" points="600.27,363.97,593.9295,356.4335,595.7746,361.781,590.4271,363.6261,600.27,363.97" style="stroke:#101086;stroke-width:1.1;"/><text fill="#000000" font-family="sans-serif" font-size="13" font-weight="bold" lengthAdjust="spacing" textLength="52.7681" x="533" y="330.4951">&#171;create&#187;</text></g><!--link AddressBookParser to Command--><g id="link_AddressBookParser_Command"><path codeLine="26" d="M484.56,155.62 C509.87,176.13 555.5486,213.1822 586.3586,238.1522 " fill="none" id="AddressBookParser-to-Command" style="stroke:#101086;stroke-width:1.1;stroke-dasharray:7.0,7.0;"/><polygon fill="#101086" points="591.02,241.93,586.5465,233.1557,587.1355,238.7818,581.5094,239.3709,591.02,241.93" style="stroke:#101086;stroke-width:1.1;"/><text fill="#000000" font-family="sans-serif" font-size="13" font-weight="bold" lengthAdjust="spacing" textLength="36.8608" x="552" y="208.4951">&#171;use&#187;</text></g><!--reverse link Parser to XYZCommandParser--><g id="link_Parser_XYZCommandParser"><path codeLine="27" d="M346.2365,179.5571 C361.4665,204.5871 376.95,230.03 389.39,250.49 " fill="none" id="Parser-backto-XYZCommandParser" style="stroke:#101086;stroke-width:1.1;stroke-dasharray:7.0,7.0;"/><polygon fill="none" points="336.88,164.18,341.1108,182.676,351.3622,176.4383,336.88,164.18" style="stroke:#101086;stroke-width:1.1;"/></g><!--link XYZCommandParser to ArgumentMultimap--><g id="link_XYZCommandParser_ArgumentMultimap"><path codeLine="28" d="M362.27,277.57 C302.96,299.05 188.4716,340.4875 129.2516,361.9275 " fill="none" id="XYZCommandParser-to-ArgumentMultimap" style="stroke:#101086;stroke-width:1.1;stroke-dasharray:7.0,7.0;"/><polygon fill="#101086" points="123.61,363.97,133.4341,364.6673,128.3114,362.2679,130.7108,357.1451,123.61,363.97" style="stroke:#101086;stroke-width:1.1;"/></g><!--link XYZCommandParser to ArgumentTokenizer--><g id="link_XYZCommandParser_ArgumentTokenizer"><path codeLine="29" d="M381.44,277.57 C354.93,298.99 305.997,338.5292 279.387,360.0292 " fill="none" id="XYZCommandParser-to-ArgumentTokenizer" style="stroke:#101086;stroke-width:1.1;stroke-dasharray:7.0,7.0;"/><polygon fill="#101086" points="274.72,363.8,284.2344,361.2551,278.6092,360.6577,279.2067,355.0325,274.72,363.8" style="stroke:#101086;stroke-width:1.1;"/></g><!--reverse link ArgumentMultimap to ArgumentTokenizer--><g id="link_ArgumentMultimap_ArgumentTokenizer"><path codeLine="30" d="M161.07,377.5 C172.85,377.5 178.62,377.5 190.39,377.5 " fill="none" id="ArgumentMultimap-backto-ArgumentTokenizer" style="stroke:#101086;stroke-width:1.1;stroke-dasharray:7.0,7.0;"/><polygon fill="#101086" points="155.07,377.5,164.07,381.5,160.07,377.5,164.07,373.5,155.07,377.5" style="stroke:#101086;stroke-width:1.1;"/></g><!--link XYZCommandParser to CliSyntax--><g id="link_XYZCommandParser_CliSyntax"><path codeLine="31" d="M397,277.79 C397,299.3 397,336.45 397,357.86 " fill="none" id="XYZCommandParser-to-CliSyntax" style="stroke:#101086;stroke-width:1.1;stroke-dasharray:7.0,7.0;"/><polygon fill="#101086" points="397,363.86,401,354.86,397,358.86,393,354.86,397,363.86" style="stroke:#101086;stroke-width:1.1;"/></g><!--link CliSyntax to Prefix--><g id="link_CliSyntax_Prefix"><path codeLine="32" d="M397,391.19 C397,407.45 397,429.47 397,445.76 " fill="none" id="CliSyntax-to-Prefix" style="stroke:#101086;stroke-width:1.1;stroke-dasharray:7.0,7.0;"/><polygon fill="#101086" points="397,451.76,401,442.76,397,446.76,393,442.76,397,451.76" style="stroke:#101086;stroke-width:1.1;"/></g><!--link XYZCommandParser to ParserUtil--><g id="link_XYZCommandParser_ParserUtil"><path codeLine="33" d="M409.16,277.79 C429.61,299.3 466.4964,338.1011 486.8464,359.5111 " fill="none" id="XYZCommandParser-to-ParserUtil" style="stroke:#101086;stroke-width:1.1;stroke-dasharray:7.0,7.0;"/><polygon fill="#101086" points="490.98,363.86,487.6789,354.5809,487.5353,360.2359,481.8803,360.0923,490.98,363.86" style="stroke:#101086;stroke-width:1.1;"/></g><!--link ParserUtil to Prefix--><g id="link_ParserUtil_Prefix"><path codeLine="34" d="M487.36,391.19 C467.32,407.45 437.4395,431.6899 417.3595,447.9799 " fill="none" id="ParserUtil-to-Prefix" style="stroke:#101086;stroke-width:1.1;stroke-dasharray:7.0,7.0;"/><polygon fill="#101086" points="412.7,451.76,422.2093,449.1963,416.5829,448.6099,417.1692,442.9836,412.7,451.76" style="stroke:#101086;stroke-width:1.1;"/></g><!--link ArgumentTokenizer to Prefix--><g id="link_ArgumentTokenizer_Prefix"><path codeLine="35" d="M279.07,391.01 C305.23,407.31 345.6374,432.4974 371.8174,448.8074 " fill="none" id="ArgumentTokenizer-to-Prefix" style="stroke:#101086;stroke-width:1.1;stroke-dasharray:7.0,7.0;"/><polygon fill="#101086" points="376.91,451.98,371.3862,443.826,372.6662,449.3361,367.156,450.6161,376.91,451.98" style="stroke:#101086;stroke-width:1.1;"/></g><!--reverse link Command to XYZCommand--><g id="link_Command_XYZCommand"><path codeLine="36" d="M620.1609,304.1714 C622.0209,327.1714 623.47,345.15 624.99,364 " fill="none" id="Command-backto-XYZCommand" style="stroke:#101086;stroke-width:1.1;"/><polygon fill="none" points="618.71,286.23,614.1804,304.6551,626.1414,303.6878,618.71,286.23" style="stroke:#101086;stroke-width:1.1;"/></g><!--SRC=[ZP59QyCm48Nl-XMgUuuXq5CnXiRG1L8SsXJQ4WXJIqc5PSbe8KcJ_FSwtZTAVHg_-VH6UdF5HCGjeLYR0wTkQXEETCn42WeI34h9tVARHR6WMkEfE-qt0ycbmlFmuIbO1-4yV5alRrfCn47h6KJnLaaho816ABWGs3d2bpOA8dDUYK0c2GZYOD2uh4li_UEp4b2QkSAMOcS1IbDLZABQELQMdiU4eMe34VNzbIYmtBGeI-wE49KzRYPbtD6RMHqvuEpr80pio_-Y-MOOh_pKrYPKc6VB3KiWxSbB6LF1Vcg_XQ8RjaVdAeb7HWWLeJMQPLkvliy_r5LTrn-vDXf8s2Lo9pAu_vPRx7cHec2oP13gTtF_HiGTUcH8HhTHgo_SqDIcxicliX-TEOZkJwf9Sg1WbzED-RTZUwTbbUlbRaRFjFRUb7NWvScHYtM1LieJcqvETPA_]--></g></svg>
