<svg xmlns="http://www.w3.org/2000/svg" xmlns:xlink="http://www.w3.org/1999/xlink" contentStyleType="text/css" height="574px" preserveAspectRatio="none" style="width:640px;height:574px;background:#FFFFFF;" version="1.1" viewBox="0 0 640 574" width="640px" zoomAndPan="magnify"><defs/><g><!--cluster StoragePackage--><g id="cluster_StoragePackage"><rect fill="#FFFFFF" height="518" rx="2.5" ry="2.5" style="stroke:#000000;stroke-width:1.0;" width="627" x="7" y="50"/><text fill="#000000" font-family="sans-serif" font-size="16" font-weight="bold" lengthAdjust="spacing" textLength="59.5703" x="290.7148" y="68.6094">Storage</text></g><!--cluster UserPrefs Storage--><g id="cluster_UserPrefs Storage"><rect fill="#F4F6F6" height="186" rx="2.5" ry="2.5" style="stroke:#000000;stroke-width:1.0;" width="190" x="420" y="97"/><text fill="#000000" font-family="sans-serif" font-size="16" font-weight="bold" lengthAdjust="spacing" textLength="139.6172" x="445.1914" y="115.6094">UserPrefs Storage</text></g><!--cluster AddressBook Storage--><g id="cluster_AddressBook Storage"><rect fill="#F4F6F6" height="447" rx="2.5" ry="2.5" style="stroke:#000000;stroke-width:1.0;" width="236" x="31" y="97"/><text fill="#000000" font-family="sans-serif" font-size="16" font-weight="bold" lengthAdjust="spacing" textLength="168.0391" x="64.9805" y="115.6094">AddressBook Storage</text></g><!--class Storage--><g id="elem_Storage"><rect codeLine="13" fill="#A38300" height="44.4971" id="Storage" rx="2.5" ry="2.5" style="stroke:#FFFFFF;stroke-width:1.0;" width="80.2163" x="302" y="136"/><text fill="#FFFFFF" font-family="Arial" font-size="15" lengthAdjust="spacing" textLength="74.2163" x="305" y="155.0698">&#171;interface&#187;</text><text fill="#FFFFFF" font-family="Arial" font-size="15" lengthAdjust="spacing" textLength="52.5366" x="315.8398" y="172.3184">Storage</text></g><!--class StorageManager--><g id="elem_StorageManager"><rect codeLine="14" fill="#A38300" height="27.2485" id="StorageManager" rx="2.5" ry="2.5" style="stroke:#FFFFFF;stroke-width:1.0;" width="117.7383" x="283" y="240"/><text fill="#FFFFFF" font-family="Arial" font-size="15" lengthAdjust="spacing" textLength="111.7383" x="286" y="259.0698">StorageManager</text></g><!--class UserPrefsStorage--><g id="elem_UserPrefsStorage"><rect codeLine="9" fill="#A38300" height="44.4971" id="UserPrefsStorage" rx="2.5" ry="2.5" style="stroke:#FFFFFF;stroke-width:1.0;" width="125.2163" x="436.5" y="136"/><text fill="#FFFFFF" font-family="Arial" font-size="15" lengthAdjust="spacing" textLength="74.2163" x="462" y="155.0698">&#171;interface&#187;</text><text fill="#FFFFFF" font-family="Arial" font-size="15" lengthAdjust="spacing" textLength="119.2163" x="439.5" y="172.3184">UserPrefsStorage</text></g><!--class JsonUserPrefsStorage--><g id="elem_JsonUserPrefsStorage"><rect codeLine="10" fill="#A38300" height="27.2485" id="JsonUserPrefsStorage" rx="2.5" ry="2.5" style="stroke:#FFFFFF;stroke-width:1.0;" width="156.9009" x="436.5" y="240"/><text fill="#FFFFFF" font-family="Arial" font-size="15" lengthAdjust="spacing" textLength="150.9009" x="439.5" y="259.0698">JsonUserPrefsStorage</text></g><!--class AddressBookStorage--><g id="elem_AddressBookStorage"><rect codeLine="17" fill="#A38300" height="44.4971" id="AddressBookStorage" rx="2.5" ry="2.5" style="stroke:#FFFFFF;stroke-width:1.0;" width="147.7529" x="103" y="136"/><text fill="#FFFFFF" font-family="Arial" font-size="15" lengthAdjust="spacing" textLength="74.2163" x="139.7683" y="155.0698">&#171;interface&#187;</text><text fill="#FFFFFF" font-family="Arial" font-size="15" lengthAdjust="spacing" textLength="141.7529" x="106" y="172.3184">AddressBookStorage</text></g><!--class JsonAddressBookStorage--><g id="elem_JsonAddressBookStorage"><rect codeLine="18" fill="#A38300" height="27.2485" id="JsonAddressBookStorage" rx="2.5" ry="2.5" style="stroke:#FFFFFF;stroke-width:1.0;" width="179.4375" x="64.5" y="240"/><text fill="#FFFFFF" font-family="Arial" font-size="15" lengthAdjust="spacing" textLength="173.4375" x="67.5" y="259.0698">JsonAddressBookStorage</text></g><!--class JsonSerializableAddressBook--><g id="elem_JsonSerializableAddressBook"><rect codeLine="19" fill="#A38300" height="27.2485" id="JsonSerializableAddressBook" rx="2.5" ry="2.5" style="stroke:#FFFFFF;stroke-width:1.0;" width="204.4424" x="47" y="327"/><text fill="#FFFFFF" font-family="Arial" font-size="15" lengthAdjust="spacing" textLength="198.4424" x="50" y="346.0698">JsonSerializableAddressBook</text></g><!--class JsonAdaptedContact--><g id="elem_JsonAdaptedContact"><rect codeLine="20" fill="#A38300" height="27.2485" id="JsonAdaptedContact" rx="2.5" ry="2.5" style="stroke:#FFFFFF;stroke-width:1.0;" width="145.2627" x="76.5" y="414"/><text fill="#FFFFFF" font-family="Arial" font-size="15" lengthAdjust="spacing" textLength="139.2627" x="79.5" y="433.0698">JsonAdaptedContact</text></g><!--class JsonAdaptedRole--><g id="elem_JsonAdaptedRole"><rect codeLine="21" fill="#A38300" height="27.2485" id="JsonAdaptedRole" rx="2.5" ry="2.5" style="stroke:#FFFFFF;stroke-width:1.0;" width="124.418" x="87" y="501"/><text fill="#FFFFFF" font-family="Arial" font-size="15" lengthAdjust="spacing" textLength="118.418" x="90" y="520.0698">JsonAdaptedRole</text></g><!--class HiddenOutside--><g id="elem_HiddenOutside"><rect codeLine="26" fill="#FFFFFF" height="27.2485" id="HiddenOutside" rx="2.5" ry="2.5" style="stroke:#FFFFFF;stroke-width:1.0;" width="105.2285" x="289.5" y="7"/><text fill="#FFFFFF" font-family="Arial" font-size="15" lengthAdjust="spacing" textLength="99.2285" x="292.5" y="26.0698">HiddenOutside</text></g><!--link HiddenOutside to Storage--><g id="link_HiddenOutside_Storage"><path codeLine="27" d="M342,34 C342,57.2 342,101.12 342,129.72 " fill="none" id="HiddenOutside-to-Storage" style="stroke:#A38300;stroke-width:1.1;stroke-dasharray:7.0,7.0;"/><polygon fill="#A38300" points="342,135.72,346,126.72,342,130.72,338,126.72,342,135.72" style="stroke:#A38300;stroke-width:1.1;"/></g><!--reverse link Storage to StorageManager--><g id="link_Storage_StorageManager"><path codeLine="29" d="M342,198.22 C342,216.64 342,224.7 342,239.98 " fill="none" id="Storage-backto-StorageManager" style="stroke:#A38300;stroke-width:1.1;stroke-dasharray:7.0,7.0;"/><polygon fill="none" points="342,180.22,336,198.22,348,198.22,342,180.22" style="stroke:#A38300;stroke-width:1.1;"/></g><!--reverse link UserPrefsStorage to StorageManager--><g id="link_UserPrefsStorage_StorageManager"><path codeLine="30" d="M458.2145,183.2893 C427.2745,201.7093 388.67,224.7 363.02,239.98 " fill="none" id="UserPrefsStorage-backto-StorageManager" style="stroke:#A38300;stroke-width:1.1;"/><polygon fill="#A38300" points="463.37,180.22,453.5905,181.387,459.0737,182.7778,457.6829,188.261,463.37,180.22" style="stroke:#A38300;stroke-width:1.1;"/><text fill="#000000" font-family="sans-serif" font-size="13" font-weight="bold" lengthAdjust="spacing" textLength="7.23" x="445.8556" y="201.8172">1</text></g><!--reverse link AddressBookStorage to StorageManager--><g id="link_AddressBookStorage_StorageManager"><path codeLine="31" d="M219.6607,183.1771 C252.1807,201.5971 292.95,224.7 319.91,239.98 " fill="none" id="AddressBookStorage-backto-StorageManager" style="stroke:#A38300;stroke-width:1.1;"/><polygon fill="#A38300" points="214.44,180.22,220.2996,188.1361,218.7906,182.6843,224.2424,181.1752,214.44,180.22" style="stroke:#A38300;stroke-width:1.1;"/><text fill="#000000" font-family="sans-serif" font-size="13" font-weight="bold" lengthAdjust="spacing" textLength="7.23" x="216.6255" y="201.8172">1</text></g><!--reverse link UserPrefsStorage to Storage--><g id="link_UserPrefsStorage_Storage"><path codeLine="33" d="M418.48,158 C400.38,158 400.27,158 382.17,158 " fill="none" id="UserPrefsStorage-backto-Storage" style="stroke:#A38300;stroke-width:1.1;"/><polygon fill="none" points="436.48,158,418.48,152,418.48,164,436.48,158" style="stroke:#A38300;stroke-width:1.1;"/></g><!--link Storage to AddressBookStorage--><g id="link_Storage_AddressBookStorage"><path codeLine="34" d="M301.89,158 C284.96,158 286.04,158 269.12,158 " fill="none" id="Storage-to-AddressBookStorage" style="stroke:#A38300;stroke-width:1.1;"/><polygon fill="none" points="251.12,158,269.12,164,269.12,152,251.12,158" style="stroke:#A38300;stroke-width:1.1;"/></g><!--reverse link UserPrefsStorage to JsonUserPrefsStorage--><g id="link_UserPrefsStorage_JsonUserPrefsStorage"><path codeLine="36" d="M505.6641,197.9624 C508.8141,216.3824 510.24,224.7 512.86,239.98 " fill="none" id="UserPrefsStorage-backto-JsonUserPrefsStorage" style="stroke:#A38300;stroke-width:1.1;stroke-dasharray:7.0,7.0;"/><polygon fill="none" points="502.63,180.22,499.75,198.9738,511.5783,196.9511,502.63,180.22" style="stroke:#A38300;stroke-width:1.1;"/></g><!--reverse link AddressBookStorage to JsonAddressBookStorage--><g id="link_AddressBookStorage_JsonAddressBookStorage"><path codeLine="37" d="M167.4814,197.6992 C162.9514,216.1192 160.84,224.7 157.08,239.98 " fill="none" id="AddressBookStorage-backto-JsonAddressBookStorage" style="stroke:#A38300;stroke-width:1.1;stroke-dasharray:7.0,7.0;"/><polygon fill="none" points="171.78,180.22,161.655,196.2663,173.3078,199.1321,171.78,180.22" style="stroke:#A38300;stroke-width:1.1;"/></g><!--link JsonAddressBookStorage to JsonSerializableAddressBook--><g id="link_JsonAddressBookStorage_JsonSerializableAddressBook"><path codeLine="38" d="M153.26,267.04 C152.32,283.11 151.0434,304.8204 150.0934,320.9204 " fill="none" id="JsonAddressBookStorage-to-JsonSerializableAddressBook" style="stroke:#A38300;stroke-width:1.1;stroke-dasharray:7.0,7.0;"/><polygon fill="#A38300" points="149.74,326.91,154.2632,318.1612,150.0345,321.9187,146.2771,317.69,149.74,326.91" style="stroke:#A38300;stroke-width:1.1;"/></g><!--link JsonSerializableAddressBook to JsonAdaptedContact--><g id="link_JsonSerializableAddressBook_JsonAdaptedContact"><path codeLine="39" d="M149,354.04 C149,370.11 149,391.81 149,407.91 " fill="none" id="JsonSerializableAddressBook-to-JsonAdaptedContact" style="stroke:#A38300;stroke-width:1.1;"/><polygon fill="#A38300" points="149,413.91,153,404.91,149,408.91,145,404.91,149,413.91" style="stroke:#A38300;stroke-width:1.1;"/><text fill="#000000" font-family="sans-serif" font-size="13" font-weight="bold" lengthAdjust="spacing" textLength="5.0591" x="143.0081" y="403.1936">*</text></g><!--link JsonAdaptedContact to JsonAdaptedRole--><g id="link_JsonAdaptedContact_JsonAdaptedRole"><path codeLine="40" d="M149,441.04 C149,457.11 149,478.81 149,494.91 " fill="none" id="JsonAdaptedContact-to-JsonAdaptedRole" style="stroke:#A38300;stroke-width:1.1;"/><polygon fill="#A38300" points="149,500.91,153,491.91,149,495.91,145,491.91,149,500.91" style="stroke:#A38300;stroke-width:1.1;"/><text fill="#000000" font-family="sans-serif" font-size="13" font-weight="bold" lengthAdjust="spacing" textLength="5.0591" x="142.9785" y="490.1936">*</text></g><!--SRC=[ZL9RQuCm57xFhyZisq1167qgGYjpOsnOskvjCCuqjS4qaIGojcx_VQbK6siiyy7B-Ix7yvtSK9wnEYTOwIz6WghUCwHAoYkGiCSWfVZSx6XMSg8K3eFm4em54nAlD-bg_d3_7gVFwSgYP0oKMa1M5bBKF7UHKMLWA0XUQo6FJr3jw_A47CuaxrKHkPHasv4yF4dkacaoFQ3us0rxindbciWjP2IAtdYdw0IcmsNnf7rIOi17lsZ4sJRi-vo-Ne2RkxH-VvxdqYIv4AByzm2MnkuuB5j3N0NNH59Wz1i-6B68FJbKcfXzSGsP7W8hmPfSkcWUQPuJdjPQKNEM9abpeNur2A8k9jHF20Tr5VoSuGlKhoi_mbxe3VSsodGaq9AnpyXM-wRVc1ts9Irs3SNbupecxGW3I_SwMhh3VanWuhkslIiOze-Xt7gktGvBBdQpy3y0]--></g></svg>
