<svg xmlns="http://www.w3.org/2000/svg" xmlns:xlink="http://www.w3.org/1999/xlink" contentStyleType="text/css" height="533px" preserveAspectRatio="none" style="width:937px;height:533px;background:#FFFFFF;" version="1.1" viewBox="0 0 937 533" width="937px" zoomAndPan="magnify"><defs/><g><!--cluster UI--><g id="cluster_UI"><rect fill="#FFFFFF" height="469" rx="2.5" ry="2.5" style="stroke:#181818;stroke-width:1.0;" width="731" x="7" y="58"/><text fill="#000000" font-family="sans-serif" font-size="14" font-weight="bold" lengthAdjust="spacing" textLength="14" x="365.5" y="74.5332">UI</text></g><!--cluster Model--><g id="cluster_Model"><rect fill="#FFFFFF" height="95" rx="2.5" ry="2.5" style="stroke:#181818;stroke-width:1.0;" width="161" x="770" y="431.5"/><text fill="#000000" font-family="sans-serif" font-size="14" font-weight="bold" lengthAdjust="spacing" textLength="40.4414" x="830.2793" y="448.0332">Model</text></g><!--cluster Logic--><g id="cluster_Logic"><rect fill="#FFFFFF" height="95" rx="2.5" ry="2.5" style="stroke:#181818;stroke-width:1.0;" width="157" x="770" y="162"/><text fill="#000000" font-family="sans-serif" font-size="14" font-weight="bold" lengthAdjust="spacing" textLength="37.3311" x="829.8345" y="178.5332">Logic</text></g><!--class Ui--><g id="elem_Ui"><rect codeLine="7" fill="#1D8900" height="44.4971" id="Ui" rx="2.5" ry="2.5" style="stroke:#FFFFFF;stroke-width:1.0;" width="80.2163" x="446" y="94"/><text fill="#FFFFFF" font-family="Arial" font-size="15" lengthAdjust="spacing" textLength="74.2163" x="449" y="113.0698">&#171;interface&#187;</text><text fill="#FFFFFF" font-family="Arial" font-size="15" lengthAdjust="spacing" textLength="14.165" x="479.0256" y="130.3184">Ui</text></g><!--class UiPart--><g id="elem_UiPart"><rect codeLine="8" fill="#1D8900" height="44.4971" id="UiPart" rx="2.5" ry="2.5" style="stroke:#FFFFFF;stroke-width:1.0;" width="69.3765" x="505.5" y="467"/><text fill="#FFFFFF" font-family="Arial" font-size="15" lengthAdjust="spacing" textLength="63.3765" x="508.5" y="486.0698">{abstract}</text><text fill="#FFFFFF" font-family="Arial" font-size="15" lengthAdjust="spacing" textLength="41.6748" x="519.3508" y="503.3184">UiPart</text></g><!--class UiManager--><g id="elem_UiManager"><rect codeLine="9" fill="#1D8900" height="27.2485" id="UiManager" rx="2.5" ry="2.5" style="stroke:#FFFFFF;stroke-width:1.0;" width="79.3667" x="561.5" y="102.5"/><text fill="#FFFFFF" font-family="Arial" font-size="15" lengthAdjust="spacing" textLength="73.3667" x="564.5" y="121.5698">UiManager</text></g><!--class MainWindow--><g id="elem_MainWindow"><rect codeLine="10" fill="#1D8900" height="27.2485" id="MainWindow" rx="2.5" ry="2.5" style="stroke:#FFFFFF;stroke-width:1.0;" width="91.8618" x="475" y="206"/><text fill="#FFFFFF" font-family="Arial" font-size="15" lengthAdjust="spacing" textLength="85.8618" x="478" y="225.0698">MainWindow</text></g><!--class HelpWindow--><g id="elem_HelpWindow"><rect codeLine="11" fill="#1D8900" height="27.2485" id="HelpWindow" rx="2.5" ry="2.5" style="stroke:#FFFFFF;stroke-width:1.0;" width="90.1992" x="444" y="293"/><text fill="#FFFFFF" font-family="Arial" font-size="15" lengthAdjust="spacing" textLength="84.1992" x="447" y="312.0698">HelpWindow</text></g><!--class ResultDisplay--><g id="elem_ResultDisplay"><rect codeLine="12" fill="#1D8900" height="27.2485" id="ResultDisplay" rx="2.5" ry="2.5" style="stroke:#FFFFFF;stroke-width:1.0;" width="97.6992" x="174" y="293"/><text fill="#FFFFFF" font-family="Arial" font-size="15" lengthAdjust="spacing" textLength="91.6992" x="177" y="312.0698">ResultDisplay</text></g><!--class PaginationPanel--><g id="elem_PaginationPanel"><rect codeLine="13" fill="#1D8900" height="27.2485" id="PaginationPanel" rx="2.5" ry="2.5" style="stroke:#FFFFFF;stroke-width:1.0;" width="115.2554" x="606.5" y="293"/><text fill="#FFFFFF" font-family="Arial" font-size="15" lengthAdjust="spacing" textLength="109.2554" x="609.5" y="312.0698">PaginationPanel</text></g><!--class ContactListPanel--><g id="elem_ContactListPanel"><rect codeLine="14" fill="#1D8900" height="27.2485" id="ContactListPanel" rx="2.5" ry="2.5" style="stroke:#FFFFFF;stroke-width:1.0;" width="119.4009" x="602.5" y="206"/><text fill="#FFFFFF" font-family="Arial" font-size="15" lengthAdjust="spacing" textLength="113.4009" x="605.5" y="225.0698">ContactListPanel</text></g><!--class ContactCard--><g id="elem_ContactCard"><rect codeLine="15" fill="#1D8900" height="27.2485" id="ContactCard" rx="2.5" ry="2.5" style="stroke:#FFFFFF;stroke-width:1.0;" width="90.2065" x="632" y="380"/><text fill="#FFFFFF" font-family="Arial" font-size="15" lengthAdjust="spacing" textLength="84.2065" x="635" y="399.0698">ContactCard</text></g><!--class StatusBarFooter--><g id="elem_StatusBarFooter"><rect codeLine="16" fill="#1D8900" height="27.2485" id="StatusBarFooter" rx="2.5" ry="2.5" style="stroke:#FFFFFF;stroke-width:1.0;" width="115.2188" x="23.5" y="293"/><text fill="#FFFFFF" font-family="Arial" font-size="15" lengthAdjust="spacing" textLength="109.2188" x="26.5" y="312.0698">StatusBarFooter</text></g><!--class CommandBox--><g id="elem_CommandBox"><rect codeLine="17" fill="#1D8900" height="27.2485" id="CommandBox" rx="2.5" ry="2.5" style="stroke:#FFFFFF;stroke-width:1.0;" width="101.0391" x="307.5" y="293"/><text fill="#FFFFFF" font-family="Arial" font-size="15" lengthAdjust="spacing" textLength="95.0391" x="310.5" y="312.0698">CommandBox</text></g><!--class HiddenModel--><g id="elem_HiddenModel"><rect codeLine="21" fill="#FFFFFF" height="27.2485" id="HiddenModel" rx="2.5" ry="2.5" style="stroke:#FFFFFF;stroke-width:1.0;" width="94.3887" x="813" y="475.5"/><text fill="#FFFFFF" font-family="Arial" font-size="15" lengthAdjust="spacing" textLength="88.3887" x="816" y="494.5698">HiddenModel</text></g><!--class HiddenLogic--><g id="elem_HiddenLogic"><rect codeLine="25" fill="#FFFFFF" height="27.2485" id="HiddenLogic" rx="2.5" ry="2.5" style="stroke:#FFFFFF;stroke-width:1.0;" width="89.3936" x="813.5" y="206"/><text fill="#FFFFFF" font-family="Arial" font-size="15" lengthAdjust="spacing" textLength="83.3936" x="816.5" y="225.0698">HiddenLogic</text></g><!--class HiddenOutside--><g id="elem_HiddenOutside"><rect codeLine="28" fill="#FFFFFF" height="27.2485" id="HiddenOutside" rx="2.5" ry="2.5" style="stroke:#FFFFFF;stroke-width:1.0;" width="105.2285" x="433.5" y="7"/><text fill="#FFFFFF" font-family="Arial" font-size="15" lengthAdjust="spacing" textLength="99.2285" x="436.5" y="26.0698">HiddenOutside</text></g><!--link HiddenOutside to Ui--><g id="link_HiddenOutside_Ui"><path codeLine="29" d="M486,34.11 C486,49.36 486,69.28 486,87.66 " fill="none" id="HiddenOutside-to-Ui" style="stroke:#0E4100;stroke-width:1.1;stroke-dasharray:7.0,7.0;"/><polygon fill="#0E4100" points="486,93.66,490,84.66,486,88.66,482,84.66,486,93.66" style="stroke:#0E4100;stroke-width:1.1;"/></g><!--reverse link Ui to UiManager--><g id="link_Ui_UiManager"><path codeLine="31" d="M544.43,116 C556.08,116 549.73,116 561.38,116 " fill="none" id="Ui-backto-UiManager" style="stroke:#0E4100;stroke-width:1.1;stroke-dasharray:7.0,7.0;"/><polygon fill="none" points="526.43,116,544.43,122,544.43,110,526.43,116" style="stroke:#0E4100;stroke-width:1.1;"/></g><!--link UiManager to MainWindow--><g id="link_UiManager_MainWindow"><path codeLine="32" d="M590.87,129.86 C575.48,149.38 550.1044,181.578 534.7644,201.038 " fill="none" id="UiManager-to-MainWindow" style="stroke:#0E4100;stroke-width:1.1;"/><polygon fill="#0E4100" points="531.05,205.75,539.763,201.1582,534.1453,201.8233,533.4803,196.2057,531.05,205.75" style="stroke:#0E4100;stroke-width:1.1;"/><text fill="#000000" font-family="sans-serif" font-size="13" font-weight="bold" lengthAdjust="spacing" textLength="7.23" x="526.5332" y="195.2438">1</text></g><!--link MainWindow to CommandBox--><g id="link_MainWindow_CommandBox"><path codeLine="33" d="M486.3096,238.5881 C455.4896,254.6581 418.3399,274.0354 387.4699,290.1354 " fill="none" id="MainWindow-CommandBox" style="stroke:#0E4100;stroke-width:1.1;"/><polygon fill="#0E4100" points="496.95,233.04,489.7804,232.2672,486.3096,238.5881,493.4791,239.3609,496.95,233.04" style="stroke:#0E4100;stroke-width:1.1;"/><polygon fill="#0E4100" points="382.15,292.91,391.9796,292.2948,386.5833,290.5979,388.2802,285.2015,382.15,292.91" style="stroke:#0E4100;stroke-width:1.1;"/><text fill="#000000" font-family="sans-serif" font-size="13" font-weight="bold" lengthAdjust="spacing" textLength="7.23" x="383.0592" y="282.1936">1</text></g><!--link MainWindow to ResultDisplay--><g id="link_MainWindow_ResultDisplay"><path codeLine="34" d="M465.4902,236.3315 C409.1502,252.4015 329.3498,275.1638 272.9198,291.2638 " fill="none" id="MainWindow-ResultDisplay" style="stroke:#0E4100;stroke-width:1.1;"/><polygon fill="#0E4100" points="477.03,233.04,470.163,230.8392,465.4902,236.3315,472.3573,238.5323,477.03,233.04" style="stroke:#0E4100;stroke-width:1.1;"/><polygon fill="#0E4100" points="267.15,292.91,276.9021,294.2873,271.9581,291.5382,274.7072,286.5942,267.15,292.91" style="stroke:#0E4100;stroke-width:1.1;"/><text fill="#000000" font-family="sans-serif" font-size="13" font-weight="bold" lengthAdjust="spacing" textLength="7.23" x="275.749" y="282.1936">1</text></g><!--link MainWindow to PaginationPanel--><g id="link_MainWindow_PaginationPanel"><path codeLine="35" d="M542.6353,241.195 C554.9753,252.705 565.76,261.5 585,273 C598.11,280.84 607.8685,285.4539 621.5385,290.7739 " fill="none" id="MainWindow-PaginationPanel" style="stroke:#0E4100;stroke-width:1.1;"/><polygon fill="#0E4100" points="533.86,233.01,535.5193,240.0276,542.6353,241.195,540.976,234.1774,533.86,233.01" style="stroke:#0E4100;stroke-width:1.1;"/><polygon fill="#0E4100" points="627.13,292.95,620.1935,285.9583,622.4704,291.1366,617.2921,293.4136,627.13,292.95" style="stroke:#0E4100;stroke-width:1.1;"/><text fill="#000000" font-family="sans-serif" font-size="13" font-weight="bold" lengthAdjust="spacing" textLength="7.23" x="604.7341" y="282.2488">1</text></g><!--link MainWindow to StatusBarFooter--><g id="link_MainWindow_StatusBarFooter"><path codeLine="36" d="M462.9578,231.716 C382.0978,247.336 232.9211,276.1518 144.6211,293.2118 " fill="none" id="MainWindow-StatusBarFooter" style="stroke:#0E4100;stroke-width:1.1;"/><polygon fill="#0E4100" points="474.74,229.44,468.0902,226.6506,462.9578,231.716,469.6076,234.5054,474.74,229.44" style="stroke:#0E4100;stroke-width:1.1;"/><polygon fill="#0E4100" points="138.73,294.35,148.3254,296.5701,143.6392,293.4015,146.8078,288.7154,138.73,294.35" style="stroke:#0E4100;stroke-width:1.1;"/><text fill="#000000" font-family="sans-serif" font-size="13" font-weight="bold" lengthAdjust="spacing" textLength="7.23" x="146.5758" y="289.27">1</text></g><!--link MainWindow to HelpWindow--><g id="link_MainWindow_HelpWindow"><path codeLine="37" d="M516.28,233.04 C510.23,249.11 501.9136,271.1946 495.8536,287.2946 " fill="none" id="MainWindow-to-HelpWindow" style="stroke:#0E4100;stroke-width:1.1;"/><polygon fill="#0E4100" points="493.74,292.91,500.654,285.896,495.5013,288.2305,493.1668,283.0778,493.74,292.91" style="stroke:#0E4100;stroke-width:1.1;"/><text fill="#000000" font-family="sans-serif" font-size="13" font-weight="bold" lengthAdjust="spacing" textLength="21.6836" x="470.6363" y="282.1936">0..1</text></g><!--link ContactListPanel to PaginationPanel--><g id="link_ContactListPanel_PaginationPanel"><path codeLine="39" d="M662.4381,239.0384 C662.8081,255.1084 663.0368,264.8133 663.4168,280.9133 " fill="none" id="ContactListPanel-PaginationPanel" style="stroke:#0E4100;stroke-width:1.1;"/><polygon fill="#0E4100" points="662.3,233.04,658.5082,242.1297,662.4151,238.0387,666.5061,241.9455,662.3,233.04" style="stroke:#0E4100;stroke-width:1.1;"/><polygon fill="#0E4100" points="663.7,292.91,667.5573,286.8173,663.4168,280.9133,659.5595,287.0061,663.7,292.91" style="stroke:#0E4100;stroke-width:1.1;"/><text fill="#000000" font-family="sans-serif" font-size="13" font-weight="bold" lengthAdjust="spacing" textLength="7.23" x="654.0474" y="254.7669">1</text></g><!--link PaginationPanel to ContactCard--><g id="link_PaginationPanel_ContactCard"><path codeLine="41" d="M665.92,320.04 C668.38,336.11 671.7037,357.8788 674.1637,373.9788 " fill="none" id="PaginationPanel-to-ContactCard" style="stroke:#0E4100;stroke-width:1.1;"/><polygon fill="#0E4100" points="675.07,379.91,677.6647,370.4091,674.3148,374.9674,669.7565,371.6174,675.07,379.91" style="stroke:#0E4100;stroke-width:1.1;"/><text fill="#000000" font-family="sans-serif" font-size="13" font-weight="bold" lengthAdjust="spacing" textLength="5.0591" x="668.353" y="369.1936">*</text></g><!--reverse link UiPart to MainWindow--><g id="link_UiPart_MainWindow"><path codeLine="43" d="M562.5516,450.2883 C577.1516,414.2683 582.76,355.3 570,293 C565.47,270.87 553.9,247.15 541.43,233.08 " fill="none" id="UiPart-backto-MainWindow" style="stroke:#0E4100;stroke-width:1.1;"/><polygon fill="none" points="555.79,466.97,568.1122,452.5421,556.991,448.0344,555.79,466.97" style="stroke:#0E4100;stroke-width:1.1;"/></g><!--link MainWindow to UiPart--><!--link ResultDisplay to UiPart--><g id="link_ResultDisplay_UiPart"><path codeLine="45" d="M245.04,320.05 C299.31,350.95 424.0884,421.9926 489.6584,459.3326 " fill="none" id="ResultDisplay-to-UiPart" style="stroke:#0E4100;stroke-width:1.1;"/><polygon fill="none" points="505.3,468.24,492.6276,454.1188,486.6893,464.5465,505.3,468.24" style="stroke:#0E4100;stroke-width:1.1;"/></g><!--link CommandBox to UiPart--><g id="link_CommandBox_UiPart"><path codeLine="46" d="M370.8,320.19 C401.71,350.85 467.9002,416.4942 506.0102,454.2942 " fill="none" id="CommandBox-to-UiPart" style="stroke:#0E4100;stroke-width:1.1;"/><polygon fill="none" points="518.79,466.97,510.2355,450.0342,501.7849,458.5541,518.79,466.97" style="stroke:#0E4100;stroke-width:1.1;"/></g><!--link PaginationPanel to UiPart--><g id="link_PaginationPanel_UiPart"><path codeLine="47" d="M655.28,320.19 C634.22,350.85 590.6129,414.334 564.6429,452.134 " fill="none" id="PaginationPanel-to-UiPart" style="stroke:#0E4100;stroke-width:1.1;"/><polygon fill="none" points="554.45,466.97,569.5882,455.5317,559.6975,448.7364,554.45,466.97" style="stroke:#0E4100;stroke-width:1.1;"/></g><!--link ContactCard to UiPart--><g id="link_ContactCard_UiPart"><path codeLine="48" d="M658.52,407.11 C636.1,422.41 612.83,438.3069 585.87,456.6969 " fill="none" id="ContactCard-to-UiPart" style="stroke:#0E4100;stroke-width:1.1;"/><polygon fill="none" points="571,466.84,589.251,461.6535,582.4889,451.7402,571,466.84" style="stroke:#0E4100;stroke-width:1.1;"/></g><!--link StatusBarFooter to UiPart--><g id="link_StatusBarFooter_UiPart"><path codeLine="49" d="M112.91,320.05 C196.06,352.75 402.1482,433.7938 488.4482,467.7238 " fill="none" id="StatusBarFooter-to-UiPart" style="stroke:#0E4100;stroke-width:1.1;"/><polygon fill="none" points="505.2,474.31,490.6436,462.1399,486.2528,473.3077,505.2,474.31" style="stroke:#0E4100;stroke-width:1.1;"/></g><!--link HelpWindow to UiPart--><g id="link_HelpWindow_UiPart"><path codeLine="50" d="M492.59,320.19 C501.25,350.85 518.4859,411.8481 529.1659,449.6481 " fill="none" id="HelpWindow-to-UiPart" style="stroke:#0E4100;stroke-width:1.1;"/><polygon fill="none" points="534.06,466.97,534.9398,448.0167,523.3919,451.2795,534.06,466.97" style="stroke:#0E4100;stroke-width:1.1;"/></g><!--link ContactCard to Model--><g id="link_ContactCard_Model"><path codeLine="52" d="M722.04,405.68 C727.78,408.31 733.28,411.54 738,415.5 C751.645,426.97 761.455,444.3375 767.945,459.1988 C768.3506,460.1276 768.7433,461.0466 769.1231,461.9538 C769.313,462.4074 769.4997,462.858 769.6832,463.3055 C769.7749,463.5292 767.6089,458.1928 767.6991,458.4148 " fill="none" id="ContactCard-to-Model" style="stroke:#0E4100;stroke-width:1.1;stroke-dasharray:7.0,7.0;"/><polygon fill="#0E4100" points="769.9561,463.9742,770.2769,454.1305,768.0753,459.3414,762.8644,457.1398,769.9561,463.9742" style="stroke:#0E4100;stroke-width:1.1;"/></g><!--link UiManager to Logic--><g id="link_UiManager_Logic"><path codeLine="53" d="M640.57,116.83 C670.04,118.59 709.87,125.16 738,146 C752.325,156.61 762.1575,173.9525 768.4888,189.015 C768.8845,189.9564 769.2665,190.8889 769.6351,191.8103 C769.7272,192.0406 767.6133,186.6903 767.7037,186.9192 " fill="none" id="UiManager-to-Logic" style="stroke:#0E4100;stroke-width:1.1;"/><polygon fill="#0E4100" points="769.909,192.4992,770.3211,182.659,768.0713,187.8492,762.8811,185.5993,769.909,192.4992" style="stroke:#0E4100;stroke-width:1.1;"/></g><!--reverse link Logic to MainWindow--><g id="link_Logic_MainWindow"><path codeLine="54" d="M767.8099,187.7735 C767.722,187.549 769.6784,192.5789 769.5889,192.3531 C769.41,191.9014 769.2279,191.4471 769.0426,190.9904 C768.672,190.077 768.2887,189.1541 767.8925,188.2238 C761.5525,173.3375 751.895,156.53 738,146 C726,136.9 617.47,140.31 602.5,142 C594.57,142.89 591.84,141.9 585,146 C560.03,160.95 539.72,188.99 529.09,205.78 " fill="none" id="Logic-backto-MainWindow" style="stroke:#0E4100;stroke-width:1.1;"/><polygon fill="#0E4100" points="769.9862,193.3648,770.4493,183.5269,768.1726,188.7054,762.9941,186.4287,769.9862,193.3648" style="stroke:#0E4100;stroke-width:1.1;"/></g><!--link HelpWindow to PaginationPanel--><!--link CommandBox to HelpWindow--><!--link ResultDisplay to CommandBox--><!--link StatusBarFooter to ResultDisplay--><!--SRC=[VP91Rzim38Nl_XMQToiGOm5s37AeXw854YJ86lIm3GLdgmuHXJ8a6LtHzRzNLkrOjDlcv3n-5AcdzmMfK4qfXNLFIcPrSrA9FIBLOE0am1ZzU7l0uaZIMZ7FvkDYhfKsOdzpdszMcztzxVS8A1HOUmd5iJAwePAZILBx2bJIAsAnsCd20LLABfVFITusYdInG7BIF43XrT-qnrI05Nliwy_mrpe3XNjfYrimhWFQpmxQunh8Jp7T_pKWtI6L-h4JhgMgcR2Jjb7k1zfQmLEdRQ520eUQja1ITMgkoVdfAxJk7Ja7KtRAJmUkyKwOAwtTUPLSdqv0vQN-bxmCRgnrAHKtHFIEN6DPIdeZlbw5NzowqXKMdxQ-4L5hNDmqpg9FGb_cQfOjM-kJiw4YK_B1PV-3FAWpxoJDbYATfx7PmwUuw970H2wynxG8Vv6FgF4RVSID7oFYPYtoBSiy5SKY6PtiZslgxh1912RmUVH5ofB1vhPEpeAJ8Re9kx5VQoWDTZ5vCfMrdASoVMG4gmtNPp8xgqr4o6By-WQhW_FN3KcRth4lJ1V-TGXn-nEmsFvu5Gv5qObjuH0FpyXOZewJmTRlqS6DLm00]--></g></svg>
