<svg xmlns="http://www.w3.org/2000/svg" xmlns:xlink="http://www.w3.org/1999/xlink" contentStyleType="text/css" height="533px" preserveAspectRatio="none" style="width:937px;height:533px;background:#FFFFFF;" version="1.1" viewBox="0 0 937 533" width="937px" zoomAndPan="magnify"><defs/><g><!--cluster UI--><g id="cluster_UI"><rect fill="#FFFFFF" height="469" rx="2.5" ry="2.5" style="stroke:#181818;stroke-width:1.0;" width="731" x="7" y="58"/><text fill="#000000" font-family="sans-serif" font-size="14" font-weight="bold" lengthAdjust="spacing" textLength="14" x="365.5" y="74.5332">UI</text></g><!--cluster Model--><g id="cluster_Model"><rect fill="#FFFFFF" height="95" rx="2.5" ry="2.5" style="stroke:#181818;stroke-width:1.0;" width="161" x="770" y="431.5"/><text fill="#000000" font-family="sans-serif" font-size="14" font-weight="bold" lengthAdjust="spacing" textLength="40.4414" x="830.2793" y="448.0332">Model</text></g><!--cluster Logic--><g id="cluster_Logic"><rect fill="#FFFFFF" height="95" rx="2.5" ry="2.5" style="stroke:#181818;stroke-width:1.0;" width="157" x="770" y="162"/><text fill="#000000" font-family="sans-serif" font-size="14" font-weight="bold" lengthAdjust="spacing" textLength="37.3311" x="829.8345" y="178.5332">Logic</text></g><!--class Ui--><g id="elem_Ui"><rect codeLine="7" fill="#1D8900" height="44.4971" id="Ui" rx="2.5" ry="2.5" style="stroke:#FFFFFF;stroke-width:1.0;" width="80.2163" x="448" y="94"/><text fill="#FFFFFF" font-family="Arial" font-size="15" lengthAdjust="spacing" textLength="74.2163" x="451" y="113.0698">&#171;interface&#187;</text><text fill="#FFFFFF" font-family="Arial" font-size="15" lengthAdjust="spacing" textLength="14.165" x="481.0256" y="130.3184">Ui</text></g><!--class UiPart--><g id="elem_UiPart"><rect codeLine="8" fill="#1D8900" height="44.4971" id="UiPart" rx="2.5" ry="2.5" style="stroke:#FFFFFF;stroke-width:1.0;" width="69.3765" x="509.5" y="467"/><text fill="#FFFFFF" font-family="Arial" font-size="15" lengthAdjust="spacing" textLength="63.3765" x="512.5" y="486.0698">{abstract}</text><text fill="#FFFFFF" font-family="Arial" font-size="15" lengthAdjust="spacing" textLength="41.6748" x="523.3508" y="503.3184">UiPart</text></g><!--class UiManager--><g id="elem_UiManager"><rect codeLine="9" fill="#1D8900" height="27.2485" id="UiManager" rx="2.5" ry="2.5" style="stroke:#FFFFFF;stroke-width:1.0;" width="79.3667" x="563.5" y="102.5"/><text fill="#FFFFFF" font-family="Arial" font-size="15" lengthAdjust="spacing" textLength="73.3667" x="566.5" y="121.5698">UiManager</text></g><!--class MainWindow--><g id="elem_MainWindow"><rect codeLine="10" fill="#1D8900" height="27.2485" id="MainWindow" rx="2.5" ry="2.5" style="stroke:#FFFFFF;stroke-width:1.0;" width="91.8618" x="479" y="206"/><text fill="#FFFFFF" font-family="Arial" font-size="15" lengthAdjust="spacing" textLength="85.8618" x="482" y="225.0698">MainWindow</text></g><!--class HelpWindow--><g id="elem_HelpWindow"><rect codeLine="11" fill="#1D8900" height="27.2485" id="HelpWindow" rx="2.5" ry="2.5" style="stroke:#FFFFFF;stroke-width:1.0;" width="90.1992" x="444" y="293"/><text fill="#FFFFFF" font-family="Arial" font-size="15" lengthAdjust="spacing" textLength="84.1992" x="447" y="312.0698">HelpWindow</text></g><!--class ResultDisplay--><g id="elem_ResultDisplay"><rect codeLine="12" fill="#1D8900" height="27.2485" id="ResultDisplay" rx="2.5" ry="2.5" style="stroke:#FFFFFF;stroke-width:1.0;" width="97.6992" x="174" y="293"/><text fill="#FFFFFF" font-family="Arial" font-size="15" lengthAdjust="spacing" textLength="91.6992" x="177" y="312.0698">ResultDisplay</text></g><!--class PaginationPanel--><g id="elem_PaginationPanel"><rect codeLine="13" fill="#1D8900" height="27.2485" id="PaginationPanel" rx="2.5" ry="2.5" style="stroke:#FFFFFF;stroke-width:1.0;" width="115.2554" x="606.5" y="293"/><text fill="#FFFFFF" font-family="Arial" font-size="15" lengthAdjust="spacing" textLength="109.2554" x="609.5" y="312.0698">PaginationPanel</text></g><!--class PersonListPanel--><g id="elem_PersonListPanel"><rect codeLine="14" fill="#1D8900" height="27.2485" id="PersonListPanel" rx="2.5" ry="2.5" style="stroke:#FFFFFF;stroke-width:1.0;" width="115.2334" x="606.5" y="206"/><text fill="#FFFFFF" font-family="Arial" font-size="15" lengthAdjust="spacing" textLength="109.2334" x="609.5" y="225.0698">PersonListPanel</text></g><!--class PersonCard--><g id="elem_PersonCard"><rect codeLine="15" fill="#1D8900" height="27.2485" id="PersonCard" rx="2.5" ry="2.5" style="stroke:#FFFFFF;stroke-width:1.0;" width="86.0391" x="636" y="380"/><text fill="#FFFFFF" font-family="Arial" font-size="15" lengthAdjust="spacing" textLength="80.0391" x="639" y="399.0698">PersonCard</text></g><!--class StatusBarFooter--><g id="elem_StatusBarFooter"><rect codeLine="16" fill="#1D8900" height="27.2485" id="StatusBarFooter" rx="2.5" ry="2.5" style="stroke:#FFFFFF;stroke-width:1.0;" width="115.2188" x="23.5" y="293"/><text fill="#FFFFFF" font-family="Arial" font-size="15" lengthAdjust="spacing" textLength="109.2188" x="26.5" y="312.0698">StatusBarFooter</text></g><!--class CommandBox--><g id="elem_CommandBox"><rect codeLine="17" fill="#1D8900" height="27.2485" id="CommandBox" rx="2.5" ry="2.5" style="stroke:#FFFFFF;stroke-width:1.0;" width="101.0391" x="307.5" y="293"/><text fill="#FFFFFF" font-family="Arial" font-size="15" lengthAdjust="spacing" textLength="95.0391" x="310.5" y="312.0698">CommandBox</text></g><!--class HiddenModel--><g id="elem_HiddenModel"><rect codeLine="21" fill="#FFFFFF" height="27.2485" id="HiddenModel" rx="2.5" ry="2.5" style="stroke:#FFFFFF;stroke-width:1.0;" width="94.3887" x="813" y="475.5"/><text fill="#FFFFFF" font-family="Arial" font-size="15" lengthAdjust="spacing" textLength="88.3887" x="816" y="494.5698">HiddenModel</text></g><!--class HiddenLogic--><g id="elem_HiddenLogic"><rect codeLine="25" fill="#FFFFFF" height="27.2485" id="HiddenLogic" rx="2.5" ry="2.5" style="stroke:#FFFFFF;stroke-width:1.0;" width="89.3936" x="813.5" y="206"/><text fill="#FFFFFF" font-family="Arial" font-size="15" lengthAdjust="spacing" textLength="83.3936" x="816.5" y="225.0698">HiddenLogic</text></g><!--class HiddenOutside--><g id="elem_HiddenOutside"><rect codeLine="28" fill="#FFFFFF" height="27.2485" id="HiddenOutside" rx="2.5" ry="2.5" style="stroke:#FFFFFF;stroke-width:1.0;" width="105.2285" x="435.5" y="7"/><text fill="#FFFFFF" font-family="Arial" font-size="15" lengthAdjust="spacing" textLength="99.2285" x="438.5" y="26.0698">HiddenOutside</text></g><!--link HiddenOutside to Ui--><g id="link_HiddenOutside_Ui"><path codeLine="29" d="M488,34.11 C488,49.36 488,69.28 488,87.66 " fill="none" id="HiddenOutside-to-Ui" style="stroke:#0E4100;stroke-width:1.1;stroke-dasharray:7.0,7.0;"/><polygon fill="#0E4100" points="488,93.66,492,84.66,488,88.66,484,84.66,488,93.66" style="stroke:#0E4100;stroke-width:1.1;"/></g><!--reverse link Ui to UiManager--><g id="link_Ui_UiManager"><path codeLine="31" d="M546.43,116 C558.08,116 551.73,116 563.38,116 " fill="none" id="Ui-backto-UiManager" style="stroke:#0E4100;stroke-width:1.1;stroke-dasharray:7.0,7.0;"/><polygon fill="none" points="528.43,116,546.43,122,546.43,110,528.43,116" style="stroke:#0E4100;stroke-width:1.1;"/></g><!--link UiManager to MainWindow--><g id="link_UiManager_MainWindow"><path codeLine="32" d="M593.12,129.86 C578.12,149.38 553.4053,181.532 538.4553,200.992 " fill="none" id="UiManager-to-MainWindow" style="stroke:#0E4100;stroke-width:1.1;"/><polygon fill="#0E4100" points="534.8,205.75,543.455,201.0499,537.8461,201.785,537.111,196.1761,534.8,205.75" style="stroke:#0E4100;stroke-width:1.1;"/><text fill="#000000" font-family="sans-serif" font-size="13" font-weight="bold" lengthAdjust="spacing" textLength="7.23" x="530.191" y="195.2438">1</text></g><!--link MainWindow to CommandBox--><g id="link_MainWindow_CommandBox"><path codeLine="33" d="M489.6651,238.4823 C458.0851,254.5523 419.7172,274.0882 388.0872,290.1882 " fill="none" id="MainWindow-CommandBox" style="stroke:#0E4100;stroke-width:1.1;"/><polygon fill="#0E4100" points="500.36,233.04,493.1984,232.1962,489.6651,238.4823,496.8266,239.3261,500.36,233.04" style="stroke:#0E4100;stroke-width:1.1;"/><polygon fill="#0E4100" points="382.74,292.91,392.5752,292.3921,387.196,290.6419,388.9462,285.2626,382.74,292.91" style="stroke:#0E4100;stroke-width:1.1;"/><text fill="#000000" font-family="sans-serif" font-size="13" font-weight="bold" lengthAdjust="spacing" textLength="7.23" x="383.8741" y="282.1936">1</text></g><!--link MainWindow to ResultDisplay--><g id="link_MainWindow_ResultDisplay"><path codeLine="34" d="M468.8887,236.2909 C411.7887,252.3609 330.7055,275.1841 273.5155,291.2841 " fill="none" id="MainWindow-ResultDisplay" style="stroke:#0E4100;stroke-width:1.1;"/><polygon fill="#0E4100" points="480.44,233.04,473.5807,230.8151,468.8887,236.2909,475.748,238.5159,480.44,233.04" style="stroke:#0E4100;stroke-width:1.1;"/><polygon fill="#0E4100" points="267.74,292.91,277.4872,294.3215,272.5529,291.5551,275.3193,286.6208,267.74,292.91" style="stroke:#0E4100;stroke-width:1.1;"/><text fill="#000000" font-family="sans-serif" font-size="13" font-weight="bold" lengthAdjust="spacing" textLength="7.23" x="276.5639" y="282.1936">1</text></g><!--link MainWindow to PaginationPanel--><g id="link_MainWindow_PaginationPanel"><path codeLine="35" d="M547.2098,241.507 C559.6098,252.947 570.11,261.47 589,273 C601.6,280.69 610.7908,285.2083 623.8508,290.5783 " fill="none" id="MainWindow-PaginationPanel" style="stroke:#0E4100;stroke-width:1.1;"/><polygon fill="#0E4100" points="538.39,233.37,540.0876,240.3784,547.2098,241.507,545.5122,234.4986,538.39,233.37" style="stroke:#0E4100;stroke-width:1.1;"/><polygon fill="#0E4100" points="629.4,292.86,622.5973,285.7379,624.7757,290.9586,619.555,293.1369,629.4,292.86" style="stroke:#0E4100;stroke-width:1.1;"/><text fill="#000000" font-family="sans-serif" font-size="13" font-weight="bold" lengthAdjust="spacing" textLength="7.23" x="607.8695" y="282.1245">1</text></g><!--link MainWindow to StatusBarFooter--><g id="link_MainWindow_StatusBarFooter"><path codeLine="36" d="M466.9539,231.6156 C385.3339,247.2356 233.6431,276.2822 144.5531,293.3322 " fill="none" id="MainWindow-StatusBarFooter" style="stroke:#0E4100;stroke-width:1.1;"/><polygon fill="#0E4100" points="478.74,229.36,472.0951,226.5591,466.9539,231.6156,473.5988,234.4165,478.74,229.36" style="stroke:#0E4100;stroke-width:1.1;"/><polygon fill="#0E4100" points="138.66,294.46,148.2514,296.697,143.5709,293.5202,146.7477,288.8396,138.66,294.46" style="stroke:#0E4100;stroke-width:1.1;"/><text fill="#000000" font-family="sans-serif" font-size="13" font-weight="bold" lengthAdjust="spacing" textLength="7.23" x="146.8791" y="289.2692">1</text></g><!--link MainWindow to HelpWindow--><g id="link_MainWindow_HelpWindow"><path codeLine="37" d="M519.69,233.04 C512.88,249.11 503.4903,271.2852 496.6703,287.3852 " fill="none" id="MainWindow-to-HelpWindow" style="stroke:#0E4100;stroke-width:1.1;"/><polygon fill="#0E4100" points="494.33,292.91,501.5236,286.1831,496.2803,288.306,494.1573,283.0627,494.33,292.91" style="stroke:#0E4100;stroke-width:1.1;"/><text fill="#000000" font-family="sans-serif" font-size="13" font-weight="bold" lengthAdjust="spacing" textLength="21.6836" x="471.4513" y="282.1936">0..1</text></g><!--link PersonListPanel to PaginationPanel--><g id="link_PersonListPanel_PaginationPanel"><path codeLine="39" d="M664,239.04 C664,255.11 664,264.81 664,280.91 " fill="none" id="PersonListPanel-PaginationPanel" style="stroke:#0E4100;stroke-width:1.1;"/><polygon fill="#0E4100" points="664,233.04,660,242.04,664,238.04,668,242.04,664,233.04" style="stroke:#0E4100;stroke-width:1.1;"/><polygon fill="#0E4100" points="664,292.91,668,286.91,664,280.91,660,286.91,664,292.91" style="stroke:#0E4100;stroke-width:1.1;"/><text fill="#000000" font-family="sans-serif" font-size="13" font-weight="bold" lengthAdjust="spacing" textLength="7.23" x="655.665" y="254.7669">1</text></g><!--link PaginationPanel to PersonCard--><g id="link_PaginationPanel_PersonCard"><path codeLine="41" d="M666.21,320.04 C669.05,336.11 672.8977,357.9012 675.7377,374.0012 " fill="none" id="PaginationPanel-to-PersonCard" style="stroke:#0E4100;stroke-width:1.1;"/><polygon fill="#0E4100" points="676.78,379.91,679.1557,370.352,675.9114,374.986,671.2774,371.7417,676.78,379.91" style="stroke:#0E4100;stroke-width:1.1;"/><text fill="#000000" font-family="sans-serif" font-size="13" font-weight="bold" lengthAdjust="spacing" textLength="5.0591" x="669.9843" y="369.1936">*</text></g><!--reverse link UiPart to MainWindow--><g id="link_UiPart_MainWindow"><path codeLine="43" d="M564.934,449.7858 C577.864,413.7158 581.23,355.36 570,293 C566.07,271.19 555.99,247.38 544.5,233.2 " fill="none" id="UiPart-backto-MainWindow" style="stroke:#0E4100;stroke-width:1.1;"/><polygon fill="none" points="558.86,466.73,570.5821,451.8104,559.2859,447.7611,558.86,466.73" style="stroke:#0E4100;stroke-width:1.1;"/></g><!--link MainWindow to UiPart--><!--link ResultDisplay to UiPart--><g id="link_ResultDisplay_UiPart"><path codeLine="45" d="M245.32,320.05 C300.41,351.03 427.51,422.4982 493.69,459.7082 " fill="none" id="ResultDisplay-to-UiPart" style="stroke:#0E4100;stroke-width:1.1;"/><polygon fill="none" points="509.38,468.53,496.6306,454.4782,490.7494,464.9382,509.38,468.53" style="stroke:#0E4100;stroke-width:1.1;"/></g><!--link CommandBox to UiPart--><g id="link_CommandBox_UiPart"><path codeLine="46" d="M371.08,320.19 C402.67,350.85 470.4628,416.6342 509.4128,454.4342 " fill="none" id="CommandBox-to-UiPart" style="stroke:#0E4100;stroke-width:1.1;"/><polygon fill="none" points="522.33,466.97,513.5914,450.1285,505.2342,458.7399,522.33,466.97" style="stroke:#0E4100;stroke-width:1.1;"/></g><!--link PaginationPanel to UiPart--><g id="link_PaginationPanel_UiPart"><path codeLine="47" d="M655.56,320.19 C635.18,350.85 593.0754,414.1803 567.9454,451.9803 " fill="none" id="PaginationPanel-to-UiPart" style="stroke:#0E4100;stroke-width:1.1;"/><polygon fill="none" points="557.98,466.97,572.9419,455.3021,562.9488,448.6585,557.98,466.97" style="stroke:#0E4100;stroke-width:1.1;"/></g><!--link PersonCard to UiPart--><g id="link_PersonCard_UiPart"><path codeLine="48" d="M660.79,407.11 C638.7,422.41 615.9089,438.2034 589.3489,456.5934 " fill="none" id="PersonCard-to-UiPart" style="stroke:#0E4100;stroke-width:1.1;"/><polygon fill="none" points="574.55,466.84,592.7644,461.5263,585.9333,451.6604,574.55,466.84" style="stroke:#0E4100;stroke-width:1.1;"/></g><!--link StatusBarFooter to UiPart--><g id="link_StatusBarFooter_UiPart"><path codeLine="49" d="M113.19,320.05 C197.17,352.79 405.6298,434.0508 492.4398,467.9008 " fill="none" id="StatusBarFooter-to-UiPart" style="stroke:#0E4100;stroke-width:1.1;"/><polygon fill="none" points="509.21,474.44,494.6196,462.3107,490.2601,473.4908,509.21,474.44" style="stroke:#0E4100;stroke-width:1.1;"/></g><!--link HelpWindow to UiPart--><g id="link_HelpWindow_UiPart"><path codeLine="50" d="M492.87,320.19 C502.21,350.85 520.8226,411.9519 532.3426,449.7519 " fill="none" id="HelpWindow-to-UiPart" style="stroke:#0E4100;stroke-width:1.1;"/><polygon fill="none" points="537.59,466.97,538.0819,448.0027,526.6032,451.501,537.59,466.97" style="stroke:#0E4100;stroke-width:1.1;"/></g><!--link PersonCard to Model--><g id="link_PersonCard_Model"><path codeLine="52" d="M722.27,405.71 C727.93,408.34 733.36,411.56 738,415.5 C751.585,427.04 761.395,444.41 767.8988,459.255 C768.3052,460.1828 768.6988,461.1008 769.0796,462.0068 C769.27,462.4598 769.4571,462.9099 769.6411,463.3567 C769.7331,463.5801 767.5593,458.2467 767.6497,458.4684 " fill="none" id="PersonCard-to-Model" style="stroke:#0E4100;stroke-width:1.1;stroke-dasharray:7.0,7.0;"/><polygon fill="#0E4100" points="769.9147,464.0245,770.2211,454.1804,768.0272,459.3944,762.8131,457.2005,769.9147,464.0245" style="stroke:#0E4100;stroke-width:1.1;"/></g><!--link UiManager to Logic--><g id="link_UiManager_Logic"><path codeLine="53" d="M642.61,117.01 C671.59,118.9 710.49,125.55 738,146 C752.305,156.635 762.1375,173.9775 768.4738,189.0338 C768.8698,189.9748 769.2521,190.9069 769.6211,191.8278 C769.7133,192.058 767.5966,186.7087 767.6872,186.9375 " fill="none" id="UiManager-to-Logic" style="stroke:#0E4100;stroke-width:1.1;"/><polygon fill="#0E4100" points="769.8953,192.5164,770.3025,182.676,768.0552,187.8673,762.8639,185.62,769.8953,192.5164" style="stroke:#0E4100;stroke-width:1.1;"/></g><!--reverse link Logic to MainWindow--><g id="link_Logic_MainWindow"><path codeLine="54" d="M767.8099,187.7735 C767.722,187.549 769.6784,192.5789 769.5889,192.3531 C769.41,191.9014 769.2279,191.4471 769.0426,190.9904 C768.672,190.077 768.2887,189.1541 767.8925,188.2238 C761.5525,173.3375 751.895,156.53 738,146 C726.35,137.17 621.03,140.36 606.5,142 C598.57,142.89 595.84,141.9 589,146 C564.03,160.95 543.72,188.99 533.09,205.78 " fill="none" id="Logic-backto-MainWindow" style="stroke:#0E4100;stroke-width:1.1;"/><polygon fill="#0E4100" points="769.9862,193.3648,770.4493,183.5269,768.1726,188.7054,762.9941,186.4287,769.9862,193.3648" style="stroke:#0E4100;stroke-width:1.1;"/></g><!--link HelpWindow to PaginationPanel--><!--link CommandBox to HelpWindow--><!--link ResultDisplay to CommandBox--><!--link StatusBarFooter to ResultDisplay--><!--SRC=[VP9HIyCm58NV-ojYVHDM7FWuzc1553OsveOFAd9jOtTPTbEIb2dgVpUDxPgqwfwwSxxa9YVd12aJLSwPDk-29sMr5v7U8PMWOCz0ANbORp7R4TUQZPDntqoba8fjRf_JnMonUbvVU40cGEjBo7Q5aXNb8Hf5fNMWu5PXaycAPmQe47mw_OZIUY6B9nCamzKhP5Pzf0t633JROEj_m8is2ZBpLPjBKAO1wiy6sk0So4vHpVyv8DqZvVBG23TSb86muheIvWfrAU2zqPPG8851IKiWBbgLAorfXjeCrHHKtWXt1anbSr3NKfhZGLAvtmFbb_8j-kgocCkSYp0ErkPnWtdEwOSulNO_V-bC5fZzk_I7y9Rwvg8o6cqFMZjKasHQ1nyTusI9uAyc-NHofuviZZIQidWS-r5td-oiHHpZfV0RKoFXU_n5zL_eBwx_61utgf7p9B6KLugejxFThYhReRq23DZZvBFOxqKmjSvnv79qjOs2-zf3TLONLY0FXlhUSMWWzr88lExkWUnlLRV1zT1_UON5rjYxkfODRzWQm-C-R5tLdXpcH- -V98IyslYXX51Od5wi8TflHN3y5kt2-0O0]--></g></svg>
