<svg xmlns="http://www.w3.org/2000/svg" xmlns:xlink="http://www.w3.org/1999/xlink" contentStyleType="text/css" height="383px" preserveAspectRatio="none" style="width:625px;height:383px;background:#FFFFFF;" version="1.1" viewBox="0 0 625 383" width="625px" zoomAndPan="magnify"><defs/><g><rect fill="#C8C8FA" height="364.0313" style="stroke:#181818;stroke-width:0.5;" width="465.29" x="39.8032" y="6"/><text fill="#FFFFFF" font-family="sans-serif" font-size="13" font-weight="bold" lengthAdjust="spacing" textLength="34.6646" x="253.3101" y="19.4951">Logic</text><rect fill="#F97181" height="364.0313" style="stroke:#181818;stroke-width:0.5;" width="92" x="527.1304" y="6"/><text fill="#FFFFFF" font-family="sans-serif" font-size="13" font-weight="bold" lengthAdjust="spacing" textLength="37.5527" x="552.5481" y="19.4951">Model</text><rect fill="#FFFFFF" height="266.7188" style="stroke:#181818;stroke-width:1.0;" width="10" x="102.1099" y="91.3125"/><rect fill="#FFFFFF" height="86.9609" style="stroke:#181818;stroke-width:1.0;" width="10" x="261.1733" y="121.6641"/><rect fill="#FFFFFF" height="32.6094" style="stroke:#181818;stroke-width:1.0;" width="10" x="424.2314" y="145.6641"/><rect fill="#FFFFFF" height="74.7031" style="stroke:#181818;stroke-width:1.0;" width="10" x="424.2314" y="238.9766"/><rect fill="#FFFFFF" height="14" style="stroke:#181818;stroke-width:1.0;" width="10" x="568.1304" y="269.3281"/><line style="stroke:#181818;stroke-width:0.5;stroke-dasharray:5.0,5.0;" x1="106.8032" x2="106.8032" y1="58.9609" y2="376.0313"/><line style="stroke:#181818;stroke-width:0.5;stroke-dasharray:5.0,5.0;" x1="265.9771" x2="265.9771" y1="58.9609" y2="376.0313"/><line style="stroke:#181818;stroke-width:0.5;stroke-dasharray:5.0,5.0;" x1="428.3696" x2="428.3696" y1="160.9688" y2="376.0313"/><line style="stroke:#181818;stroke-width:0.5;stroke-dasharray:5.0,5.0;" x1="573.1304" x2="573.1304" y1="58.9609" y2="376.0313"/><rect fill="#3333C4" height="31.6094" rx="2.5" ry="2.5" style="stroke:#181818;stroke-width:0.5;" width="106.6133" x="53.8032" y="26.3516"/><text fill="#FFFFFF" font-family="sans-serif" font-size="14" lengthAdjust="spacing" textLength="92.6133" x="60.8032" y="47.8848">:LogicManager</text><rect fill="#3333C4" height="31.6094" rx="2.5" ry="2.5" style="stroke:#181818;stroke-width:0.5;" width="142.3926" x="194.9771" y="26.3516"/><text fill="#FFFFFF" font-family="sans-serif" font-size="14" lengthAdjust="spacing" textLength="128.3926" x="201.9771" y="47.8848">:AddressBookParser</text><rect fill="#9D0012" height="31.6094" rx="2.5" ry="2.5" style="stroke:#181818;stroke-width:0.5;" width="64" x="541.1304" y="26.3516"/><text fill="#FFFFFF" font-family="sans-serif" font-size="14" lengthAdjust="spacing" textLength="42.0205" x="552.1201" y="47.8848">:Model</text><rect fill="#FFFFFF" height="266.7188" style="stroke:#181818;stroke-width:1.0;" width="10" x="102.1099" y="91.3125"/><rect fill="#FFFFFF" height="86.9609" style="stroke:#181818;stroke-width:1.0;" width="10" x="261.1733" y="121.6641"/><rect fill="#FFFFFF" height="32.6094" style="stroke:#181818;stroke-width:1.0;" width="10" x="424.2314" y="145.6641"/><rect fill="#FFFFFF" height="74.7031" style="stroke:#181818;stroke-width:1.0;" width="10" x="424.2314" y="238.9766"/><rect fill="#FFFFFF" height="14" style="stroke:#181818;stroke-width:1.0;" width="10" x="568.1304" y="269.3281"/><polygon fill="#181818" points="90.1099,87.3125,100.1099,91.3125,90.1099,95.3125,94.1099,91.3125" style="stroke:#181818;stroke-width:1.0;"/><line style="stroke:#181818;stroke-width:1.0;" x1="0" x2="96.1099" y1="91.3125" y2="91.3125"/><text fill="#000000" font-family="sans-serif" font-size="13" lengthAdjust="spacing" textLength="83.1099" x="9.5" y="86.4561">execute(undo)</text><polygon fill="#181818" points="249.1733,117.6641,259.1733,121.6641,249.1733,125.6641,253.1733,121.6641" style="stroke:#181818;stroke-width:1.0;"/><line style="stroke:#181818;stroke-width:1.0;" x1="112.1099" x2="255.1733" y1="121.6641" y2="121.6641"/><text fill="#000000" font-family="sans-serif" font-size="13" lengthAdjust="spacing" textLength="130.0635" x="121.6099" y="116.8076">parseCommand(undo)</text><polygon fill="#181818" points="355.3696,131.6641,365.3696,135.6641,355.3696,139.6641,359.3696,135.6641" style="stroke:#181818;stroke-width:1.0;"/><line style="stroke:#181818;stroke-width:1.0;" x1="271.1733" x2="361.3696" y1="135.6641" y2="135.6641"/><rect fill="#3333C4" height="31.6094" rx="2.5" ry="2.5" style="stroke:#181818;stroke-width:0.5;" width="123.7236" x="367.3696" y="129.6641"/><text fill="#FFFFFF" font-family="sans-serif" font-size="14" lengthAdjust="spacing" textLength="109.7236" x="374.3696" y="151.1973">u:UndoCommand</text><polygon fill="#181818" points="282.1733,174.2734,272.1733,178.2734,282.1733,182.2734,278.1733,178.2734" style="stroke:#181818;stroke-width:1.0;"/><line style="stroke:#181818;stroke-width:1.0;stroke-dasharray:2.0,2.0;" x1="276.1733" x2="428.2314" y1="178.2734" y2="178.2734"/><polygon fill="#181818" points="123.1099,204.625,113.1099,208.625,123.1099,212.625,119.1099,208.625" style="stroke:#181818;stroke-width:1.0;"/><line style="stroke:#181818;stroke-width:1.0;stroke-dasharray:2.0,2.0;" x1="117.1099" x2="265.1733" y1="208.625" y2="208.625"/><text fill="#000000" font-family="sans-serif" font-size="13" lengthAdjust="spacing" textLength="7.23" x="185.5266" y="203.7686">u</text><polygon fill="#181818" points="412.2314,234.9766,422.2314,238.9766,412.2314,242.9766,416.2314,238.9766" style="stroke:#181818;stroke-width:1.0;"/><line style="stroke:#181818;stroke-width:1.0;" x1="112.1099" x2="418.2314" y1="238.9766" y2="238.9766"/><text fill="#000000" font-family="sans-serif" font-size="13" lengthAdjust="spacing" textLength="54.1899" x="241.0757" y="234.1201">execute()</text><polygon fill="#181818" points="556.1304,265.3281,566.1304,269.3281,556.1304,273.3281,560.1304,269.3281" style="stroke:#181818;stroke-width:1.0;"/><line style="stroke:#181818;stroke-width:1.0;" x1="434.2314" x2="562.1304" y1="269.3281" y2="269.3281"/><text fill="#000000" font-family="sans-serif" font-size="13" lengthAdjust="spacing" textLength="114.8989" x="443.7314" y="264.4717">undoAddressBook()</text><polygon fill="#181818" points="445.2314,279.3281,435.2314,283.3281,445.2314,287.3281,441.2314,283.3281" style="stroke:#181818;stroke-width:1.0;"/><line style="stroke:#181818;stroke-width:1.0;stroke-dasharray:2.0,2.0;" x1="439.2314" x2="572.1304" y1="283.3281" y2="283.3281"/><polygon fill="#181818" points="123.1099,309.6797,113.1099,313.6797,123.1099,317.6797,119.1099,313.6797" style="stroke:#181818;stroke-width:1.0;"/><line style="stroke:#181818;stroke-width:1.0;stroke-dasharray:2.0,2.0;" x1="117.1099" x2="428.2314" y1="313.6797" y2="313.6797"/><text fill="#000000" font-family="sans-serif" font-size="13" lengthAdjust="spacing" textLength="31.7891" x="254.7761" y="308.8232">result</text><line style="stroke:#A80036;stroke-width:2.0;" x1="420.2314" x2="438.2314" y1="335.0313" y2="353.0313"/><line style="stroke:#A80036;stroke-width:2.0;" x1="420.2314" x2="438.2314" y1="353.0313" y2="335.0313"/><polygon fill="#181818" points="11,354.0313,1,358.0313,11,362.0313,7,358.0313" style="stroke:#181818;stroke-width:1.0;"/><line style="stroke:#181818;stroke-width:1.0;stroke-dasharray:2.0,2.0;" x1="5" x2="106.1099" y1="358.0313" y2="358.0313"/><!--SRC=[ZLB9QiCm4BtFLwWvDGSNUZKbaAOB1GUNBYTJWc8DgOWj6IrjylTL79EERAVqPetUCk_95rALbHV8hDjNUDNukWAxbQhXXjTiRep-Vj3AlHvkMLDngG3MUiSolP4bo_B7fyLgaMVvo-hj6WB9oL8sN3asILl8aYk-GJDXt38weDGURow4GMjljTu-SsCxyc1wNi6dxqheXQvhhaHB9kU8Xk4SqXmZBRN0YYtpk_liNAGMqYeEm2Uj8fd5ILE6EoozmqiVrfW2BvtyuWuZ54342Hh3m2bh3XzTaBxQ00zG6ZpSaFGmL0rM573IeqEW1IPZou70SUQ8uR0WJ-aZGVhTq7L-wvt-P_bPztJ1D8o95wMt480ZCkarH5RjSFrsUkc2Ww_SkOOYSl4fXK3ryOU8TKRluu35JP94FnEnelCV]--></g></svg>
